<svg width="175" height="175" viewBox="0 0 175 175" fill="none" xmlns="http://www.w3.org/2000/svg">
<g clip-path="url(#clip0)">
<path d="M121.293 17.5404V6.19134C121.293 2.77068 118.522 0 115.101 0H59.8956C56.475 0 53.7043 2.77068 53.7043 6.19134V17.5433C53.7043 20.9639 56.475 23.7346 59.8956 23.7346H115.101C118.522 23.7317 121.293 20.9611 121.293 17.5404Z" fill="#D3D3D3"/>
<path d="M126.503 105.043H95.4312C94.9577 105.037 94.4625 105.034 93.9486 105.04C93.6481 105.043 93.3544 105.043 93.0448 105.043H90.6611C87.9212 105.08 85.9524 105.452 85.9524 108.139V133.115C85.9524 135.656 87.7106 137.836 90.2211 138.789C89.4659 139.118 88.6332 139.306 87.7572 139.306C84.3366 139.306 81.5659 136.536 81.5659 133.115V105.043H48.4976C46.789 105.043 45.3957 106.43 45.5039 108.136C47.0178 132.187 45.4976 175 87.5 175C129.502 175 127.986 132.187 129.496 108.136C129.602 106.43 128.212 105.043 126.503 105.043Z" fill="#D3D3D3"/>
<path d="M102.205 27.3442H72.7957V98.0283H102.205V27.3442Z" fill="#D3D3D3"/>
</g>
<defs>
<clipPath id="clip0">
<rect width="175" height="175" fill="white"/>
</clipPath>
</defs>
</svg>
