<svg width="67" height="75" viewBox="0 0 67 75" fill="none" xmlns="http://www.w3.org/2000/svg">
<g clip-path="url(#clip0)">
<path d="M58.7728 25.4952C58.6028 25.4952 58.4345 25.5032 58.2672 25.5144C56.9705 23.7972 54.9617 22.7856 52.7874 22.7856C48.9978 22.7856 45.915 25.8684 45.915 29.6576C45.915 30.1473 46.3118 30.5442 46.8016 30.5442H51.7297C51.4746 31.2949 51.334 32.0981 51.334 32.934C51.334 33.4238 51.7308 33.8206 52.2205 33.8206H56.7058C55.1863 34.972 53.6349 34.7186 51.2606 34.3289C50.1205 34.1418 48.8285 33.9296 47.3363 33.8493C43.8512 33.6629 41.4384 35.3755 39.9065 36.5888C38.1719 33.8021 34.7799 31.1135 29.5813 28.3993C27.2778 27.1963 25.8551 25.8463 25.2537 24.2977H37.7177C38.2074 24.2977 38.6042 23.9009 38.6042 23.4112C38.6042 21.5262 38.2329 19.6532 37.5255 17.9184H44.5849C45.0746 17.9184 45.4714 17.5216 45.4714 17.0319C45.4714 12.5505 41.8251 8.90426 37.3434 8.90426C35.195 8.90426 33.24 9.74344 31.7856 11.1096C31.3765 10.8534 30.9565 10.6197 30.5278 10.4069C30.3868 9.06809 29.9356 7.83085 29.2514 6.76525H34.6418C35.1315 6.76525 35.5283 6.36844 35.5283 5.87872C35.5283 2.63741 32.8909 0 29.6492 0C27.3872 0 25.3686 1.2789 24.3868 3.25656C23.7562 3.09858 23.0969 3.01383 22.4177 3.01383C17.9359 3.01383 14.29 6.66011 14.29 11.1418C14.29 11.6151 14.662 11.9982 15.1287 12.0236C14.9179 12.1901 14.7097 12.3605 14.5081 12.5383C13.5083 11.9961 12.3932 11.708 11.2414 11.708C7.45226 11.708 4.36945 14.7908 4.36945 18.5803C4.36945 19.07 4.76626 19.4668 5.25598 19.4668H10.1391C9.78382 20.7218 9.58949 22.0438 9.58949 23.4112C9.58949 23.9009 9.9863 24.2977 10.476 24.2977H18.878C19.2984 26.8376 20.6634 30.2025 24.5409 33.1367C25.4895 33.8544 26.4494 34.4683 27.3331 35.0174C26.6315 35.2374 24.6492 35.2867 19.9226 32.2633C18.817 31.5559 17.6987 31.0468 16.5945 30.7427C15.7792 29.8301 14.6891 29.1677 13.4549 28.8888C12.4386 26.2824 9.87974 24.5059 7.048 24.5059C3.25846 24.5059 0.175659 27.5887 0.175659 31.3778C0.175659 31.8676 0.572468 32.2644 1.06218 32.2644H6.6902C6.3519 33.0133 6.16183 33.8427 6.16183 34.7165C6.16183 35.2062 6.55864 35.603 7.04836 35.603H16.7783C17.0686 35.8447 21.8565 41.3741 28.2294 41.2168C29.6365 41.1821 31.0372 40.9754 32.3925 40.4913C32.4016 40.7617 32.4 45.0695 25.2516 46.7715C21.2047 47.7349 18.406 49.4121 16.9872 51.9958C15.6799 54.3768 15.8932 56.8232 16.1657 58.1512C12.4634 58.8904 11.0835 59.7784 10.5948 60.5612H4.25616C3.76644 60.5612 3.36963 60.958 3.36963 61.4477V65.3823C3.36963 68.5591 5.78683 71.1814 8.8785 71.508V74.0124C8.8785 74.5021 9.27531 74.8989 9.76502 74.8989H19.2047C19.6945 74.8989 20.0913 74.5021 20.0913 74.0124V71.5426H39.7223V74.0124C39.7223 74.5021 40.1191 74.8989 40.6088 74.8989H50.0489C50.5386 74.8989 50.9354 74.5021 50.9354 74.0124V71.508C54.0269 71.1814 56.4443 68.5591 56.4443 65.3823V61.4477C56.4443 60.958 56.0475 60.5612 55.5578 60.5612H49.2173C48.7127 59.7527 47.2586 58.8323 43.2773 58.0793C41.2774 57.7011 38.9125 57.4181 36.3358 57.2415L33.081 53.4381C39.5072 49.3135 40.7175 44.0894 40.8565 43.6246C41.6714 43.2335 43.5514 42.2034 45.3429 40.2991C46.1601 39.4303 47.9338 39.5477 49.8118 39.6716C53.3133 39.9025 58.0624 40.216 59.5001 33.8206H65.3255C65.8152 33.8206 66.212 33.4238 66.212 32.934C66.212 28.8325 62.8748 25.4952 58.7728 25.4952ZM2.02637 30.4913C2.44711 28.1009 4.53913 26.2789 7.04836 26.2789C8.86609 26.2789 10.532 27.2653 11.437 28.7832C10.0698 28.9436 8.84215 29.566 7.91591 30.4913H2.02637ZM8.02903 33.83C8.43736 31.9367 10.1244 30.5138 12.1379 30.5138C14.1514 30.5138 15.8388 31.9367 16.2468 33.83H8.02903ZM47.7654 28.7713C48.1861 26.3809 50.2781 24.5589 52.7874 24.5589C54.1019 24.5589 55.3361 25.0564 56.2687 25.9301C54.7693 26.4677 53.4904 27.4734 52.6108 28.7711H47.7654V28.7713ZM37.3432 10.6775C40.5464 10.6775 43.204 13.0596 43.6365 16.1456H31.0503C31.4829 13.0596 34.14 10.6775 37.3432 10.6775ZM29.6492 1.77305C31.609 1.77305 33.2524 3.15301 33.6586 4.9922H27.7154C27.214 4.55762 26.6606 4.1828 26.0648 3.88103C26.778 2.59592 28.1342 1.77305 29.6492 1.77305ZM22.4177 4.78688C25.3719 4.78688 27.8585 6.8172 28.5863 9.61277C27.1501 9.14504 25.6397 8.90443 24.0969 8.90443C21.9187 8.90443 19.854 9.39096 17.9989 10.2553H16.1248C16.5574 7.16915 19.2145 4.78688 22.4177 4.78688ZM6.21963 17.6938C6.64073 15.3034 8.7324 13.481 11.2416 13.481C11.9159 13.481 12.5728 13.6151 13.1843 13.8683C12.1911 15.0023 11.3702 16.2903 10.7661 17.6938H6.21963ZM11.3934 22.5246C11.8498 15.9149 17.3734 10.6775 24.0969 10.6775C26.4157 10.6775 28.6517 11.2957 30.6187 12.4723C29.7336 13.7736 29.2156 15.3433 29.2156 17.0321C29.2156 17.5218 29.6124 17.9186 30.1021 17.9186H35.5799C36.2684 19.3578 36.6884 20.9252 36.8 22.5248H11.3934V22.5246ZM18.3182 73.1259H10.6515V71.5426H18.3182V73.1259ZM49.1624 73.1259H41.4953V71.5426H49.1624V73.1259ZM54.6714 65.3823C54.6714 67.8016 52.703 69.7695 50.2842 69.7695H9.52992C7.11059 69.7695 5.14268 67.8014 5.14268 65.3823V65.1592H54.6714V65.3823ZM54.6714 62.334V63.3862H5.14268V62.334H54.6714ZM42.4054 59.7227C43.9735 59.9959 45.1072 60.2894 45.9148 60.561H13.8982C14.7062 60.2894 15.8406 59.9958 17.4086 59.7227C20.8159 59.1291 25.2544 58.8023 29.9069 58.8023C34.5594 58.8023 38.9982 59.1291 42.4054 59.7227ZM49.9289 37.9025C47.6214 37.7502 45.4418 37.606 44.0515 39.0844C42.0264 41.2374 39.8381 42.1422 39.7861 42.1633L39.7872 42.1658C39.534 42.2672 39.3076 42.4761 39.2567 42.7649C38.2594 48.4268 31.3473 52.4723 31.2881 52.5098C31.0705 52.6472 30.9234 52.8727 30.8851 53.1271C30.8466 53.3814 30.9207 53.6404 31.0881 53.8356L33.8897 57.1096C32.5941 57.0569 31.262 57.0293 29.9072 57.0293C25.4867 57.0293 21.2927 57.316 17.9131 57.8429C17.6932 56.8076 17.4815 54.7807 18.542 52.8491C19.7028 50.7349 22.1037 49.3463 25.6283 48.5041C36.1801 45.9828 33.917 38.9096 33.9017 38.8766C33.6953 38.4326 33.1758 38.2567 32.7242 38.4457C24.432 41.919 18.3771 34.6374 18.106 34.4032C18.0835 33.9715 18.0145 33.5521 17.9051 33.1493C18.2586 33.3278 18.6133 33.53 18.9679 33.7569C22.2152 35.834 24.7968 36.8787 26.6726 36.8787C27.2042 36.8787 27.6794 36.7945 28.0969 36.6266C29.2996 36.1422 29.5673 35.1576 29.5939 35.0472C29.6854 34.6661 29.5133 34.2867 29.1978 34.0904L29.1989 34.0867L28.7742 33.8243C27.7436 33.1881 26.6781 32.5301 25.6115 31.7229C22.339 29.2465 21.1015 26.4605 20.6804 24.2979H23.3843C23.9945 26.5406 25.7586 28.4032 28.7606 29.9709C34.1273 32.7729 37.5186 35.5816 38.8407 38.3184C38.8673 38.3739 39.1274 38.8507 39.64 38.8216C39.8294 38.8108 40.0209 38.7606 40.1828 38.6353C40.3328 38.5193 40.4916 38.3915 40.6606 38.256C42.1335 37.0734 44.1507 35.4521 47.2413 35.62C48.6368 35.6952 49.8783 35.8988 50.9734 36.0785C53.1716 36.4397 55.0579 36.7472 56.875 35.814C55.3945 38.2605 52.8131 38.0934 49.9289 37.9025ZM53.1764 32.0475C53.603 29.3429 55.9503 27.2683 58.7728 27.2683C61.5955 27.2683 63.9427 29.3429 64.3696 32.0475H53.1764Z" fill="#008E00"/>
</g>
<defs>
<clipPath id="clip0">
<rect width="66.3121" height="75" fill="white"/>
</clipPath>
</defs>
</svg>
