<svg width="14" height="14" viewBox="0 0 14 14" fill="none" xmlns="http://www.w3.org/2000/svg">
<g clip-path="url(#clip0)">
<path d="M0.161538 7.53856C0.0538462 7.43086 0 7.26933 0 7.16163C0 7.05394 0.0538462 6.8924 0.161538 6.78471L0.915385 6.03086C1.13077 5.81548 1.45385 5.81548 1.66923 6.03086L1.72308 6.08471L4.68462 9.26163C4.79231 9.36933 4.95385 9.36933 5.06154 9.26163L12.2769 1.77702H12.3308C12.5462 1.56163 12.8692 1.56163 13.0846 1.77702L13.8385 2.53086C14.0538 2.74625 14.0538 3.06932 13.8385 3.28471L5.22308 12.2232C5.11538 12.3309 5.00769 12.3847 4.84615 12.3847C4.68462 12.3847 4.57692 12.3309 4.46923 12.2232L0.269231 7.70009L0.161538 7.53856Z" fill="#FFA626"/>
</g>
<defs>
<clipPath id="clip0">
<rect width="14" height="14" fill="white"/>
</clipPath>
</defs>
</svg>
