<svg width="175" height="175" viewBox="0 0 175 175" fill="none" xmlns="http://www.w3.org/2000/svg">
<path d="M50.8449 99.9314C55.7628 99.9314 60.5165 99.6138 65.0148 99.0224V49.7171C60.5169 49.1262 55.7628 48.8086 50.8449 48.8086C22.7643 48.8086 0.000457764 59.1329 0.000457764 71.8692V76.8704C0.000457764 89.6062 22.7643 99.9314 50.8449 99.9314Z" fill="#D3D3D3"/>
<path d="M50.8449 125.677C55.7628 125.677 60.5165 125.359 65.0148 124.769V110.316C60.5156 110.907 55.7641 111.229 50.8449 111.229C26.3336 111.229 5.87532 103.362 1.0698 92.8918C0.369979 94.417 0.000457764 95.9962 0.000457764 97.615V102.616C0.000457764 115.352 22.7643 125.677 50.8449 125.677Z" fill="#D3D3D3"/>
<path d="M65.0143 137.186V136.063C60.5152 136.653 55.7637 136.975 50.8444 136.975C26.3332 136.975 5.87486 129.108 1.06934 118.638C0.369521 120.163 0 121.742 0 123.361V128.362C0 141.099 22.7639 151.423 50.8444 151.423C56.46 151.423 61.8612 151.009 66.9121 150.246C65.6601 147.685 65.0143 144.985 65.0143 142.187V137.186Z" fill="#D3D3D3"/>
<path d="M124.156 9.75177C96.075 9.75177 73.3111 20.0761 73.3111 32.8124V37.8136C73.3111 50.5499 96.075 60.8742 124.156 60.8742C152.236 60.8742 175 50.5499 175 37.8136V32.8124C175 20.0761 152.236 9.75177 124.156 9.75177Z" fill="#D3D3D3"/>
<path d="M124.156 72.1725C99.6443 72.1725 79.186 64.3058 74.3805 53.835C73.6806 55.3597 73.3111 56.9389 73.3111 58.5582V63.5593C73.3111 76.2956 96.075 86.62 124.156 86.62C152.236 86.62 175 76.2956 175 63.5593V58.5582C175 56.9389 174.63 55.3597 173.931 53.835C169.125 64.3058 148.667 72.1725 124.156 72.1725Z" fill="#D3D3D3"/>
<path d="M124.156 97.9187C99.6443 97.9187 79.186 90.0515 74.3805 79.5812C73.6806 81.1059 73.3111 82.6851 73.3111 84.3043V89.3055C73.3111 102.042 96.075 112.367 124.156 112.367C152.236 112.367 175 102.042 175 89.3055V84.3043C175 82.6851 174.63 81.1059 173.931 79.5812C169.125 90.052 148.667 97.9187 124.156 97.9187Z" fill="#D3D3D3"/>
<path d="M124.156 125.055C99.6443 125.055 79.186 117.187 74.3805 106.717C73.6806 108.242 73.3111 109.821 73.3111 111.44V116.441C73.3111 129.178 96.075 139.502 124.156 139.502C152.236 139.502 175 129.178 175 116.441V111.44C175 109.821 174.63 108.241 173.931 106.717C169.125 117.187 148.667 125.055 124.156 125.055Z" fill="#D3D3D3"/>
<path d="M124.156 150.8C99.6443 150.8 79.186 142.934 74.3805 132.463C73.6806 133.988 73.3111 135.568 73.3111 137.186V142.187C73.3111 154.923 96.075 165.248 124.156 165.248C152.236 165.248 175 154.923 175 142.187V137.186C175 135.567 174.63 133.987 173.931 132.463C169.125 142.933 148.667 150.8 124.156 150.8Z" fill="#D3D3D3"/>
</svg>
