<?xml version="1.0" encoding="UTF-8" standalone="no"?>
<svg
   xmlns:dc="http://purl.org/dc/elements/1.1/"
   xmlns:cc="http://creativecommons.org/ns#"
   xmlns:rdf="http://www.w3.org/1999/02/22-rdf-syntax-ns#"
   xmlns:svg="http://www.w3.org/2000/svg"
   xmlns="http://www.w3.org/2000/svg"
   viewBox="0 0 236 101.33333"
   height="101.33333"
   width="236"
   xml:space="preserve"
   id="svg2"
   version="1.1"><metadata
     id="metadata8"><rdf:RDF><cc:Work
         rdf:about=""><dc:format>image/svg+xml</dc:format><dc:type
           rdf:resource="http://purl.org/dc/dcmitype/StillImage" /></cc:Work></rdf:RDF></metadata><defs
     id="defs6" /><g
     transform="matrix(1.3333333,0,0,-1.3333333,0,101.33333)"
     id="g10"><g
       transform="scale(0.1)"
       id="g12"><path
         id="path14"
         style="fill:#ffffff;fill-opacity:1;fill-rule:nonzero;stroke:none"
         d="m 961.516,679.926 c 39.524,-1.813 70.194,-18.91 90.894,-53.262 12,-19.879 16.04,-41.547 12.95,-64.187 -1.36,-10.063 -5.43,-19.86 -9.06,-29.493 -2.73,-7.238 -3.3,-7.058 2.2,-13.316 2.73,-3.102 5.48,-6.199 8.43,-9.113 10.16,-10.071 17.39,-21.61 19.41,-36.129 0.64,-4.61 3.07,-9.02 3.36,-13.61 0.32,-5.078 -0.7,-10.289 -1.45,-15.39 -0.7,-4.621 -1.91,-9.149 -2.77,-13.75 -1.29,-7.031 0.22,-12.86 5.13,-18.672 7.64,-9.047 10.21,-20.297 10.24,-32.109 0.04,-24.071 -10.31,-42.02 -32.06,-52.481 -16.27,-7.828 -33.37,-6.746 -50.32,-1.918 -2.35,0.668 -4.42,2.68 -6.42,4.301 -4.69,3.808 -6.68,8.328 -4.66,12 2.5,4.516 5.32,9.43 11.61,8.98 4.09,-0.3 8.21,-1.152 12.2,-2.23 21.98,-5.934 40.3,5.16 43.87,27.519 1.56,9.77 -3.12,18.289 -9.39,25.61 -3.37,3.937 -7.44,7.277 -10.99,11.078 -3.23,3.449 -3.43,7.223 -1.08,11.469 2.52,4.531 4.53,9.332 6.69,14.054 9.09,19.817 -1,50.93 -23.91,62.606 -4.11,2.101 -8.11,4.613 -11.69,7.523 -6.52,5.352 -7.31,10.52 -2.56,17.719 4.28,6.48 7.79,13.27 11.31,20.172 3.28,6.398 4.49,12.586 4.82,19.34 0.19,3.648 0.32,7.308 0.28,10.957 -0.36,32.211 -15.44,54.461 -44.452,68.531 -13.512,6.551 -27.25,5.898 -41.211,5.793 -35.223,-0.293 -60.282,-26.953 -67.512,-56.781 -4.699,-19.403 -2.789,-39.41 7.738,-57.614 2.293,-3.96 4.203,-8.515 4.785,-13 1.016,-7.73 -2.781,-11.675 -10.781,-11.828 -7.812,-0.148 -15.672,0.852 -23.465,0.461 -30.937,-1.582 -57.746,-30.472 -50.668,-64.722 2.704,-13.039 10.84,-23.379 21.129,-31.786 2.782,-2.285 5.973,-4.05 8.903,-6.164 8.031,-5.82 9,-11.089 3.789,-20.011 -0.789,-1.348 -1.45,-2.84 -2.5,-3.946 -9.469,-10.011 -7.899,-22.339 -6.071,-34.023 1.871,-11.949 17.481,-25.18 29.582,-26.738 14.309,-1.84 28.211,-1.481 39.598,9.359 1.473,1.402 3.191,2.73 5.051,3.449 9.961,3.864 17.621,-0.918 18.64,-11.508 0.149,-1.55 0.083,-3.128 -0.019,-4.691 -1.063,-17.699 -2.121,-35.398 -3.262,-53.09 -0.23,-3.64 -0.418,-7.34 -1.23,-10.879 -3.227,-14.019 -6.61,-17.097 -20.887,-18.73 -23.871,-2.731 -47.691,-6.52 -70.512,-13.641 -22.121,-6.922 -44.793,-12.871 -65.468,-24.039 -5.414,-2.918 -11.274,-5.101 -17.114,-7.109 -6.359,-2.192 -12.367,0.129 -14.847,5.097 -3.379,6.762 -2,14.071 4.062,18 5.195,3.371 10.629,6.68 16.399,8.84 13.937,5.242 28.117,9.832 42.23,14.602 7.277,2.469 14.57,4.941 21.938,7.101 11.929,3.489 23.871,6.938 35.91,9.957 5.019,1.262 10.3,1.813 15.492,1.942 6.949,0.179 13.187,2.437 19.609,4.711 5.129,1.808 7.93,4.597 8.168,10.011 0.114,2.598 0.551,5.196 0.59,7.797 0.18,12.91 2.594,17.711 -14.707,14.668 -2.543,-0.437 -5.211,-0.078 -7.82,-0.23 -29.063,-1.688 -48.77,14.004 -62.172,37.015 -8,13.739 -11.789,30.196 -4.32,46.598 4.39,9.641 2.863,18 -5.45,25.27 -14.058,12.281 -17.98,29.711 -22.5,46.679 -0.789,2.942 -0.98,6.41 -0.23,9.321 3.59,13.941 4.91,28.832 13.59,40.879 9.57,13.281 21.75,23.89 37.082,30.21 6.199,2.559 12.98,3.723 19.23,6.18 6.797,2.688 9.008,6.379 5.821,11.781 -7.243,12.278 -6.442,25.782 -3.895,38.059 3.73,17.961 8.98,36.07 21.75,50.551 12.535,14.211 26.973,25.289 44.852,32.597 12.449,5.082 24.66,7.903 38.121,7.403 z M 21.1992,510.582 c -5.9179,-2.004 -12.34373,1.168 -14.34764,7.086 -2.0039,5.918 1.16797,12.344 7.08594,14.348 C 228.496,605.508 392.988,661.27 529.719,698.5 c 137.531,37.445 247.519,56.305 352.64,55.816 104.946,-0.492 224.031,-18.847 366.701,-54.742 142.24,-35.789 308.12,-89.043 507.02,-159.449 5.9,-2.074 8.99,-8.543 6.91,-14.437 -2.08,-5.895 -8.54,-8.989 -14.44,-6.911 C 1550.31,588.949 1385.09,642 1243.57,677.605 1102.49,713.098 985.141,731.246 882.27,731.73 779.586,732.207 671.422,713.586 535.652,676.621 399.086,639.434 235.09,583.844 21.1992,510.582 Z m 5,-474.0312 V 84.3203 H 56.168 c 1.2461,0 2.3203,0.3008 3.0703,0.9805 0.7461,0.6797 1.164,1.5078 1.164,2.5664 0,1.1328 -0.4179,2.0391 -1.164,2.7148 -0.75,0.6797 -1.8242,0.9805 -3.0703,0.9805 H 21.8828 c -1.2461,0 -2.2422,-0.375 -3.0703,-1.0547 -0.832,-0.7539 -1.2461,-1.7344 -1.2461,-2.8672 V 36.5508 c 0,-1.1328 0.4141,-2.0352 1.2461,-2.793 0.8281,-0.7539 1.8242,-1.1328 3.0703,-1.1328 1.2461,0 2.2383,0.3789 3.0742,1.1328 0.8282,0.7578 1.2422,1.6602 1.2422,2.793 z m 70.7891,0 v 16.5273 h 12.2887 c 4.071,0 7.801,0.8321 11.039,2.4141 3.239,1.5859 5.731,3.8476 7.555,6.7148 1.742,2.8711 2.66,6.1172 2.66,9.8125 0,3.7735 -0.918,7.168 -2.66,10.1133 -1.824,2.9414 -4.316,5.2813 -7.555,6.9414 -3.238,1.6602 -6.968,2.4883 -11.039,2.4883 H 92.6758 c -1.2461,0 -2.2422,-0.375 -3.0742,-1.0547 -0.8321,-0.7539 -1.2461,-1.7344 -1.2461,-2.8672 V 36.5508 c 0,-1.1328 0.414,-2.0352 1.2461,-2.793 0.832,-0.7539 1.8281,-1.1328 3.0742,-1.1328 1.2461,0 2.3203,0.3789 3.1523,1.1328 0.75,0.7578 1.1602,1.6602 1.1602,2.793 z M 109.277,60.3242 H 96.9883 v 23.9961 h 12.2887 c 3.735,0 6.891,-1.1328 9.297,-3.4726 2.406,-2.336 3.649,-5.2813 3.649,-8.8282 0,-3.3984 -1.243,-6.1875 -3.649,-8.3789 -2.406,-2.1875 -5.562,-3.3164 -9.297,-3.3164 z m 94.864,-22.1914 -23.411,50.793 c -0.746,1.7344 -2.074,2.6367 -4.066,2.6367 -1.91,0 -3.238,-0.9023 -4.066,-2.6367 L 149.27,38.2852 c -0.25,-0.6797 -0.418,-1.2071 -0.418,-1.7344 0,-1.0547 0.418,-1.9649 1.25,-2.7188 0.742,-0.8281 1.742,-1.207 2.984,-1.207 0.832,0 1.582,0.2266 2.328,0.6797 0.746,0.3789 1.246,0.9805 1.66,1.7344 l 4.731,10.5664 h 29.8 l 4.653,-10.5664 c 0.328,-0.7539 0.91,-1.3555 1.656,-1.7344 0.75,-0.4531 1.496,-0.6797 2.324,-0.6797 1.246,0 2.239,0.3789 3.075,1.1328 0.828,0.7578 1.242,1.6602 1.242,2.7188 0,0.4492 -0.164,0.9804 -0.414,1.6562 z m -39.43,13.9649 12.121,26.8632 11.867,-26.8632 z M 292.098,39.5664 h -2.321 l -22.75,49.3594 c -0.742,1.7344 -2.07,2.6367 -4.062,2.6367 -1.91,0 -3.242,-0.9023 -4.07,-2.6367 L 236.152,39.5664 h -2.492 c -1.246,0 -2.242,-0.375 -3.07,-1.0547 -0.832,-0.7539 -1.246,-1.7344 -1.246,-2.8672 V 23.1172 c 0,-1.1328 0.414,-2.1133 1.246,-2.793 0.828,-0.7539 1.824,-1.1328 3.07,-1.1328 1.242,0 2.324,0.3789 3.156,1.1328 0.743,0.6797 1.161,1.6602 1.161,2.793 v 9.5078 h 49.808 v -9.5078 c 0,-1.1328 0.414,-2.1133 1.242,-2.793 0.836,-0.7539 1.828,-1.1328 3.071,-1.1328 1.25,0 2.328,0.3789 3.16,1.1328 0.746,0.6797 1.16,1.6602 1.16,2.793 v 12.5273 c 0,1.1328 -0.414,2.1133 -1.16,2.8672 -0.832,0.6797 -1.91,1.0547 -3.16,1.0547 z m -29.051,40.6797 18.43,-40.6797 h -36.528 z m 110.465,9.8867 -39.848,-45.2812 v 42.789 c 0,1.1328 -0.414,2.1133 -1.164,2.8672 -0.746,0.6797 -1.742,1.0547 -2.988,1.0547 -1.242,0 -2.324,-0.375 -3.153,-1.1289 -0.914,-0.7539 -1.332,-1.6602 -1.332,-2.793 V 36.5508 c 0,-1.1328 0.418,-2.0352 1.332,-2.793 0.829,-0.7539 1.911,-1.1328 3.153,-1.1328 0.582,0 1.246,0.1523 1.828,0.3789 0.578,0.2266 1.078,0.6016 1.496,0.9805 l 39.676,45.2812 V 36.5508 c 0,-1.1328 0.418,-2.0352 1.246,-2.793 0.832,-0.7539 1.828,-1.1328 3.074,-1.1328 1.246,0 2.32,0.3789 3.156,1.1328 0.742,0.7578 1.157,1.6602 1.157,2.793 v 51.0898 c 0,1.1328 -0.415,2.1133 -1.157,2.8672 -0.836,0.6797 -1.91,1.0547 -3.156,1.0547 -0.586,0 -1.246,-0.1484 -1.828,-0.375 -0.578,-0.3008 -1.078,-0.6797 -1.492,-1.0547 z m 89.109,-2.4922 V 65.9805 h -38.519 v 21.6601 c 0,1.1328 -0.414,2.1133 -1.164,2.8672 -0.829,0.6797 -1.907,1.0547 -3.153,1.0547 -1.246,0 -2.242,-0.375 -3.07,-1.0547 -0.832,-0.7539 -1.246,-1.7344 -1.246,-2.8672 V 36.5508 c 0,-1.1328 0.414,-2.0352 1.246,-2.793 0.828,-0.7539 1.824,-1.1328 3.07,-1.1328 1.246,0 2.324,0.3789 3.153,1.1328 0.75,0.7578 1.164,1.6602 1.164,2.793 v 22.4883 h 38.519 V 36.5508 c 0,-1.1328 0.414,-2.0352 1.242,-2.793 0.836,-0.7539 1.828,-1.1328 3.071,-1.1328 1.246,0 2.242,0.3789 3.074,1.1328 0.746,0.6797 1.16,1.6602 1.16,2.793 v 51.0898 c 0,1.1328 -0.414,2.1133 -1.16,2.8672 -0.832,0.6797 -1.828,1.0547 -3.074,1.0547 -1.243,0 -2.235,-0.375 -3.071,-1.0547 -0.828,-0.7539 -1.242,-1.7344 -1.242,-2.8672 z m 71.77,4.6797 c -5.895,0 -11.289,-1.3594 -16.188,-4 -4.898,-2.7187 -8.801,-6.3398 -11.621,-10.9453 -2.824,-4.6016 -4.234,-9.7344 -4.234,-15.2422 0,-5.5859 1.41,-10.7148 4.234,-15.3203 2.82,-4.6016 6.723,-8.3008 11.621,-10.9414 4.899,-2.6406 10.293,-4 16.188,-4 7.554,0 14.359,2.1875 20.339,6.5664 0.911,0.8281 1.329,1.7344 1.329,2.793 0,1.1289 -0.336,2.0351 -1,2.7148 -0.743,0.6797 -1.579,0.9844 -2.657,0.9844 -0.91,0 -1.824,-0.3047 -2.738,-0.9102 -4.894,-3.3164 -9.961,-4.9804 -15.273,-4.9804 -4.317,0 -8.301,1.0586 -11.871,3.0937 -3.653,2.0391 -6.559,4.832 -8.637,8.3789 -2.156,3.5469 -3.235,7.3946 -3.235,11.6211 0,4.1524 1.079,8.0742 3.235,11.6211 2.078,3.5508 4.984,6.3399 8.637,8.3789 3.57,2.0352 7.554,3.0938 11.871,3.0938 3.402,0 6.222,-0.3789 8.382,-1.1328 2.161,-0.8282 4.403,-2.1133 6.645,-3.8477 0.91,-0.6797 1.824,-0.9805 2.902,-0.9805 1.078,0 1.996,0.3008 2.825,0.9805 0.746,0.6797 1.164,1.5078 1.164,2.4883 0,0.6797 -0.086,1.207 -0.336,1.7383 -0.25,0.4531 -0.664,0.9023 -1.328,1.3554 -3.153,2.3399 -6.227,4 -9.297,4.9805 -3.071,0.9805 -6.723,1.5117 -10.957,1.5117 z m 99.855,-53.582 -23.16,24.4492 21.004,22.1875 c 0.746,0.832 1.16,1.7383 1.16,2.6445 0,0.9063 -0.332,1.7344 -1.078,2.4141 -0.746,0.8281 -1.746,1.207 -2.988,1.207 -1.246,0 -2.243,-0.4531 -3.075,-1.3593 L 603.781,65.9805 h -8.551 v 21.6601 c 0,1.1328 -0.414,2.1133 -1.164,2.8672 -0.828,0.6797 -1.91,1.0547 -3.152,1.0547 -1.246,0 -2.242,-0.375 -3.07,-1.0547 -0.836,-0.7539 -1.25,-1.7344 -1.25,-2.8672 V 36.5508 c 0,-1.1328 0.414,-2.0352 1.25,-2.793 0.828,-0.7539 1.824,-1.1328 3.07,-1.1328 1.242,0 2.324,0.3789 3.152,1.1328 0.75,0.7578 1.164,1.6602 1.164,2.793 v 22.4883 h 8.883 L 627.938,33.832 c 0.414,-0.375 0.91,-0.6797 1.496,-0.9062 0.578,-0.2227 1.16,-0.375 1.82,-0.375 1.25,0 2.242,0.375 2.992,1.0547 0.832,0.7539 1.246,1.5859 1.246,2.4922 0,0.9804 -0.414,1.8125 -1.246,2.6406 z m 79.051,51.3945 -39.844,-45.2812 v 42.789 c 0,1.1328 -0.418,2.1133 -1.164,2.8672 -0.746,0.6797 -1.746,1.0547 -2.988,1.0547 -1.242,0 -2.324,-0.375 -3.156,-1.1289 -0.915,-0.7539 -1.329,-1.6602 -1.329,-2.793 V 36.5508 c 0,-1.1328 0.414,-2.0352 1.329,-2.793 0.832,-0.7539 1.914,-1.1328 3.156,-1.1328 0.578,0 1.242,0.1523 1.828,0.3789 0.578,0.2266 1.078,0.6016 1.492,0.9805 l 39.676,45.2812 V 36.5508 c 0,-1.1328 0.422,-2.0352 1.25,-2.793 0.828,-0.7539 1.828,-1.1328 3.07,-1.1328 1.246,0 2.324,0.3789 3.156,1.1328 0.747,0.7578 1.161,1.6602 1.161,2.793 v 51.0898 c 0,1.1328 -0.414,2.1133 -1.161,2.8672 -0.832,0.6797 -1.91,1.0547 -3.156,1.0547 -0.582,0 -1.242,-0.1484 -1.828,-0.375 -0.578,-0.3008 -1.078,-0.6797 -1.492,-1.0547 z M 1238,87.6406 V 39.5664 h -35.54 v 48.0742 c 0,1.1328 -0.41,2.1133 -1.16,2.8672 -0.83,0.6797 -1.91,1.0547 -3.15,1.0547 -1.25,0 -2.24,-0.375 -3.08,-1.0547 -0.82,-0.7539 -1.24,-1.7344 -1.24,-2.8672 V 36.5508 c 0,-1.1328 0.42,-2.0352 1.24,-2.793 0.84,-0.7539 1.83,-1.1328 3.08,-1.1328 h 48.48 v -9.5078 c 0,-1.1328 0.41,-2.1133 1.25,-2.793 0.82,-0.7539 1.82,-1.1328 3.06,-1.1328 1.25,0 2.33,0.3789 3.15,1.1328 0.75,0.6797 1.17,1.6602 1.17,2.793 v 12.5273 c 0,1.1328 -0.42,2.1133 -1.17,2.8672 -0.82,0.6797 -1.9,1.0547 -3.15,1.0547 h -4.31 v 48.0742 c 0,1.1328 -0.42,2.1133 -1.17,2.8672 -0.83,0.6797 -1.91,1.0547 -3.15,1.0547 -1.25,0 -2.24,-0.375 -3.07,-1.0547 -0.83,-0.7539 -1.24,-1.7344 -1.24,-2.8672 z m 100.61,-47.7695 h -33.21 v 18.8633 h 23.83 c 1.24,0 2.24,0.3828 3.07,1.0586 0.74,0.6797 1.16,1.5117 1.16,2.5664 0,1.0547 -0.42,1.9648 -1.16,2.6406 -0.83,0.6797 -1.83,0.9805 -3.07,0.9805 h -23.83 v 18.3398 h 33.21 c 1.24,0 2.32,0.3008 3.07,0.9805 0.75,0.6797 1.16,1.5078 1.16,2.5664 0,1.1328 -0.41,2.0391 -1.16,2.7148 -0.75,0.6797 -1.83,0.9805 -3.07,0.9805 h -37.52 c -1.25,0 -2.25,-0.375 -3.07,-1.0547 -0.84,-0.7539 -1.25,-1.7344 -1.25,-2.8672 V 36.5508 c 0,-1.1328 0.41,-2.0352 1.25,-2.793 0.82,-0.7539 1.82,-1.1328 3.07,-1.1328 h 37.52 c 1.24,0 2.32,0.3789 3.07,1.0586 0.75,0.6758 1.16,1.5078 1.16,2.6406 0,1.0547 -0.41,1.8867 -1.16,2.5664 -0.75,0.6758 -1.83,0.9805 -3.07,0.9805 z m 93.34,47.7695 V 65.9805 h -38.52 v 21.6601 c 0,1.1328 -0.42,2.1133 -1.16,2.8672 -0.83,0.6797 -1.91,1.0547 -3.16,1.0547 -1.25,0 -2.24,-0.375 -3.07,-1.0547 -0.83,-0.7539 -1.24,-1.7344 -1.24,-2.8672 V 36.5508 c 0,-1.1328 0.41,-2.0352 1.24,-2.793 0.83,-0.7539 1.82,-1.1328 3.07,-1.1328 1.25,0 2.33,0.3789 3.16,1.1328 0.74,0.7578 1.16,1.6602 1.16,2.793 v 22.4883 h 38.52 V 36.5508 c 0,-1.1328 0.41,-2.0352 1.24,-2.793 0.83,-0.7539 1.83,-1.1328 3.07,-1.1328 1.25,0 2.24,0.3789 3.07,1.1328 0.75,0.6797 1.17,1.6602 1.17,2.793 v 51.0898 c 0,1.1328 -0.42,2.1133 -1.17,2.8672 -0.83,0.6797 -1.82,1.0547 -3.07,1.0547 -1.24,0 -2.24,-0.375 -3.07,-1.0547 -0.83,-0.7539 -1.24,-1.7344 -1.24,-2.8672 z m 97.53,3.9219 h -44.41 c -1.16,0 -2.07,-0.3008 -2.82,-0.9805 -0.75,-0.6757 -1.16,-1.582 -1.16,-2.6406 0,-1.0547 0.41,-1.8867 1.16,-2.5664 0.75,-0.6758 1.66,-1.0547 2.82,-1.0547 H 1503 V 36.5508 c 0,-1.1328 0.42,-2.0352 1.25,-2.793 0.83,-0.7539 1.82,-1.1328 3.07,-1.1328 1.24,0 2.24,0.3789 3.07,1.1328 0.83,0.7578 1.25,1.6602 1.25,2.793 v 47.7695 h 17.84 c 1.16,0 2.16,0.3789 2.91,1.0547 0.75,0.6797 1.08,1.5117 1.08,2.5664 0,1.0586 -0.33,1.9649 -1.08,2.6406 -0.75,0.6797 -1.75,0.9805 -2.91,0.9805 z m 44.81,-7.2422 h 16.85 V 36.5508 c 0,-1.1328 0.42,-2.0352 1.25,-2.793 0.83,-0.7539 1.82,-1.1328 3.07,-1.1328 h 21.58 c 4.07,0 7.8,0.832 11.05,2.4141 3.23,1.5859 5.72,3.7734 7.55,6.5664 1.75,2.7929 2.65,6.039 2.65,9.5859 0,3.3945 -0.9,6.4883 -2.65,9.1328 -1.83,2.6367 -4.32,4.7539 -7.55,6.2617 -3.25,1.5118 -6.98,2.2657 -11.05,2.2657 h -17.27 v 19.1679 c 0,1.0547 -0.41,1.8868 -1.15,2.5625 -0.83,0.6797 -1.92,0.9805 -3.16,0.9805 h -21.17 c -1.16,0 -2.07,-0.3008 -2.82,-0.9805 -0.75,-0.6757 -1.17,-1.582 -1.17,-2.6406 0,-1.0547 0.42,-1.8867 1.17,-2.5664 0.75,-0.6758 1.66,-1.0547 2.82,-1.0547 z m 42.75,-44.4492 h -17.27 v 22.1875 h 17.27 c 3.91,0 7.06,-0.9063 9.47,-2.7188 2.32,-1.8085 3.49,-4.5273 3.49,-8.1484 0,-3.625 -1.17,-6.418 -3.58,-8.3789 -2.4,-1.9609 -5.47,-2.9414 -9.38,-2.9414 z m 71.62,-3.3203 v 16.5273 h 12.29 c 4.07,0 7.8,0.8321 11.04,2.4141 3.23,1.5859 5.72,3.8476 7.55,6.7148 1.75,2.8711 2.66,6.1172 2.66,9.8125 0,3.7735 -0.91,7.168 -2.66,10.1133 -1.83,2.9414 -4.32,5.2813 -7.55,6.9414 -3.24,1.6602 -6.97,2.4883 -11.04,2.4883 h -16.6 c -1.25,0 -2.24,-0.375 -3.08,-1.0547 -0.83,-0.7539 -1.24,-1.7344 -1.24,-2.8672 V 36.5508 c 0,-1.1328 0.41,-2.0352 1.24,-2.793 0.84,-0.7539 1.83,-1.1328 3.08,-1.1328 1.24,0 2.32,0.3789 3.15,1.1328 0.75,0.7578 1.16,1.6602 1.16,2.793 z m 12.29,23.7734 h -12.29 v 23.9961 h 12.29 c 3.73,0 6.89,-1.1328 9.29,-3.4726 2.41,-2.336 3.65,-5.2813 3.65,-8.8282 0,-3.3984 -1.24,-6.1875 -3.65,-8.3789 -2.4,-2.1875 -5.56,-3.3164 -9.29,-3.3164 z M 1233.2,231.609 v 126.965 c 0,1.098 -0.13,2.141 -0.39,3.121 l -0.02,0.071 -0.01,0.054 -0.02,0.071 -0.01,0.054 -0.02,0.067 c -0.46,1.64 -1.25,3.101 -2.37,4.332 -2,1.797 -4.59,2.793 -7.59,2.793 -2.99,0 -5.38,-0.996 -7.38,-2.793 -2,-1.996 -2.99,-4.594 -2.99,-7.586 V 223.629 c 0,-1.031 0.12,-1.992 0.35,-2.887 l 0.02,-0.058 0.01,-0.063 0.02,-0.058 0.02,-0.063 0.02,-0.059 0.02,-0.062 c 0.46,-1.637 1.32,-3.059 2.58,-4.324 1.99,-1.989 4.4,-2.989 7.39,-2.989 h 116.51 v -24.968 c 0,-1.125 0.14,-2.192 0.43,-3.18 l 0.02,-0.055 0.01,-0.066 0.02,-0.059 0.02,-0.066 c 0.46,-1.625 1.32,-3.035 2.55,-4.145 1.99,-1.992 4.38,-2.992 7.39,-2.992 2.99,0 5.59,1 7.58,2.992 1.8,1.801 2.8,4.399 2.8,7.391 v 33.125 c 0,1.195 -0.16,2.324 -0.47,3.379 l -0.01,0.062 -0.02,0.063 -0.02,0.062 -0.02,0.059 c -0.46,1.562 -1.24,2.961 -2.31,4.148 -2,1.797 -4.59,2.793 -7.58,2.793 h -10.34 v 126.965 c 0,1.145 -0.14,2.231 -0.42,3.246 l -0.02,0.071 -0.02,0.054 -0.02,0.067 c -0.46,1.64 -1.25,3.101 -2.36,4.332 -2,1.797 -4.59,2.793 -7.59,2.793 -2.99,0 -5.39,-0.996 -7.38,-2.793 -1.99,-1.996 -2.99,-4.594 -2.99,-7.586 V 231.609 Z m 144.6,133.86 c -1.57,-1.891 -2.35,-4.239 -2.35,-6.895 V 223.445 c 0,-2.988 1,-5.39 2.98,-7.39 2,-1.989 4.41,-2.989 7.39,-2.989 h 51.91 c 9.78,0 18.75,2 26.55,5.989 6.02,3.093 10.97,7.144 14.94,12.156 l 0.1,0.121 0.14,0.18 0.1,0.125 0.14,0.183 0.1,0.125 c 0.99,1.289 1.91,2.641 2.77,4.055 4.2,7.188 6.39,15.371 6.39,24.352 0,9.785 -2.59,17.968 -7.78,24.355 -5.16,6.352 -12.3,10.535 -21.22,12.738 5.36,2.813 9.65,6.383 13.03,10.711 l 0.04,0.051 0.14,0.184 0.04,0.05 0.14,0.18 0.04,0.059 0.14,0.175 0.04,0.059 0.13,0.18 0.04,0.058 0.65,0.903 c 3.4,5.191 5.19,10.98 5.19,17.562 0,7.988 -1.99,15.172 -5.79,21.559 -3.99,6.187 -9.38,11.176 -16.36,14.773 -6.99,3.391 -14.77,5.188 -23.75,5.188 h -47.71 c -2.99,0 -5.39,-0.996 -7.38,-2.793 -0.22,-0.215 -0.41,-0.434 -0.61,-0.66 l -0.02,-0.02 -0.06,-0.078 -0.02,-0.02 -0.06,-0.078 z m 18.55,-15.676 h 37.19 c 7.78,0 14.16,-1.797 18.96,-5.59 4.59,-3.789 6.97,-9.379 6.97,-16.758 0,-5.789 -1.47,-10.48 -4.31,-14.058 l -0.14,-0.18 -0.03,-0.035 c -0.71,-0.836 -1.49,-1.609 -2.35,-2.32 -4.79,-3.793 -11.18,-5.789 -18.96,-5.789 h -37.33 z m 0,-64.066 h 41.38 c 9.38,0 16.96,-2.2 22.74,-6.59 5.59,-4.391 8.39,-10.782 8.39,-18.961 0,-7.016 -1.7,-12.696 -5.22,-17.129 l -0.06,-0.086 -0.15,-0.176 -0.07,-0.086 c -0.88,-1.039 -1.85,-2.008 -2.94,-2.906 -5.79,-4.988 -13.17,-7.383 -22.55,-7.383 h -41.52 z m 133.11,-3.602 h 57.02 c 2.47,0 4.52,0.676 6.29,1.918 l 0.04,0.027 0.06,0.039 0.04,0.032 c 0.43,0.293 0.84,0.609 1.23,0.964 1.79,1.793 2.79,3.993 2.79,6.786 0,2.797 -1,5.191 -2.79,6.984 -2,1.797 -4.4,2.598 -7.39,2.598 h -57.29 v 48.32 h 79.58 c 2.51,0 4.75,0.57 6.46,1.805 l 0.03,0.019 0.07,0.047 c 0.39,0.27 0.76,0.566 1.09,0.906 1.79,1.797 2.79,3.993 2.79,6.785 0,2.997 -1,5.391 -2.79,7.188 -1.8,1.797 -4.39,2.594 -7.39,2.594 h -90.22 c -2.47,0 -4.54,-0.684 -6.31,-1.938 l -0.06,-0.043 c -0.45,-0.297 -0.87,-0.629 -1.27,-0.992 -1.99,-1.996 -2.99,-4.598 -2.99,-7.59 V 223.445 c 0,-2.988 1,-5.39 2.99,-7.39 1.99,-1.989 4.4,-2.989 7.38,-2.989 h 90.22 c 2.46,0 4.65,0.676 6.35,1.911 l 0.01,0.003 0.04,0.024 c 0.45,0.305 0.87,0.656 1.25,1.039 1.79,1.797 2.79,3.988 2.79,6.984 0,2.793 -1,4.993 -2.79,6.789 -1.8,1.793 -4.39,2.594 -7.39,2.594 h -79.84 z m 99.74,82.961 c -1.11,-1.594 -1.72,-3.523 -1.72,-5.711 0,-2.789 1,-4.988 2.8,-6.789 1.79,-1.789 3.99,-2.793 6.77,-2.793 h 43.13 V 223.445 c 0,-2.988 1,-5.39 2.98,-7.39 2,-1.989 4.39,-2.989 7.39,-2.989 2.99,0 5.4,1 7.39,2.989 0.42,0.429 0.81,0.883 1.14,1.351 l 0.03,0.02 0.05,0.082 0.02,0.023 0.05,0.078 0.02,0.024 v 0.008 c 1.21,1.695 1.81,3.664 1.81,5.988 v 126.164 h 42.78 c 2.8,0 5.2,1.004 7,2.793 0.38,0.387 0.71,0.793 1.01,1.215 l 0.02,0.023 v 0.004 l 0.06,0.086 0.01,0.008 c 1.11,1.562 1.62,3.41 1.62,5.637 0,2.793 -0.8,5.187 -2.6,6.984 -1.8,1.797 -4.19,2.594 -6.98,2.594 h -106.79 c -2.8,0 -4.99,-0.797 -6.79,-2.594 -0.39,-0.391 -0.74,-0.805 -1.05,-1.25 l -0.01,-0.012 -0.06,-0.082 -0.01,-0.015 -0.06,-0.082 z M 158.707,231.609 104.098,361.977 c -1,2.539 -2.422,4.41 -4.3089,5.57 -1.5703,1.051 -3.4805,1.59 -5.7539,1.59 -4.5899,0 -7.7813,-2.395 -9.7813,-6.985 L 29.5625,231.609 h -5.9883 c -2.9922,0 -5.3867,-0.996 -7.3828,-2.793 -2,-1.996 -2.9961,-4.589 -2.9961,-7.586 v -33.132 c 0,-2.996 0.9961,-5.59 2.9961,-7.387 0.5625,-0.563 1.1524,-1.039 1.7813,-1.445 l 0.0703,-0.047 0.0351,-0.024 0.0703,-0.043 c 1.6329,-1.074 3.5118,-1.617 5.7071,-1.617 2.9883,0 5.5898,1 7.582,2.992 1.7969,1.801 2.7969,4.399 2.7969,7.391 v 25.148 H 153.719 v -24.968 c 0,-2.996 0.996,-5.59 2.992,-7.387 0.551,-0.551 1.133,-1.02 1.75,-1.422 l 0.035,-0.023 0.067,-0.047 0.039,-0.024 0.066,-0.043 c 1.633,-1.074 3.512,-1.617 5.707,-1.617 3,0 5.59,1 7.59,2.992 1.789,1.801 2.789,4.399 2.789,7.391 v 33.125 c 0,3.004 -1,5.59 -2.789,7.594 -0.488,0.441 -1.012,0.832 -1.57,1.172 l -0.04,0.023 c -1.769,1.152 -3.886,1.777 -6.257,1.777 z m -107.625,0 43.3321,107.153 44.1369,-107.153 z m 159.125,0.801 v 49.715 h 57.277 c 3,0 5.391,1 7.391,2.801 1.801,1.789 2.789,3.988 2.789,6.781 0,2.797 -0.988,5.188 -2.789,6.988 -0.965,0.871 -2.027,1.508 -3.199,1.934 h -0.008 l -0.004,0.004 c -1.371,0.57 -2.902,0.84 -4.633,0.84 h -56.824 v 48.32 h 79.84 c 2.988,0 5.59,0.805 7.391,2.594 1.789,1.797 2.789,4 2.789,6.789 0,3 -1,5.39 -2.789,7.191 -0.848,0.836 -1.864,1.457 -3.016,1.883 h -0.008 l -0.019,0.008 c -1.411,0.597 -3.04,0.879 -4.809,0.879 h -90.219 c -2.996,0 -5.39,-0.996 -7.387,-2.793 -1.996,-1.996 -2.992,-4.594 -2.992,-7.586 V 223.629 c 0,-2.996 0.996,-5.395 2.992,-7.391 1.086,-1.082 2.293,-1.871 3.649,-2.367 l 0.016,-0.008 h 0.003 c 1.254,-0.531 2.637,-0.797 4.176,-0.797 h 90.223 c 2.988,0 5.59,1 7.391,2.789 1.789,1.801 2.789,4 2.789,6.989 0,2.789 -1,4.992 -2.789,6.793 -0.844,0.836 -1.86,1.457 -3.012,1.879 l -0.004,0.004 -0.008,0.003 c -1.414,0.598 -3.051,0.887 -4.828,0.887 z m 220.809,-3.176 -55.692,64.672 50.5,58.68 c 1.801,2.199 2.801,4.59 2.801,6.992 0,2.399 -0.801,4.59 -2.602,6.387 -0.281,0.344 -0.57,0.656 -0.882,0.941 l -0.008,0.008 -0.082,0.074 c -1.692,1.606 -3.824,2.348 -6.403,2.348 -2.992,0 -5.386,-1.195 -7.382,-3.59 L 357.57,301.473 h -20.363 v 57.101 c 0,2.992 -1,5.594 -2.793,7.59 l -0.168,0.149 -0.031,0.031 c -1.996,1.797 -4.59,2.793 -7.586,2.793 -2.992,0 -5.387,-0.996 -7.383,-2.793 -1.996,-1.996 -2.992,-4.594 -2.992,-7.586 V 223.629 c 0,-2.996 0.996,-5.395 2.992,-7.391 l 0.188,-0.183 h 0.004 l 0.093,-0.09 v -0.004 c 1.973,-1.93 4.348,-2.895 7.293,-2.895 2.992,0 5.59,1 7.59,2.989 1.793,2 2.793,4.402 2.793,7.39 v 59.481 h 21.32 l 57.129,-66.485 0.282,-0.269 0.003,-0.004 0.047,-0.043 v -0.004 l 0.047,-0.039 0.004,-0.008 0.043,-0.039 0.008,-0.004 0.043,-0.039 0.004,-0.004 c 0.937,-0.879 2.043,-1.578 3.308,-2.125 1.391,-0.597 2.789,-0.996 4.391,-0.996 2.992,0 5.391,0.996 7.18,2.789 2,2 3,4.199 3,6.59 0,2.602 -1,4.789 -3,6.988 z m 38.277,-6.164 c 1.012,-0.629 2.039,-1.242 3.094,-1.824 11.976,-6.781 25.75,-10.18 41.117,-10.18 15.371,0 29.141,3.399 41.121,10.18 11.969,6.789 21.348,16.371 28.141,28.551 6.589,12.168 9.976,25.949 9.976,41.316 0,15.364 -3.387,29.141 -9.976,41.313 -6.317,11.328 -14.879,20.234 -25.676,26.89 l -0.25,0.157 -0.293,0.179 -0.254,0.153 -0.293,0.175 -0.258,0.153 -1.41,0.82 c -12.176,6.789 -25.746,10.18 -41.117,10.18 -15.367,0 -29.145,-3.391 -41.117,-10.18 -12.176,-6.785 -21.559,-16.168 -28.149,-28.344 -6.582,-12.175 -9.976,-25.945 -9.976,-41.316 0,-15.371 3.394,-29.145 9.976,-41.316 5.821,-10.758 13.824,-19.489 24,-26.055 l 0.25,-0.164 0.289,-0.184 0.258,-0.164 0.289,-0.18 z m 44.211,129.125 c 11.371,0 21.75,-2.597 30.742,-7.992 l 0.418,-0.254 0.125,-0.074 0.293,-0.18 0.121,-0.082 c 8.391,-5.3 14.949,-12.238 19.707,-21.183 4.992,-9.383 7.586,-19.762 7.586,-31.137 0,-11.379 -2.594,-21.758 -7.586,-31.137 -4.988,-9.383 -12.176,-16.57 -21.156,-21.961 -8.981,-5.386 -19.164,-8.183 -30.539,-8.183 -11.379,0 -21.559,2.797 -30.539,8.183 l -0.793,0.489 -0.043,0.023 -0.125,0.078 -0.289,0.184 -0.121,0.078 c -8.207,5.266 -14.821,12.133 -19.5,20.93 -4.992,9.378 -7.59,19.757 -7.59,31.136 0,11.371 2.598,21.75 7.59,31.133 4.992,9.391 12.183,16.57 21.16,21.957 8.98,5.395 19.16,7.992 30.539,7.992 z m 120.703,-128.75 v 43.711 h 29.539 c 9.781,0 18.762,2.199 26.551,6.391 7.777,4.187 13.769,10.176 18.156,17.769 4.192,7.579 6.395,16.161 6.395,25.938 0,9.98 -2.203,18.973 -6.395,26.754 -4.387,7.789 -10.379,13.969 -18.156,18.359 -1.895,1.067 -3.856,2.004 -5.883,2.813 -6.434,2.64 -13.535,3.957 -21.117,3.957 h -39.918 c -2.996,0 -5.391,-0.996 -7.387,-2.793 C 614,364.348 613,361.75 613,358.758 V 223.629 c 0,-2.996 1,-5.395 2.992,-7.391 1.059,-1.054 2.227,-1.832 3.539,-2.328 l 0.012,-0.004 0.016,-0.008 c 1.277,-0.554 2.691,-0.832 4.265,-0.832 2.992,0 5.59,1 7.59,2.989 1.793,2 2.793,4.402 2.793,7.39 z m 0,63.059 v 63.289 h 29.539 c 4.348,0 8.375,-0.703 12.024,-2.129 l 0.253,-0.101 0.098,-0.043 c 3.563,-1.52 6.758,-3.758 9.535,-6.727 5.789,-6.188 8.782,-13.969 8.782,-23.352 0,-8.984 -2.993,-16.367 -8.782,-22.156 -5.789,-5.789 -13.375,-8.781 -22.359,-8.781 z m 375.503,-19.957 1.56,-0.102 c 16.8,-3.281 33.63,-6.371 50.38,-9.929 9.62,-2.051 18.96,-6 28.65,-7 10.64,-1.09 19.79,-6.028 29.58,-9.098 16.12,-5.063 31.64,-12.152 47.25,-18.785 3.69,-1.559 7.21,-4.207 9.98,-7.149 4.59,-4.898 4.28,-9.648 0.07,-15.511 -3.29,-4.567 -8.01,-6.278 -13.68,-4.067 -7.16,2.809 -13.98,6.559 -21.2,9.278 -14.05,5.293 -28.21,10.281 -42.42,15.14 -8.81,3.024 -17.7,5.891 -26.7,8.301 -21.67,5.809 -43.61,10.32 -65.99,12.52 -2.94,0.293 -6.06,1.562 -8.514,3.238 -4.43,3.023 -7.723,7.023 -6.223,13.082 1.192,4.84 6.985,9.539 12.557,10.062 1.54,0.149 3.13,0.02 4.7,0.02 z m -37.554,64.316 c 0,-39.156 0.008,-78.316 -0.011,-117.468 0,-4.18 -0.008,-8.36 -0.18,-12.532 -0.281,-6.996 -3.848,-11.375 -10.41,-14.027 -7.34,-2.961 -14.66,-4.859 -22.68,-4.891 -11.988,-0.05 -24,-0.679 -35.98,-1.437 -8.469,-0.543 -12.25,-4.113 -13.532,-12.344 -0.55,-3.578 -0.367,-7.289 -0.367,-10.937 -0.019,-18.793 0.871,-37.641 -0.289,-56.372 -0.793,-12.7183 4.59,-21.1011 14.207,-27.1597 14.07,-8.8398 27.52,-18.4687 40.731,-28.4883 2.082,-1.5703 4.398,-2.8203 6.558,-4.2929 4.805,-3.2813 9.582,-3.7071 14.504,-0.211 2.121,1.5117 4.488,2.6641 6.617,4.1719 14.781,10.4922 29.316,21.3281 44.386,31.3906 5.5,3.6719 7.52,8.0117 7.5,14.1094 -0.03,19.84 0.02,39.68 0.04,59.52 0.02,10.96 0.2,21.933 -0.02,32.89 -0.12,5.621 1.97,9.891 5.66,13.988 3.65,4.063 7.9,5.25 12.63,3.614 4.48,-1.551 8.44,-4.43 9.23,-9.672 0.46,-3.078 0.39,-6.25 0.39,-9.379 0.04,-32.359 -0.25,-64.738 0.2,-97.1016 0.14,-9.8985 -3.13,-16.8594 -11.27,-22.3086 -10.32,-6.9336 -20.23,-14.4922 -30.41,-21.6485 -12.265,-8.6015 -24.625,-17.0507 -36.926,-25.5937 l -2.39,-1.9883 c -11.227,-7.01952 -14.149,-7.21092 -25.246,0.3008 -15.782,10.668 -31.352,21.6719 -46.942,32.6172 -7.64,5.3594 -14.75,11.6133 -22.82,16.2226 -7.973,4.5704 -10.301,10.8399 -10.231,19.3789 0.211,27.1482 0.059,54.2932 0.071,81.4412 0.008,8.348 -0.16,16.719 0.172,25.059 0.379,9.621 2.187,12.023 11.547,13.75 18.921,3.5 37.46,9.328 57.148,8.281 9.043,-0.48 9.672,0.918 10.012,9.832 0.16,4.168 0.062,8.348 0.062,12.527 0,73.09 0,146.18 0,219.27 0,4.18 -0.164,8.371 0.11,12.531 0.558,8.559 3.429,11.719 10.859,12.68 8.332,1.078 13.359,-2.527 16.34,-11.129 1.301,-3.769 0.691,-8.262 0.699,-12.43 0.039,-40.718 0.02,-81.441 0.031,-122.164" /></g></g></svg>