<svg width="175" height="175" viewBox="0 0 175 175" fill="none" xmlns="http://www.w3.org/2000/svg">
<g clip-path="url(#clip0)">
<path d="M31.71 109.578C38.8028 109.578 44.5709 101.835 44.5709 92.3156C44.5709 82.7966 38.8028 75.0535 31.71 75.0535C24.6157 75.0535 18.8477 82.7966 18.8477 92.3156C18.8477 101.835 24.6157 109.578 31.71 109.578Z" fill="#D3D3D3"/>
<path d="M62.368 109.578C69.4533 109.578 75.2289 101.835 75.2289 92.3156C75.2289 82.7966 69.4541 75.0535 62.368 75.0535C55.2738 75.0535 49.5057 82.7966 49.5057 92.3156C49.5057 101.835 55.2738 109.578 62.368 109.578Z" fill="#D3D3D3"/>
<path d="M86.3776 100.968C80.7991 99.8693 75.2956 104.79 73.8404 112.179C72.3876 119.561 75.614 126.202 81.1932 127.299C86.7657 128.396 92.276 123.476 93.7289 116.094C95.184 108.706 91.9493 102.065 86.3776 100.968Z" fill="#D3D3D3"/>
<path d="M20.2361 112.179C18.781 104.79 13.2782 99.8693 7.69898 100.968C2.12725 102.065 -1.10744 108.705 0.347681 116.095C1.80056 123.476 7.31085 128.397 12.8833 127.3C18.4626 126.202 21.689 119.561 20.2361 112.179Z" fill="#D3D3D3"/>
<path d="M66.4524 131.175C64.9388 121.823 56.8113 114.657 47.0383 114.657C37.2653 114.657 29.137 121.823 27.6241 131.175C20.6677 134.21 15.7921 141.151 15.7921 149.212C15.7921 160.058 24.6157 168.881 35.4617 168.881C39.7866 168.881 43.7879 167.475 47.039 165.1C50.2895 167.475 54.2907 168.881 58.6163 168.881C69.4623 168.881 78.286 160.058 78.286 149.212C78.2852 141.151 73.4081 134.21 66.4524 131.175Z" fill="#D3D3D3"/>
<path d="M112.634 40.643C119.726 40.643 125.494 32.8998 125.494 23.3808C125.494 13.8618 119.726 6.11865 112.634 6.11865C105.539 6.11865 99.7712 13.8618 99.7712 23.3808C99.7712 32.8998 105.539 40.643 112.634 40.643Z" fill="#D3D3D3"/>
<path d="M143.291 40.643C150.377 40.643 156.152 32.8998 156.152 23.3808C156.152 13.8618 150.378 6.11865 143.291 6.11865C136.197 6.11865 130.429 13.8618 130.429 23.3808C130.429 32.8998 136.197 40.643 143.291 40.643Z" fill="#D3D3D3"/>
<path d="M167.301 32.0329C161.723 30.9345 156.219 35.8551 154.764 43.2446C153.311 50.6258 156.537 57.2668 162.117 58.3645C167.689 59.4615 173.199 54.5409 174.652 47.1596C176.107 39.7709 172.873 33.1299 167.301 32.0329Z" fill="#D3D3D3"/>
<path d="M93.8068 58.3653C99.3853 57.2668 102.612 50.6258 101.16 43.2453C99.7045 35.8558 94.2017 30.9352 88.6224 32.0337C83.0507 33.1306 79.816 39.7708 81.2711 47.1611C82.7248 54.5416 88.2351 59.4622 93.8068 58.3653Z" fill="#D3D3D3"/>
<path d="M147.376 62.2405C145.862 52.8879 137.735 45.7224 127.962 45.7224C118.189 45.7224 110.06 52.8879 108.548 62.2405C101.591 65.2752 96.7155 72.2159 96.7155 80.2767C96.7155 91.1227 105.539 99.9464 116.385 99.9464C120.71 99.9464 124.711 98.54 127.962 96.1647C131.213 98.54 135.214 99.9464 139.54 99.9464C150.386 99.9464 159.209 91.1227 159.209 80.2767C159.209 72.2159 154.332 65.2752 147.376 62.2405Z" fill="#D3D3D3"/>
</g>
<defs>
<clipPath id="clip0">
<rect width="175" height="175" fill="white"/>
</clipPath>
</defs>
</svg>
