<svg width="50" height="50" viewBox="0 0 50 50" fill="none" xmlns="http://www.w3.org/2000/svg">
<g clip-path="url(#clip0)">
<path d="M32.2353 25.153C32.107 24.8993 31.816 24.784 31.5536 24.8673L31.5531 24.8657C30.9788 25.0464 29.9892 25.7079 28.0335 29.3493C27.2787 30.7548 26.4315 32.5172 25.5719 34.4617V18.5808C28.8832 18.2885 31.4896 15.4871 31.4896 12.0837V0.571929C31.4896 0.342009 31.352 0.134509 31.1402 0.0450576C30.9284 -0.0440507 30.6838 0.00147578 30.5188 0.161962L27.6396 2.96252L25.4471 0.215153L25.4468 0.215381C25.4224 0.184725 25.3947 0.1559 25.3631 0.130048C25.119 -0.0703599 24.7587 -0.035014 24.5581 0.208861L22.3617 2.88199L19.4749 0.156128C19.3088 -0.000697596 19.0654 -0.0435931 18.8558 0.046659C18.6461 0.13714 18.5104 0.34361 18.5104 0.571929V12.0838C18.5104 12.1745 18.4337 17.885 24.428 18.589V34.4613C24.2036 33.9528 23.9762 33.4474 23.748 32.9529C20.2811 25.4433 18.9005 25.0085 18.4469 24.8655L18.4463 24.8674C18.1839 24.7843 17.8929 24.8996 17.7647 25.1531C17.304 26.0644 17.4615 29.2523 18.2327 34.6281C18.8395 38.8565 19.7055 43.3759 20.2473 45.1406C20.7154 46.6649 21.5169 47.9958 22.5041 48.8884C23.3135 49.62 24.1801 50.0001 25.0105 50.0001C26.1151 50.0001 26.9207 49.4085 27.496 48.8884C28.4832 47.9958 29.2847 46.6649 29.7528 45.1406C30.2946 43.3756 31.1608 38.8563 31.7674 34.6281C32.5386 29.2522 32.6961 26.0643 32.2353 25.153ZM24.9935 1.48074L26.8157 3.76404L25.0818 5.45046L23.1955 3.66921L24.9935 1.48074ZM19.6542 1.89872L24.261 6.24878L19.6542 10.7296V1.89872ZM19.6593 12.3204L30.3457 1.92628V12.0838C30.3457 15.0504 27.9476 17.4638 24.9999 17.4638C22.1311 17.4638 19.7829 15.1776 19.6593 12.3204ZM26.8391 46.9441C26.5967 47.9347 26.1048 48.5903 25.4538 48.79H25.4537C24.8028 48.99 24.0276 48.7234 23.2712 48.0398C22.4348 47.2835 21.7493 46.1347 21.3409 44.8047C20.8139 43.0885 19.9645 38.6437 19.3651 34.4656C18.7152 29.9362 18.6021 27.506 18.6672 26.3908C19.3328 27.0841 20.6002 28.8636 22.7095 33.4323C24.4023 37.099 26.058 41.3487 26.6213 43.1832C27.0296 44.5132 27.1068 45.849 26.8391 46.9441ZM30.635 34.4656C30.0355 38.6436 29.1862 43.0885 28.6592 44.8047C28.5122 45.2833 28.3284 45.7372 28.1155 46.1588C28.1963 45.1173 28.061 43.975 27.7148 42.8475C27.3577 41.6845 26.573 39.576 25.6187 37.2555C28.1861 31.0778 30.2048 27.5451 31.3323 26.377C31.399 27.4859 31.2874 29.9181 30.635 34.4656Z" fill="#FFA626"/>
</g>
<defs>
<clipPath id="clip0">
<rect width="50" height="50" fill="white"/>
</clipPath>
</defs>
</svg>
