<svg width="75" height="75" viewBox="0 0 75 75" fill="none" xmlns="http://www.w3.org/2000/svg">
<path d="M37.5 20.5274C37.2592 20.5274 37.0257 20.4309 36.8561 20.2613C36.6847 20.0913 36.588 19.8562 36.588 19.6173C36.588 19.3765 36.6847 19.1414 36.8561 18.9717C37.0239 18.8021 37.2592 18.7034 37.5 18.7034C37.7408 18.7034 37.9761 18.8021 38.1457 18.9717C38.3153 19.1414 38.412 19.3765 38.412 19.6173C38.412 19.8562 38.3153 20.0915 38.1439 20.2613C37.9761 20.4309 37.7408 20.5274 37.5 20.5274Z" fill="#008E00"/>
<path d="M54.3247 25.5381C54.084 25.5381 53.8487 25.4412 53.679 25.2698C53.5094 25.1001 53.4109 24.8668 53.4109 24.6261C53.4109 24.3853 53.5094 24.1515 53.679 23.9802C53.8487 23.8105 54.084 23.7141 54.3247 23.7141C54.5637 23.7141 54.799 23.8105 54.9686 23.9802C55.1382 24.1515 55.2367 24.3853 55.2367 24.6261C55.2367 24.8648 55.1382 25.1003 54.9686 25.2698C54.799 25.4412 54.5637 25.5381 54.3247 25.5381Z" fill="#008E00"/>
<path d="M49.6498 12.3304C49.409 12.3304 49.1755 12.2336 49.0059 12.0639C48.8363 11.8927 48.7378 11.6592 48.7378 11.4184C48.7378 11.1776 48.8363 10.9422 49.0059 10.7725C49.1755 10.6029 49.409 10.5064 49.6498 10.5064C49.8906 10.5064 50.1259 10.6029 50.2955 10.7725C50.4651 10.9422 50.5618 11.1776 50.5618 11.4184C50.5618 11.6592 50.4651 11.8927 50.2955 12.0639C50.1259 12.2336 49.8906 12.3304 49.6498 12.3304Z" fill="#008E00"/>
<path d="M20.6752 25.5381C20.4363 25.5381 20.201 25.4412 20.0314 25.2698C19.8617 25.1001 19.7632 24.8646 19.7632 24.6261C19.7632 24.3853 19.8617 24.1515 20.0314 23.9802C20.201 23.8105 20.4363 23.7141 20.6752 23.7141C20.916 23.7141 21.1513 23.8105 21.321 23.9802C21.4906 24.1498 21.5873 24.3853 21.5873 24.6261C21.5873 24.8668 21.4906 25.1019 21.321 25.2698C21.1513 25.4412 20.916 25.5381 20.6752 25.5381Z" fill="#008E00"/>
<path d="M25.3502 12.3304C25.1095 12.3304 24.8742 12.2336 24.7045 12.0639C24.5349 11.8927 24.4382 11.657 24.4382 11.4184C24.4382 11.1776 24.5349 10.9442 24.7045 10.7725C24.8742 10.6029 25.1095 10.5064 25.3502 10.5064C25.5892 10.5064 25.8245 10.6029 25.9941 10.7725C26.1637 10.9422 26.2622 11.1776 26.2622 11.4184C26.2622 11.6592 26.1637 11.8927 25.9941 12.0639C25.8245 12.2336 25.5892 12.3304 25.3502 12.3304Z" fill="#008E00"/>
<path d="M74.0801 29.7864C73.9734 29.7706 72.5215 29.5635 70.3245 29.5203C70.5538 29.3485 70.7858 29.1648 71.0178 28.966C73.6827 26.6834 75.0593 23.6809 74.998 20.2828C74.9909 19.8855 74.7275 19.5389 74.3468 19.4253C74.0241 19.3292 67.2643 17.3796 61.4411 20.5885C61.4393 19.4671 60.991 18.4157 60.1107 17.7193C59.2795 17.0617 58.3179 16.7785 57.33 16.9014C56.0561 17.0592 54.987 17.8455 54.324 18.4638C53.9997 18.1612 53.5776 17.8191 53.0826 17.5294C53.2276 17.2671 53.3544 16.9895 53.4541 16.7015C55.0264 16.9198 56.5668 16.3042 57.4206 15.0407C58.4281 13.549 58.3979 11.3235 56.2566 9.47034C57.1578 7.69192 56.8609 5.63807 55.437 4.51192C54.6056 3.854 53.6442 3.57109 52.6563 3.69367C51.3824 3.85163 50.3134 4.63796 49.6503 5.25612C48.9875 4.63778 47.9182 3.85163 46.6447 3.69367C45.657 3.57255 44.6952 3.85436 43.8638 4.51156C42.4402 5.63807 42.1432 7.69173 43.0446 9.4707C42.2021 10.1994 41.6389 11.0255 41.3848 11.8939C41.0959 11.8585 40.8026 11.8543 40.5062 11.8914C39.2324 12.0493 38.1632 12.8358 37.5004 13.4542C36.8373 12.8357 35.7681 12.0491 34.4944 11.8914C34.1976 11.8547 33.9039 11.8587 33.6148 11.8943C33.3607 11.0259 32.7986 10.1996 31.9559 9.4707C32.8571 7.69192 32.5604 5.63807 31.1367 4.51156C30.3053 3.854 29.3441 3.57219 28.3558 3.69367C27.0821 3.85163 26.0131 4.63796 25.35 5.25612C24.687 4.63778 23.6179 3.85163 22.344 3.69367C21.3569 3.57255 20.3945 3.85436 19.5633 4.51156C18.1395 5.63807 17.8425 7.69173 18.7438 9.47015C16.6024 11.3234 16.5723 13.5488 17.5799 15.0409C18.4337 16.3042 19.9737 16.9198 21.5462 16.7015C21.6458 16.9893 21.7717 17.2677 21.9163 17.5298C21.4213 17.8194 21.0007 18.1618 20.6765 18.464C20.0137 17.8457 18.9444 17.0592 17.6704 16.9014C16.6825 16.7788 15.7208 17.0617 14.8898 17.7193C14.0096 18.4155 13.5612 19.4667 13.5592 20.5883C7.73602 17.3796 0.976027 19.329 0.65354 19.4255C0.272868 19.5391 0.00947926 19.8857 0.00236558 20.2829C-0.0585566 23.6813 1.31767 26.6838 3.98274 28.9662C4.2164 29.1663 4.44914 29.3479 4.67988 29.5207C2.48048 29.5637 1.0271 29.7709 0.920394 29.7866C0.670504 29.8233 0.447244 29.9619 0.303329 30.1697C0.159414 30.3771 0.098309 30.6372 0.16142 30.8818C1.87016 37.5002 6.84371 39.8851 6.84371 39.9316C6.84371 53.3794 11.2748 61.1703 14.9922 65.3382C19.0703 69.9103 23.1431 71.2378 23.3146 71.2924C23.4036 71.3204 23.4965 71.3347 23.5898 71.3347H51.4114C51.5048 71.3347 51.5976 71.3204 51.6867 71.2924C51.8581 71.2378 55.9308 69.9105 60.0089 65.3382C63.7261 61.1703 68.1572 53.3794 68.1572 39.9316C68.1572 39.8853 74.8395 37.5002 74.8395 30.8818C74.8395 30.6291 74.8413 30.3769 74.6976 30.1697C74.5533 29.9617 74.3298 29.8231 74.0801 29.7864ZM73.1632 21.0129C72.8613 26.9683 67.3285 29.3014 66.4665 29.6292C65.6181 29.6943 64.73 29.7908 63.8171 29.9293C61.0902 30.3428 58.6422 31.0589 56.4999 32.0579C57.2267 31.5521 57.8053 30.8035 58.1258 29.9086C59.6987 30.127 61.2403 29.5121 62.0943 28.2479C63.0607 26.8171 63.0711 24.7109 61.1796 22.9057C65.5857 19.7611 71.2518 20.6029 73.1632 21.0129ZM53.6008 20.3501L53.6035 20.3479C53.6509 20.4097 53.7038 20.4683 53.7686 20.5179C54.1679 20.8247 54.7406 20.7493 55.0474 20.3501C55.34 19.9692 56.4282 18.8509 57.5545 18.7114C58.0607 18.6486 58.5269 18.7918 58.9791 19.1499C59.8161 19.8118 59.8229 21.2467 58.994 22.3483C58.8447 22.5467 58.7828 22.7975 58.8226 23.0427C58.8624 23.2878 59.0004 23.5062 59.2049 23.6472C60.8018 24.7494 61.3299 26.1211 60.5831 27.2268C60.0228 28.0562 58.8684 28.3537 57.7754 27.9497C57.5148 27.8532 57.2251 27.8805 56.9878 28.0241C56.7501 28.1676 56.5909 28.4113 56.555 28.6867C56.3873 29.9672 55.4285 30.9328 54.3244 30.9328C53.2205 30.9328 52.2616 29.967 52.0938 28.6864C52.0577 28.4113 51.8984 28.1676 51.6609 28.0241C51.4235 27.8809 51.1334 27.853 50.8733 27.9497C49.7806 28.3537 48.6263 28.0562 48.066 27.2272C47.319 26.1211 47.8471 24.7494 49.4442 23.6472C49.6487 23.5062 49.7866 23.2876 49.8265 23.0427C49.8663 22.7975 49.8043 22.5467 49.6551 22.3483C48.8262 21.2467 48.8326 19.8118 49.6697 19.1499C50.122 18.7918 50.5879 18.649 51.0946 18.7114C52.22 18.8509 53.3082 19.9692 53.6008 20.3501ZM66.0886 45.1377H8.9116C8.78009 43.7818 8.69783 42.3519 8.6743 40.8435H65.6617C65.6632 40.8435 65.6647 40.8438 65.6661 40.8438C65.6676 40.8438 65.6692 40.8435 65.6709 40.8435H66.3257C66.3023 42.3519 66.2201 43.7818 66.0886 45.1377ZM27.2818 22.6777C27.9179 21.4226 27.9545 20.032 27.4223 18.9255C27.8787 18.6287 28.2756 18.2357 28.5953 17.7756C28.8786 18.3663 29.1478 18.9831 29.4065 19.6299C28.8516 20.9405 29.0628 22.2503 29.7302 23.2384C30.0518 23.7143 30.4708 24.0981 30.9519 24.3802C32.574 30.6014 32.815 36.7712 32.8455 39.0194H30.974C30.9508 38.1709 30.8321 36.8574 30.3989 35.3882C29.7127 33.0606 28.4587 31.1149 26.723 29.6376C27.4152 29.3532 28.0173 28.8825 28.4461 28.2479C29.4533 26.7562 29.4231 24.5307 27.2818 22.6777ZM30.116 16.7272C30.2523 16.7161 30.388 16.7007 30.5218 16.6774C30.6068 17.0117 30.7301 17.3443 30.8939 17.6678C30.8108 17.7401 30.7316 17.8128 30.6546 17.886C30.4803 17.49 30.3011 17.1039 30.116 16.7272ZM29.1531 39.0194H26.3427C24.7844 36.3195 22.4839 34.152 19.5305 32.5723C19.8958 32.6908 20.2802 32.7569 20.676 32.7569C22.2851 32.7569 23.7148 31.7066 24.3725 30.1719C28.5293 32.7762 29.1035 37.1841 29.1531 39.0194ZM32.9728 24.9389C33.2123 24.9442 33.4547 24.9327 33.6982 24.8986C34.1885 26.2677 35.2791 27.299 36.5878 27.6319V39.0194H34.6722C34.6492 36.822 34.4378 31.0658 32.9728 24.9389ZM38.412 39.0194V27.6321C39.7207 27.299 40.8113 26.2677 41.3018 24.8986C41.5455 24.9329 41.7883 24.9442 42.0279 24.9389C40.5631 31.0647 40.3507 36.822 40.3276 39.0194H38.412ZM45.2701 23.2382C45.9377 22.2496 46.1488 20.9387 45.5924 19.6274C45.8494 18.9861 46.1207 18.3677 46.4049 17.7751C46.7248 18.2344 47.1221 18.6273 47.5784 18.9244C47.0456 20.031 47.0821 21.4222 47.7183 22.6779C45.5769 24.5307 45.5468 26.7562 46.5542 28.2482C46.9822 28.8817 47.583 29.3521 48.2737 29.6363C46.5391 31.114 45.2875 33.0611 44.6014 35.3882C44.1677 36.8591 44.0497 38.1709 44.0267 39.0194H42.1545C42.1843 36.7733 42.4237 30.6093 44.048 24.38C44.5294 24.0981 44.9486 23.7141 45.2701 23.2382ZM44.106 17.6678C44.2698 17.3444 44.3931 17.0119 44.4781 16.6774C44.6138 16.7015 44.7514 16.7166 44.8896 16.7276C44.7041 17.1053 44.5232 17.4916 44.3483 17.8887C44.2702 17.8145 44.1903 17.7408 44.106 17.6678ZM45.8458 39.0194C45.8927 37.1816 46.4632 32.7674 50.6244 30.1636C51.2806 31.7029 52.7123 32.7569 54.3242 32.7569C54.7205 32.7569 55.1052 32.691 55.4711 32.5719C52.5169 34.1519 50.2149 36.3186 48.6564 39.0194H45.8458ZM44.77 10.4398C44.9745 10.2988 45.1125 10.0803 45.1523 9.83532C45.1921 9.59017 45.13 9.33937 44.9808 9.14055C44.152 8.03903 44.1584 6.60444 44.9954 5.94214C45.4478 5.58445 45.9135 5.44126 46.4204 5.50364C47.5463 5.64336 49.0303 7.26072 49.0949 7.31051C49.4944 7.61695 50.0669 7.54162 50.3737 7.1427C50.6663 6.76185 51.7545 5.64318 52.8808 5.50364C53.3876 5.44162 53.8532 5.58445 54.3054 5.94214C55.1424 6.60444 55.1492 8.03939 54.3204 9.14055C54.171 9.33937 54.1091 9.59017 54.1489 9.83532C54.1887 10.0805 54.3267 10.2988 54.5312 10.4398C56.1281 11.5417 56.6562 12.9135 55.9094 14.0194C55.3489 14.8492 54.1943 15.1463 53.1017 14.7423C52.8413 14.6458 52.5516 14.6735 52.3141 14.8167C52.0766 14.9603 51.9172 15.204 51.8813 15.479C51.8165 15.9735 51.6093 16.5005 51.3339 16.9034C51.3288 16.9028 51.3239 16.9018 51.3188 16.9012C50.4336 16.7923 49.5701 17.0101 48.8016 17.5289C48.078 17.1816 47.5414 16.4054 47.4201 15.479C47.384 15.204 47.2247 14.9603 46.9873 14.8167C46.7498 14.6735 46.4596 14.646 46.1996 14.7423C45.6417 14.9486 45.0598 14.9729 44.5442 14.8233C44.3855 13.9952 43.9661 13.2462 43.2874 12.7094C43.2243 12.6595 43.159 12.6157 43.0944 12.5701C43.2466 11.8334 43.8255 11.0913 44.77 10.4398ZM32.8303 17.3382C32.0015 16.2371 32.0082 14.8021 32.8455 14.1398C33.2976 13.7818 33.7628 13.6379 34.2698 13.7013C35.3958 13.841 36.4844 14.9595 36.777 15.3404C37.0836 15.74 37.6563 15.815 38.0558 15.5082C38.1205 15.4588 38.1734 15.4 38.2208 15.3382L38.2236 15.3404C38.5162 14.9595 39.6045 13.8409 40.7305 13.7013C41.2378 13.6382 41.7033 13.7821 42.1553 14.1398C42.9921 14.8021 42.9987 16.2371 42.1698 17.3382C42.0205 17.5371 41.9586 17.7879 41.9982 18.033C42.038 18.2782 42.176 18.4965 42.3805 18.6375C43.9774 19.7394 44.5055 21.1114 43.7589 22.2171C43.5587 22.5135 43.2816 22.7404 42.9595 22.8933C42.9312 22.9037 42.9046 22.9175 42.8776 22.9303C42.3125 23.1704 41.6206 23.1871 40.9514 22.94C40.6913 22.8435 40.4013 22.8709 40.1638 23.0144C39.9263 23.158 39.7669 23.4016 39.7309 23.6767C39.5631 24.9573 38.6042 25.9232 37.5004 25.9232C36.3963 25.9232 35.4374 24.9573 35.2698 23.6771C35.2338 23.4016 35.0746 23.158 34.8369 23.0144C34.5994 22.8712 34.3094 22.8437 34.0493 22.94C33.3823 23.1864 32.6926 23.1705 32.1286 22.9329C32.0972 22.9175 32.0662 22.9011 32.0332 22.8895C31.7146 22.737 31.4404 22.5115 31.242 22.2175C30.495 21.1114 31.0229 19.7394 32.62 18.6375C32.8245 18.4965 32.9624 18.278 33.0023 18.033C33.0415 17.7879 32.9797 17.5371 32.8303 17.3382ZM21.8986 14.7423C20.8058 15.1463 19.6514 14.8492 19.0909 14.0198C18.344 12.9135 18.872 11.5417 20.4689 10.4398C20.6734 10.2988 20.8113 10.0803 20.8513 9.83532C20.891 9.58981 20.829 9.33937 20.6798 9.14055C19.851 8.03939 19.8577 6.60444 20.6948 5.94214C21.1469 5.58445 21.6135 5.44126 22.1195 5.50364C23.2457 5.64336 24.7297 7.26072 24.7944 7.31051C25.1939 7.61695 25.7664 7.54162 26.0732 7.1427C26.3658 6.76185 27.454 5.64318 28.58 5.50364C29.0869 5.44162 29.5527 5.58445 30.0049 5.94214C30.842 6.60444 30.8483 8.03903 30.0195 9.14055C29.8701 9.33937 29.8083 9.59017 29.8481 9.83532C29.8878 10.0805 30.0259 10.2988 30.2304 10.4398C31.1748 11.0913 31.754 11.8339 31.9063 12.5706C31.8417 12.6162 31.7768 12.6596 31.7137 12.7096C31.0349 13.2464 30.6156 13.9954 30.4567 14.8235C29.9411 14.9729 29.3592 14.9488 28.8011 14.7425C28.5408 14.646 28.2509 14.6733 28.0135 14.8169C27.776 14.9605 27.6167 15.2041 27.5806 15.4792C27.4593 16.4056 26.9227 17.1817 26.1991 17.529C25.4306 17.0096 24.5672 16.7912 23.682 16.9014C23.6768 16.9019 23.6719 16.9028 23.6668 16.9036C23.3914 16.5005 23.1842 15.9737 23.1194 15.4792C23.0835 15.2041 22.9241 14.9605 22.6866 14.8169C22.4489 14.6735 22.1589 14.646 21.8986 14.7423ZM15.7953 23.6472C15.9997 23.5062 16.1376 23.2876 16.1776 23.0427C16.2173 22.7975 16.1553 22.5467 16.0061 22.3483C15.1773 21.2467 15.184 19.8118 16.0213 19.1495C16.4734 18.7918 16.9395 18.6483 17.4458 18.7114C18.572 18.8511 19.6604 19.9692 19.9529 20.3501L19.9557 20.3479C20.0031 20.4097 20.056 20.4683 20.1207 20.5179C20.52 20.8247 21.0928 20.7493 21.3996 20.3501C21.6921 19.9692 22.7803 18.8509 23.9063 18.7114C24.4134 18.649 24.8789 18.7922 25.3312 19.1499C26.1683 19.8118 26.1748 21.2467 25.3458 22.3483C25.1964 22.5467 25.1346 22.7975 25.1742 23.0427C25.2139 23.2878 25.352 23.5062 25.5565 23.6472C27.1534 24.7494 27.6815 26.1211 26.9349 27.2268C26.3744 28.0565 25.22 28.3533 24.1274 27.9497C23.8671 27.8532 23.5771 27.8805 23.3398 28.0241C23.1023 28.1676 22.9429 28.4113 22.9069 28.6864C22.7391 29.967 21.7802 30.9328 20.6763 30.9328C19.5723 30.9328 18.6134 29.967 18.4457 28.6867C18.4098 28.4113 18.2506 28.1676 18.0129 28.0241C17.7756 27.8809 17.4856 27.853 17.2253 27.9497C16.1323 28.3537 14.9779 28.0562 14.4176 27.2272C13.6703 26.1209 14.1983 24.7494 15.7953 23.6472ZM1.8366 21.0116C3.74598 20.5985 9.40153 19.7531 13.8178 22.9081C11.9289 24.7127 11.9397 26.8178 12.9058 28.2482C13.7598 29.5119 15.3004 30.1283 16.8742 29.9085C17.1945 30.8026 17.7721 31.5508 18.4979 32.0564C16.3563 31.0581 13.9087 30.3426 11.1829 29.9294C10.2699 29.7912 9.38183 29.6949 8.53348 29.6294C7.67072 29.3014 2.1372 26.9683 1.8366 21.0116ZM2.20158 31.4822C5.8757 31.1638 18.5337 30.7287 24.1903 39.0194H9.48453C8.14114 38.738 4.24321 36.6391 2.20158 31.4822ZM58.725 64.0364C55.3528 67.8544 51.9353 69.2584 51.2551 69.5106H23.7452C23.0649 69.2584 19.6474 67.8544 16.2752 64.0364C13.4972 60.8914 10.2937 55.5381 9.12501 46.9619H65.875C64.7063 55.5381 61.503 60.8912 58.725 64.0364ZM65.5162 39.0194H50.8073C53.447 35.1281 57.8912 32.6813 64.046 31.7394C67.7856 31.1676 71.1725 31.3376 72.7988 31.4811C72.2187 36.6947 66.3706 38.7161 65.5162 39.0194Z" fill="#008E00"/>
</svg>
