<svg width="46" height="50" viewBox="0 0 46 50" fill="none" xmlns="http://www.w3.org/2000/svg">
<path d="M6.19153 30.8147C6.02496 30.8147 5.86217 30.7478 5.74482 30.6303C5.62746 30.513 5.56058 30.3503 5.56058 30.1838C5.56058 30.0172 5.62746 29.8557 5.74482 29.7383C5.86217 29.6209 6.02496 29.5528 6.19153 29.5528C6.35684 29.5528 6.51962 29.6208 6.63698 29.7383C6.75434 29.8558 6.82248 30.0172 6.82248 30.1838C6.82248 30.3503 6.75434 30.513 6.63698 30.6303C6.51962 30.7478 6.35684 30.8147 6.19153 30.8147Z" fill="#FFA626"/>
<path d="M8.77593 30.8147C8.60935 30.8147 8.4477 30.7478 8.33047 30.6303C8.21185 30.513 8.14497 30.3503 8.14497 30.1838C8.14497 30.0183 8.21173 29.8557 8.33047 29.7383C8.44657 29.6208 8.60935 29.5528 8.77593 29.5528C8.94237 29.5528 9.10516 29.6208 9.22251 29.7383C9.34 29.8558 9.40688 30.0184 9.40688 30.1838C9.40688 30.3503 9.34 30.513 9.22251 30.6303C9.10528 30.7478 8.9425 30.8147 8.77593 30.8147Z" fill="#FFA626"/>
<path d="M11.3615 30.8147C11.1951 30.8147 11.0323 30.7478 10.9148 30.6303C10.7975 30.513 10.7306 30.3503 10.7306 30.1838C10.7306 30.0183 10.7975 29.8557 10.9148 29.7383C11.0323 29.6208 11.1951 29.5528 11.3615 29.5528C11.527 29.5528 11.6898 29.6208 11.807 29.7383C11.9243 29.8558 11.9925 30.0184 11.9925 30.1838C11.9925 30.3503 11.9243 30.513 11.807 30.6303C11.6896 30.7478 11.5268 30.8147 11.3615 30.8147Z" fill="#FFA626"/>
<path d="M6.19153 33.9113C6.02496 33.9113 5.86217 33.8445 5.74482 33.7272C5.62746 33.6098 5.56058 33.4469 5.56058 33.2803C5.56058 33.1151 5.62746 32.9522 5.74482 32.835C5.86217 32.7176 6.02496 32.6508 6.19153 32.6508C6.35684 32.6508 6.51962 32.7176 6.63698 32.835C6.75434 32.9524 6.82248 33.1153 6.82248 33.2803C6.82248 33.4469 6.75434 33.6098 6.63698 33.7272C6.51962 33.8445 6.35684 33.9113 6.19153 33.9113Z" fill="#FFA626"/>
<path d="M8.77593 33.9112C8.60935 33.9112 8.4477 33.8445 8.33047 33.7271C8.21185 33.6098 8.14497 33.4468 8.14497 33.2817C8.14497 33.1152 8.21173 32.9523 8.33047 32.8349C8.44783 32.7176 8.60935 32.6493 8.77593 32.6493C8.94237 32.6493 9.10516 32.7176 9.22251 32.8349C9.34 32.9523 9.40688 33.1152 9.40688 33.2817C9.40688 33.447 9.34 33.6099 9.22251 33.7271C9.10528 33.8445 8.9425 33.9112 8.77593 33.9112Z" fill="#FFA626"/>
<path d="M11.3615 33.9112C11.1951 33.9112 11.0323 33.8445 10.9148 33.7271C10.7975 33.6098 10.7306 33.4468 10.7306 33.2803C10.7306 33.1151 10.7975 32.9522 10.9148 32.8349C11.0323 32.7176 11.1951 32.6493 11.3615 32.6493C11.527 32.6493 11.6898 32.7176 11.807 32.8349C11.9243 32.9523 11.9925 33.1152 11.9925 33.2803C11.9925 33.4468 11.9243 33.6098 11.807 33.7271C11.6896 33.8445 11.5268 33.9112 11.3615 33.9112Z" fill="#FFA626"/>
<path d="M13.9459 30.8147C13.7794 30.8147 13.6166 30.7478 13.4992 30.6303C13.3819 30.513 13.315 30.3503 13.315 30.1838C13.315 30.0172 13.3819 29.8557 13.4992 29.7383C13.6166 29.6208 13.7794 29.5528 13.9459 29.5528C14.1124 29.5528 14.274 29.6208 14.3914 29.7383C14.5099 29.8544 14.5769 30.0172 14.5769 30.1838C14.5769 30.3503 14.51 30.513 14.3914 30.6303C14.2753 30.7478 14.1124 30.8147 13.9459 30.8147Z" fill="#FFA626"/>
<path d="M13.9459 33.9126C13.7794 33.9126 13.6177 33.8445 13.4992 33.7271C13.3819 33.6098 13.315 33.4468 13.315 33.2803C13.315 33.1151 13.3819 32.9522 13.4992 32.8349C13.6166 32.7176 13.7794 32.6493 13.9459 32.6493C14.1124 32.6493 14.2752 32.7176 14.3914 32.8349C14.5099 32.9523 14.5769 33.1152 14.5769 33.2803C14.5769 33.4468 14.51 33.6098 14.3914 33.7271C14.274 33.8445 14.1112 33.9126 13.9459 33.9126Z" fill="#FFA626"/>
<path d="M6.19153 37.0094C6.02496 37.0094 5.86217 36.9413 5.74482 36.8238C5.62746 36.7064 5.56058 36.5438 5.56058 36.3784C5.56058 36.2119 5.62746 36.0492 5.74482 35.9317C5.86217 35.8143 6.02496 35.7475 6.19153 35.7475C6.35684 35.7475 6.51962 35.8143 6.63698 35.9317C6.75434 36.0492 6.82248 36.2119 6.82248 36.3784C6.82248 36.5439 6.75434 36.7065 6.63698 36.8238C6.51962 36.9413 6.35684 37.0094 6.19153 37.0094Z" fill="#FFA626"/>
<path d="M8.77593 37.0094C8.61049 37.0094 8.4477 36.9413 8.33047 36.8238C8.21185 36.7064 8.14497 36.5438 8.14497 36.3784C8.14497 36.2119 8.21173 36.0492 8.33047 35.9317C8.44783 35.8143 8.60935 35.7475 8.77593 35.7475C8.94237 35.7475 9.10516 35.8143 9.22251 35.9317C9.34 36.0492 9.40688 36.2119 9.40688 36.3784C9.40688 36.5439 9.34 36.7065 9.22251 36.8238C9.10528 36.9413 8.9425 37.0094 8.77593 37.0094Z" fill="#FFA626"/>
<path d="M11.3615 37.0094C11.1951 37.0094 11.0323 36.9413 10.9148 36.8238C10.7975 36.7064 10.7306 36.5438 10.7306 36.3784C10.7306 36.2119 10.7975 36.0492 10.9148 35.9317C11.0323 35.8143 11.1951 35.7475 11.3615 35.7475C11.527 35.7475 11.6898 35.8143 11.807 35.9317C11.9243 36.0492 11.9925 36.2119 11.9925 36.3784C11.9925 36.5439 11.9243 36.7065 11.807 36.8238C11.6896 36.9413 11.5268 37.0094 11.3615 37.0094Z" fill="#FFA626"/>
<path d="M13.9459 37.0094C13.7794 37.0094 13.6166 36.9413 13.4992 36.8238C13.3819 36.7064 13.315 36.5438 13.315 36.3784C13.315 36.2119 13.3819 36.0492 13.4992 35.9317C13.6166 35.8143 13.7794 35.7475 13.9459 35.7475C14.1124 35.7475 14.274 35.8143 14.3914 35.9317C14.5099 36.0492 14.5769 36.2119 14.5769 36.3784C14.5769 36.5439 14.51 36.7065 14.3914 36.8238C14.2753 36.9413 14.1124 37.0094 13.9459 37.0094Z" fill="#FFA626"/>
<path d="M24.9289 30.4672C25.4893 29.9068 25.7981 29.1616 25.7981 28.369C25.7981 27.5764 25.4894 26.8313 24.9289 26.2709C23.7719 25.1142 21.8893 25.114 20.7326 26.2709L18.7963 28.207V16.9097C18.7963 15.4456 17.6052 14.2545 16.1409 14.2545C15.6297 14.2545 15.1534 14.4023 14.7479 14.6537V13.3508C14.7479 11.8868 13.5569 10.6956 12.0927 10.6956C10.9399 10.6956 9.95944 11.4352 9.59311 12.4636C9.15649 12.1484 8.62245 11.9605 8.04399 11.9605C6.57993 11.9605 5.38882 13.1515 5.38882 14.6156V16.7696C4.98312 16.5181 4.50688 16.3704 3.99556 16.3704C2.53175 16.3704 1.34064 17.5615 1.34064 19.0255V42.3646L0.462351 49.2895C0.439511 49.4692 0.495161 49.65 0.614915 49.7861C0.73467 49.922 0.907046 49.9998 1.08826 49.9998H19.0487C19.2299 49.9998 19.4023 49.922 19.522 49.7861C19.6418 49.6502 19.6974 49.4692 19.6746 49.2895L18.7963 42.3646V36.5998L24.9289 30.4672ZM10.6995 13.3508C10.6995 12.5825 11.3246 11.9575 12.0928 11.9575C12.8611 11.9575 13.4861 12.5825 13.4861 13.3508V25.7704H10.6995V13.3508ZM6.65085 14.6156C6.65085 13.8473 7.27587 13.2224 8.04412 13.2224C8.81249 13.2224 9.43764 13.8473 9.43764 14.6156V25.7703H6.65085V14.6156ZM2.60267 19.0257C2.60267 18.2574 3.22756 17.6324 3.99568 17.6324C4.76393 17.6324 5.38895 18.2574 5.38895 19.0257V25.7704H4.62689C4.27835 25.7704 3.99593 26.0528 3.99593 26.4014C3.99593 26.7498 4.27835 27.0323 4.62689 27.0323H15.5103C15.8588 27.0323 16.1413 26.7498 16.1413 26.4014C16.1413 26.0528 15.8588 25.7704 15.5103 25.7704H14.748V16.9097C14.748 16.1415 15.3729 15.5164 16.141 15.5164C16.9094 15.5164 17.5345 16.1415 17.5345 16.9097V29.7303C17.5345 30.0787 17.8169 30.3612 18.1655 30.3612C18.3397 30.3612 18.4975 30.2905 18.6116 30.1765L21.6249 27.1632C22.2899 26.4984 23.3718 26.4984 24.0367 27.1634C24.3589 27.4855 24.5362 27.9136 24.5362 28.3692C24.5362 28.8247 24.3589 29.253 24.0367 29.575L17.7198 35.8923C17.6053 36.0065 17.5345 36.1643 17.5345 36.3387V41.7737H2.60267V19.0257ZM2.52758 43.0355H17.6096L18.0313 46.3604H2.10585L2.52758 43.0355ZM1.80426 48.738L1.94572 47.6223H18.1912L18.3327 48.738H1.80426Z" fill="#FFA626"/>
<path d="M39.8084 20.1193C39.9749 20.1193 40.1378 20.0524 40.2552 19.9349C40.3726 19.8175 40.4393 19.6549 40.4393 19.4883C40.4393 19.3217 40.3726 19.1602 40.2552 19.0429C40.1378 18.9254 39.9749 18.8574 39.8084 18.8574C39.6432 18.8574 39.4803 18.9254 39.363 19.0429C39.2457 19.1603 39.1774 19.3217 39.1774 19.4883C39.1774 19.6549 39.2457 19.8175 39.363 19.9349C39.4804 20.0523 39.6433 20.1193 39.8084 20.1193Z" fill="#FFA626"/>
<path d="M37.224 20.1193C37.3906 20.1193 37.5523 20.0524 37.6696 19.9349C37.7881 19.8175 37.8549 19.6549 37.8549 19.4883C37.8549 19.3229 37.7882 19.1602 37.6696 19.0429C37.5535 18.9254 37.3906 18.8574 37.224 18.8574C37.0577 18.8574 36.8948 18.9254 36.7774 19.0429C36.66 19.1603 36.593 19.323 36.593 19.4883C36.593 19.6549 36.66 19.8175 36.7774 19.9349C36.8948 20.0523 37.0577 20.1193 37.224 20.1193Z" fill="#FFA626"/>
<path d="M34.6386 20.1193C34.8049 20.1193 34.9678 20.0524 35.0852 19.9349C35.2025 19.8175 35.2695 19.6549 35.2695 19.4883C35.2695 19.3229 35.2025 19.1602 35.0852 19.0429C34.9678 18.9254 34.8049 18.8574 34.6386 18.8574C34.4732 18.8574 34.3102 18.9254 34.193 19.0429C34.0757 19.1603 34.0076 19.323 34.0076 19.4883C34.0076 19.6549 34.0757 19.8175 34.193 19.9349C34.3102 20.0523 34.4732 20.1193 34.6386 20.1193Z" fill="#FFA626"/>
<path d="M39.8084 23.2158C39.9749 23.2158 40.1378 23.149 40.2552 23.0317C40.3726 22.9143 40.4393 22.7514 40.4393 22.5848C40.4393 22.4196 40.3726 22.2567 40.2552 22.1395C40.1378 22.0221 39.9749 21.9553 39.8084 21.9553C39.6432 21.9553 39.4803 22.0221 39.363 22.1395C39.2457 22.2569 39.1774 22.4198 39.1774 22.5848C39.1774 22.7514 39.2457 22.9143 39.363 23.0317C39.4804 23.1489 39.6433 23.2158 39.8084 23.2158Z" fill="#FFA626"/>
<path d="M37.224 23.2158C37.3906 23.2158 37.5523 23.149 37.6696 23.0317C37.7881 22.9143 37.8549 22.7514 37.8549 22.5862C37.8549 22.4198 37.7882 22.2569 37.6696 22.1395C37.5522 22.0222 37.3906 21.9539 37.224 21.9539C37.0577 21.9539 36.8948 22.0222 36.7774 22.1395C36.66 22.2569 36.593 22.4198 36.593 22.5862C36.593 22.7515 36.66 22.9144 36.7774 23.0317C36.8948 23.1489 37.0577 23.2158 37.224 23.2158Z" fill="#FFA626"/>
<path d="M34.6386 23.2158C34.8049 23.2158 34.9678 23.149 35.0852 23.0317C35.2025 22.9143 35.2695 22.7514 35.2695 22.5848C35.2695 22.4197 35.2025 22.2567 35.0852 22.1395C34.9678 22.0222 34.8049 21.9539 34.6386 21.9539C34.4732 21.9539 34.3102 22.0222 34.193 22.1395C34.0757 22.2569 34.0076 22.4198 34.0076 22.5848C34.0076 22.7514 34.0757 22.9143 34.193 23.0317C34.3102 23.1489 34.4732 23.2158 34.6386 23.2158Z" fill="#FFA626"/>
<path d="M32.0541 20.1193C32.2207 20.1193 32.3833 20.0524 32.5007 19.9349C32.618 19.8175 32.685 19.6549 32.685 19.4883C32.685 19.3217 32.618 19.1602 32.5007 19.0429C32.3833 18.9254 32.2207 18.8574 32.0541 18.8574C31.8875 18.8574 31.726 18.9254 31.6085 19.0429C31.49 19.159 31.4231 19.3217 31.4231 19.4883C31.4231 19.6549 31.4899 19.8175 31.6085 19.9349C31.7249 20.0523 31.8875 20.1193 32.0541 20.1193Z" fill="#FFA626"/>
<path d="M32.0541 23.2171C32.2207 23.2171 32.3822 23.149 32.5007 23.0316C32.618 22.9143 32.685 22.7514 32.685 22.5848C32.685 22.4196 32.618 22.2567 32.5007 22.1395C32.3833 22.0223 32.2207 21.9539 32.0541 21.9539C31.8875 21.9539 31.7249 22.0221 31.6085 22.1395C31.49 22.2568 31.4231 22.4198 31.4231 22.5848C31.4231 22.7514 31.4899 22.9143 31.6085 23.0316C31.7261 23.149 31.8888 23.2171 32.0541 23.2171Z" fill="#FFA626"/>
<path d="M39.8084 26.3138C39.9749 26.3138 40.1378 26.2457 40.2552 26.1282C40.3726 26.0108 40.4393 25.8482 40.4393 25.6829C40.4393 25.5163 40.3726 25.3536 40.2552 25.2361C40.1378 25.1187 39.9749 25.0519 39.8084 25.0519C39.6432 25.0519 39.4803 25.1187 39.363 25.2361C39.2457 25.3536 39.1774 25.5163 39.1774 25.6829C39.1774 25.8483 39.2457 26.0109 39.363 26.1282C39.4804 26.2457 39.6433 26.3138 39.8084 26.3138Z" fill="#FFA626"/>
<path d="M37.224 26.3138C37.3894 26.3138 37.5523 26.2457 37.6696 26.1282C37.7881 26.0108 37.8549 25.8482 37.8549 25.6829C37.8549 25.5163 37.7882 25.3536 37.6696 25.2361C37.5522 25.1187 37.3906 25.0519 37.224 25.0519C37.0577 25.0519 36.8948 25.1187 36.7774 25.2361C36.66 25.3536 36.593 25.5163 36.593 25.6829C36.593 25.8483 36.66 26.0109 36.7774 26.1282C36.8948 26.2457 37.0577 26.3138 37.224 26.3138Z" fill="#FFA626"/>
<path d="M34.6386 26.3138C34.8049 26.3138 34.9678 26.2457 35.0852 26.1282C35.2025 26.0108 35.2695 25.8482 35.2695 25.6829C35.2695 25.5163 35.2025 25.3536 35.0852 25.2361C34.9678 25.1187 34.8049 25.0519 34.6386 25.0519C34.4732 25.0519 34.3102 25.1187 34.193 25.2361C34.0757 25.3536 34.0076 25.5163 34.0076 25.6829C34.0076 25.8483 34.0757 26.0109 34.193 26.1282C34.3102 26.2457 34.4732 26.3138 34.6386 26.3138Z" fill="#FFA626"/>
<path d="M32.0541 26.3138C32.2207 26.3138 32.3833 26.2457 32.5007 26.1282C32.618 26.0108 32.685 25.8482 32.685 25.6829C32.685 25.5163 32.618 25.3536 32.5007 25.2361C32.3833 25.1187 32.2207 25.0519 32.0541 25.0519C31.8875 25.0519 31.726 25.1187 31.6085 25.2361C31.49 25.3536 31.4231 25.5163 31.4231 25.6829C31.4231 25.8483 31.4899 26.0109 31.6085 26.1282C31.7249 26.2457 31.8875 26.3138 32.0541 26.3138Z" fill="#FFA626"/>
<path d="M27.2037 25.9043V31.6691L26.3253 38.594C26.3026 38.7737 26.3581 38.9546 26.4779 39.0906C26.5976 39.2265 26.7701 39.3044 26.9513 39.3044H44.9117C45.0929 39.3044 45.2652 39.2265 45.3849 39.0906C45.5047 38.9547 45.5605 38.7737 45.5375 38.594L44.6594 31.6691V8.33007C44.6594 6.86601 43.4682 5.6749 42.0044 5.6749C41.493 5.6749 41.0167 5.82267 40.6112 6.07417V3.9201C40.6112 2.45604 39.4201 1.26506 37.956 1.26506C37.3775 1.26506 36.8434 1.45296 36.4068 1.76818C36.0404 0.739601 35.0599 0 33.9073 0C32.4431 0 31.2521 1.19111 31.2521 2.65517V3.95808C30.8464 3.70671 30.3703 3.55894 29.8591 3.55894C28.3949 3.55894 27.2037 4.75018 27.2037 6.21411V17.5114L25.2675 15.5753C24.1105 14.4184 22.228 14.4186 21.0711 15.5753C20.5107 16.1357 20.2018 16.8809 20.2018 17.6735C20.2018 18.4661 20.5106 19.2112 21.0711 19.7716L27.2037 25.9043ZM35.3006 15.0748H32.514V2.65517C32.514 1.88692 33.1391 1.2619 33.9073 1.2619C34.6756 1.2619 35.3006 1.88692 35.3006 2.65517V15.0748ZM39.3493 15.0748H36.5625V3.9201C36.5625 3.15185 37.1875 2.52696 37.956 2.52696C38.7242 2.52696 39.3493 3.15185 39.3493 3.9201V15.0748ZM43.3974 31.078H28.4656V25.643C28.4656 25.4686 28.3948 25.3107 28.2802 25.1965L21.9633 18.8793C21.6411 18.5573 21.4637 18.129 21.4637 17.6735C21.4637 17.218 21.6411 16.7897 21.9633 16.4677C22.6283 15.8027 23.7103 15.8027 24.3752 16.4675L27.3885 19.4808C27.5025 19.5948 27.6603 19.6655 27.8345 19.6655C28.1831 19.6655 28.4655 19.383 28.4655 19.0345V6.21411C28.4655 5.44587 29.0905 4.82085 29.859 4.82085C30.627 4.82085 31.252 5.44587 31.252 6.21411V15.0748H30.4897C30.1412 15.0748 29.8588 15.3572 29.8588 15.7058C29.8588 16.0542 30.1412 16.3367 30.4897 16.3367H41.3731C41.7216 16.3367 42.0041 16.0542 42.0041 15.7058C42.0041 15.3572 41.7216 15.0748 41.3731 15.0748H40.611V8.33007C40.611 7.56183 41.2361 6.93681 42.0043 6.93681C42.7723 6.93681 43.3973 7.56183 43.3973 8.33007V31.078H43.3974ZM43.894 35.6648H27.9687L28.3904 32.3399H43.4724L43.894 35.6648ZM27.6673 38.0425L27.8088 36.9267H44.0541L44.1957 38.0425H27.6673Z" fill="#FFA626"/>
</svg>
