<svg width="50" height="50" viewBox="0 0 50 50" fill="none" xmlns="http://www.w3.org/2000/svg">
<g clip-path="url(#clip0)">
<path d="M43.2678 33.9517C39.5557 33.9517 36.5355 36.9717 36.5355 40.6838C36.5355 41.0868 36.5732 41.4811 36.6414 41.8648H22.3581C21.9528 41.8648 21.6242 42.1935 21.6242 42.5987C21.6242 43.004 21.9528 43.3326 22.3581 43.3326H37.0794C38.1102 45.7315 40.4956 47.4161 43.2678 47.4161C46.9799 47.4161 50 44.3961 50 40.6839C50 36.9718 46.98 33.9517 43.2678 33.9517ZM43.2678 45.9482C40.3649 45.9482 38.0033 43.5866 38.0033 40.6838C38.0033 37.781 40.3649 35.4194 43.2678 35.4194C46.1706 35.4194 48.5322 37.7811 48.5322 40.6839C48.5322 43.5867 46.1706 45.9482 43.2678 45.9482Z" fill="#008E00"/>
<path d="M42.099 31.9822L34.2409 28.5781C34.1488 28.5382 34.0495 28.5177 33.9492 28.5177H19.0614V23.7303H27.2479V25.8725C27.2479 26.2777 27.5765 26.6063 27.9817 26.6063H33.9493C34.3547 26.6063 34.6832 26.2777 34.6832 25.8725V22.9964C34.6832 22.7823 34.5897 22.5789 34.4272 22.4395L28.891 17.6897C28.7579 17.5756 28.5885 17.5128 28.4131 17.5128H15.2861C14.8809 17.5128 14.5522 17.8414 14.5522 18.2467V22.9964C14.5522 23.4017 14.8809 23.7303 15.2861 23.7303H17.5937V28.617L17.4961 28.6365C16.4976 28.8359 15.5438 29.1681 14.6547 29.6141L9.83242 16.0131C9.83242 16.013 9.83232 16.0129 9.83232 16.0128L5.24453 3.07266C5.14072 2.77979 4.86357 2.58398 4.55283 2.58398H0.733887C0.328613 2.58398 0 2.9126 0 3.31787C0 3.72314 0.328613 4.05176 0.733887 4.05176H4.03438L8.3417 16.2004L3.30479 25.7555C3.25264 25.8545 3.22373 25.9641 3.22041 26.0759L2.89063 37.1815C2.88525 37.3611 2.946 37.5364 3.06133 37.6743L5.05645 40.0589C5.20156 40.2323 5.40986 40.3218 5.61963 40.3218C5.78574 40.3218 5.95283 40.2657 6.09014 40.1508C6.40098 39.8907 6.44209 39.4279 6.18203 39.117L4.36592 36.9465L4.68232 26.2896L9.00889 18.0823L13.366 30.3711C11.3997 31.7075 9.86875 33.6514 9.05459 35.9528C7.85108 37.1696 7.10635 38.8413 7.10635 40.6839C7.10635 44.396 10.1264 47.4161 13.8386 47.4161C17.5507 47.4161 20.5707 44.3961 20.5707 40.6839C20.5707 37.8665 18.8301 35.4491 16.3684 34.4469L15.1499 31.0102C15.9691 30.58 16.8542 30.2614 17.7842 30.0757L18.2354 29.9853H18.324C18.3253 29.9853 18.3266 29.9854 18.3278 29.9854H31.3794C31.3807 29.9854 31.3819 29.9853 31.3832 29.9853H33.7972L41.5156 33.3289C41.8876 33.49 42.3196 33.319 42.4807 32.9473C42.6418 32.5754 42.4708 32.1433 42.099 31.9822ZM13.8757 31.8085L14.6538 34.0029C14.3864 33.9704 14.1146 33.9519 13.8387 33.9519C12.9962 33.9519 12.1901 34.1088 11.4462 34.3927C12.0951 33.3887 12.9203 32.5137 13.8757 31.8085ZM19.1029 40.6838C19.1029 43.5867 16.7413 45.9482 13.8386 45.9482C10.9357 45.9482 8.57412 43.5866 8.57412 40.6838C8.57412 37.781 10.9357 35.4194 13.8386 35.4194C16.7414 35.4194 19.1029 37.7811 19.1029 40.6838ZM16.02 22.2624V18.9805H28.1414L33.2154 23.3336V25.1384H28.7155V22.9962C28.7155 22.5909 28.387 22.2623 27.9816 22.2623H16.02V22.2624Z" fill="#008E00"/>
<path d="M43.2677 37.7007C41.6227 37.7007 40.2845 39.039 40.2845 40.6839C40.2845 42.3289 41.6228 43.6672 43.2677 43.6672C43.4676 43.6672 43.6676 43.6473 43.8623 43.6078C44.2595 43.5273 44.5163 43.1401 44.4357 42.7429C44.3552 42.3457 43.9689 42.0888 43.5708 42.1694C43.4719 42.1895 43.3698 42.1997 43.2677 42.1997C42.432 42.1997 41.7522 41.5198 41.7522 40.6842C41.7522 39.8485 42.4321 39.1688 43.2677 39.1688C44.1032 39.1688 44.7831 39.8486 44.7831 40.6842C44.7831 41.0895 45.1117 41.4181 45.517 41.4181C45.9223 41.4181 46.2509 41.0895 46.2509 40.6842C46.251 39.039 44.9128 37.7007 43.2677 37.7007Z" fill="#008E00"/>
<path d="M13.8385 37.7007C12.1936 37.7007 10.8553 39.039 10.8553 40.6839C10.8553 42.3289 12.1935 43.6672 13.8385 43.6672C14.0385 43.6672 14.2385 43.6472 14.4331 43.6078C14.8303 43.5272 15.0871 43.1401 15.0065 42.7429C14.926 42.3457 14.5389 42.0886 14.1416 42.1694C14.0427 42.1895 13.9407 42.1997 13.8385 42.1997C13.0029 42.1997 12.323 41.5198 12.323 40.6842C12.323 39.8485 13.0029 39.1688 13.8385 39.1688C14.6742 39.1688 15.354 39.8486 15.354 40.6842C15.354 41.0895 15.6826 41.4181 16.0879 41.4181C16.4931 41.4181 16.8217 41.0895 16.8217 40.6842C16.8217 39.039 15.4835 37.7007 13.8385 37.7007Z" fill="#008E00"/>
<path d="M18.8464 20.0167C18.8131 19.9834 18.775 19.9522 18.7349 19.9257C18.6957 19.8993 18.6527 19.8768 18.6087 19.8583C18.5637 19.8407 18.5177 19.8259 18.4707 19.8162C18.3768 19.7976 18.2789 19.7976 18.184 19.8162C18.137 19.8259 18.091 19.8406 18.047 19.8583C18.0029 19.8768 17.9599 19.8994 17.9207 19.9257C17.8796 19.9522 17.8424 19.9834 17.8082 20.0167C17.7749 20.051 17.7446 20.0881 17.7172 20.1283C17.6907 20.1684 17.6683 20.2115 17.6497 20.2555C17.6321 20.2996 17.6174 20.3456 17.6086 20.3925C17.5988 20.4405 17.594 20.4884 17.594 20.5364C17.594 20.5843 17.5988 20.6323 17.6086 20.6792C17.6174 20.7262 17.632 20.7722 17.6497 20.8172C17.6683 20.8613 17.6908 20.9034 17.7172 20.9435C17.7446 20.9836 17.7749 21.0208 17.8082 21.055C17.8425 21.0893 17.8796 21.1196 17.9207 21.146C17.9599 21.1725 18.0029 21.195 18.047 21.2135C18.091 21.2321 18.137 21.2458 18.184 21.2556C18.2319 21.2654 18.2799 21.2703 18.3278 21.2703C18.3758 21.2702 18.4237 21.2654 18.4707 21.2556C18.5177 21.2458 18.5637 21.2322 18.6087 21.2135C18.6527 21.195 18.6958 21.1724 18.735 21.146C18.7751 21.1196 18.8133 21.0893 18.8465 21.055C18.8808 21.0208 18.911 20.9836 18.9375 20.9435C18.964 20.9034 18.9874 20.8613 19.005 20.8172C19.0235 20.7722 19.0383 20.7262 19.0471 20.6792C19.0569 20.6323 19.0617 20.5843 19.0617 20.5364C19.0616 20.3425 18.9834 20.1538 18.8464 20.0167Z" fill="#008E00"/>
<path d="M22.6272 20.3923C22.6175 20.3453 22.6028 20.2993 22.5852 20.2553C22.5666 20.2112 22.544 20.1681 22.5177 20.128C22.4902 20.0879 22.46 20.0507 22.4257 20.0165C22.2564 19.8463 22.003 19.768 21.7643 19.8159C21.7173 19.8257 21.6713 19.8393 21.6263 19.858C21.5822 19.8765 21.5392 19.8991 21.5001 19.9255C21.46 19.9519 21.4218 19.9832 21.3886 20.0165C21.3543 20.0508 21.324 20.0879 21.2976 20.128C21.2711 20.1681 21.2477 20.2112 21.2301 20.2553C21.2115 20.2993 21.1968 20.3453 21.188 20.3923C21.1782 20.4392 21.1733 20.4882 21.1733 20.5361C21.1733 20.7289 21.2517 20.9178 21.3886 21.0547C21.4219 21.0889 21.46 21.1192 21.5001 21.1457C21.5393 21.1722 21.5823 21.1946 21.6264 21.2132C21.6714 21.2317 21.7174 21.2455 21.7644 21.2553C21.8113 21.265 21.8593 21.2699 21.9072 21.2699C22.101 21.2699 22.2898 21.1916 22.4258 21.0547C22.5628 20.9177 22.641 20.7289 22.641 20.5361C22.6409 20.4882 22.636 20.4402 22.6272 20.3923Z" fill="#008E00"/>
<path d="M26.2054 20.3924C26.1966 20.3455 26.183 20.2995 26.1643 20.2554C26.1458 20.2114 26.1232 20.1683 26.0969 20.1283C26.0704 20.0881 26.0392 20.0509 26.0059 20.0167C25.9715 19.9834 25.9345 19.9522 25.8943 19.9257C25.8541 19.8993 25.8111 19.8768 25.767 19.8583C25.723 19.8397 25.677 19.8259 25.63 19.8162C25.5351 19.7976 25.4372 19.7976 25.3433 19.8162C25.2964 19.8259 25.2503 19.8396 25.2053 19.8583C25.1612 19.8768 25.1192 19.8994 25.0791 19.9257C25.039 19.9522 25.0018 19.9834 24.9676 20.0167C24.9333 20.051 24.903 20.0881 24.8766 20.1283C24.8501 20.1684 24.8277 20.2115 24.8091 20.2554C24.7905 20.2995 24.7768 20.3455 24.767 20.3924C24.7572 20.4404 24.7524 20.4883 24.7524 20.5363C24.7524 20.5842 24.7572 20.6322 24.767 20.6792C24.7768 20.726 24.7904 20.772 24.8091 20.8171C24.8277 20.8612 24.8502 20.9033 24.8766 20.9433C24.903 20.9834 24.9333 21.0207 24.9676 21.0548C25.0019 21.0891 25.039 21.1194 25.0791 21.1458C25.1193 21.1723 25.1612 21.1948 25.2053 21.2133C25.2503 21.2319 25.2964 21.2457 25.3433 21.2554C25.3903 21.2652 25.4382 21.2701 25.4862 21.2701C25.5341 21.2701 25.5821 21.2652 25.63 21.2554C25.677 21.2457 25.723 21.232 25.767 21.2133C25.8111 21.1948 25.8541 21.1722 25.8943 21.1458C25.9344 21.1194 25.9716 21.0891 26.0059 21.0548C26.0392 21.0206 26.0703 20.9834 26.0969 20.9433C26.1233 20.9032 26.1458 20.8611 26.1643 20.8171C26.1828 20.7721 26.1966 20.7261 26.2054 20.6792C26.2153 20.6322 26.22 20.5842 26.22 20.5363C26.22 20.4883 26.2152 20.4404 26.2054 20.3924Z" fill="#008E00"/>
<path d="M24.1853 24.3823H20.6801C20.2748 24.3823 19.9462 24.7109 19.9462 25.1162C19.9462 25.5215 20.2748 25.8501 20.6801 25.8501H24.1854C24.5907 25.8501 24.9193 25.5215 24.9193 25.1162C24.9191 24.7109 24.5906 24.3823 24.1853 24.3823Z" fill="#008E00"/>
<path d="M24.1853 26.3599H20.6801C20.2748 26.3599 19.9462 26.6885 19.9462 27.0938C19.9462 27.499 20.2748 27.8276 20.6801 27.8276H24.1854C24.5907 27.8276 24.9193 27.499 24.9193 27.0938C24.9191 26.6884 24.5906 26.3599 24.1853 26.3599Z" fill="#008E00"/>
</g>
<defs>
<clipPath id="clip0">
<rect width="50" height="50" fill="white"/>
</clipPath>
</defs>
</svg>
