<svg width="175" height="175" viewBox="0 0 175 175" fill="none" xmlns="http://www.w3.org/2000/svg">
<g clip-path="url(#clip0)">
<path d="M168.017 60.929C163.615 59.5004 158.962 61.1826 156.435 65.1096L155.277 66.8968C149.811 75.2728 141.4 88.2085 142.928 107.87H102.08C97.2578 107.87 93.3338 111.794 93.3338 116.616C93.3338 120.412 95.7769 123.619 99.1646 124.826V134.108C99.1646 143.435 102.258 149.726 102.287 149.77C107.188 162.018 97.806 169.379 97.4153 169.679C96.4505 170.402 96.0305 171.644 96.3599 172.805C96.6894 173.965 97.6953 174.805 98.8963 174.916C99.4472 174.968 100.057 174.994 100.71 174.994C106.64 174.994 116.129 172.618 118.896 163.207C119.672 160.566 119.643 157.584 118.806 154.091C116.243 143.368 116.861 138.275 117.689 137.03H144.779C145.604 138.275 146.228 143.368 143.663 154.091C142.872 157.394 142.834 160.438 143.555 163.137C146.077 172.607 155.683 175 161.726 175C162.388 175 163.006 174.971 163.566 174.922C164.767 174.811 165.779 173.974 166.108 172.814C166.438 171.654 166.018 170.409 165.053 169.686C164.954 169.613 155.237 162.138 160.079 149.998C160.21 149.735 163.301 143.444 163.301 134.118V122.456C163.301 122.439 163.292 122.421 163.289 122.404C163.283 122.065 163.213 121.736 163.091 121.415C163.059 121.333 163.018 121.261 162.977 121.185C162.922 121.071 162.884 120.949 162.811 120.841C162.7 120.677 152.123 104.179 171.091 80.5495C173.385 77.6926 174.711 74.5147 174.945 71.1096C175.201 66.4419 172.417 62.3546 168.017 60.929Z" fill="#D3D3D3"/>
<path d="M61.2612 169.093C49.2439 169.093 40.8536 159.502 40.8536 145.77C40.8536 144.161 39.5476 142.855 37.9382 142.855H35.0228V46.6464H49.5997V58.3079C49.5997 59.9174 50.9057 61.2233 52.5151 61.2233C54.1245 61.2233 55.4305 59.9174 55.4305 58.3079V46.6464H61.2612C62.1765 46.6464 63.0368 46.2178 63.5877 45.4861C64.1387 44.7543 64.3168 43.8096 64.0628 42.9292L52.4013 2.11356C52.0428 0.862993 50.8999 0 49.5997 0H14.6148C13.3147 0 12.1687 0.862993 11.8133 2.11356L0.151747 42.9292C-0.0991187 43.8096 0.0758724 44.7543 0.626821 45.4861C1.17777 46.2178 2.03803 46.6464 2.95331 46.6464H29.1921V142.855H26.2767C24.6673 142.855 23.3613 144.161 23.3613 145.77C23.3613 159.502 14.9706 169.093 2.95366 169.093C1.34422 169.093 0.0382767 170.399 0.0382767 172.009C0.0382767 173.618 1.34422 174.924 2.95366 174.924H61.2616C62.871 174.924 64.177 173.618 64.177 172.009C64.1766 170.399 62.8734 169.093 61.2612 169.093ZM40.8536 17.4923C40.8536 15.8828 42.1595 14.5769 43.769 14.5769C45.3784 14.5769 46.6843 15.8828 46.6843 17.4923V29.1538C46.6843 30.7632 45.3784 32.0692 43.769 32.0692C42.1595 32.0692 40.8536 30.7632 40.8536 29.1538C40.8536 29.1541 40.8536 17.4923 40.8536 17.4923ZM23.361 29.1541C23.361 30.7636 22.055 32.0695 20.4456 32.0695C18.8362 32.0695 17.5302 30.7636 17.5302 29.1541V17.4923C17.5302 15.8828 18.8362 14.5769 20.4456 14.5769C22.055 14.5769 23.361 15.8828 23.361 17.4923V29.1541ZM35.0228 29.1541C35.0228 30.7636 33.7169 32.0695 32.1075 32.0695C30.498 32.0695 29.1921 30.7636 29.1921 29.1541V17.4923C29.1921 15.8828 30.498 14.5769 32.1075 14.5769C33.7169 14.5769 35.0228 15.8828 35.0228 17.4923V29.1541Z" fill="#D3D3D3"/>
<path d="M96.2461 17.4923V34.9846H157.469V17.4923H96.2461ZM148.723 29.1542H104.992C103.383 29.1542 102.077 27.8482 102.077 26.2388C102.077 24.6294 103.383 23.3234 104.992 23.3234H148.723C150.333 23.3234 151.639 24.6294 151.639 26.2388C151.639 27.8479 150.333 29.1542 148.723 29.1542Z" fill="#D3D3D3"/>
<path d="M172.047 0H81.6693C80.0598 0 78.7539 1.30594 78.7539 2.91538V49.5618C78.7539 51.1712 80.0598 52.4772 81.6693 52.4772H172.047C173.656 52.4772 174.962 51.1712 174.962 49.5618V2.91538C174.962 1.30321 173.659 0 172.047 0ZM163.3 37.9003C163.3 39.5097 161.994 40.8157 160.385 40.8157H93.3308C91.7213 40.8157 90.4154 39.5097 90.4154 37.9003V14.5769C90.4154 12.9675 91.7213 11.6615 93.3308 11.6615H160.385C161.994 11.6615 163.3 12.9675 163.3 14.5769V37.9003Z" fill="#D3D3D3"/>
</g>
<defs>
<clipPath id="clip0">
<rect width="175" height="175" fill="white"/>
</clipPath>
</defs>
</svg>
