<svg width="50" height="50" viewBox="0 0 50 50" fill="none" xmlns="http://www.w3.org/2000/svg">
<path d="M32.7754 0C23.2778 0 15.5508 7.72687 15.5508 17.2246C15.5508 21.1326 16.8599 24.74 19.0613 27.6334L15.572 31.1227C15.5499 31.1449 15.5297 31.1682 15.5106 31.1922C15.2249 31.1327 14.9314 31.1014 14.6329 31.1014C13.4936 31.1014 12.4223 31.5452 11.6164 32.3511L1.24935 42.7182C0.443628 43.5237 0 44.5948 0 45.7342C0 46.8737 0.443628 47.9449 1.24924 48.7502C2.05518 49.5562 3.12645 49.9999 4.26576 49.9999C5.40506 49.9999 6.47634 49.5562 7.28227 48.7502L17.6493 38.3832C18.455 37.5778 18.8987 36.5066 18.8987 35.3671C18.8987 35.0685 18.8675 34.7749 18.808 34.4892C18.8319 34.4702 18.8551 34.45 18.8773 34.4279L22.3665 30.9387C25.26 33.1402 28.8674 34.4492 32.7754 34.4492C42.273 34.4492 50 26.7223 50 17.2246C50 7.72687 42.273 0 32.7754 0ZM6.1367 47.6049C5.63681 48.1048 4.97245 48.38 4.26576 48.38C3.55906 48.38 2.8947 48.1048 2.3947 47.6048C1.89503 47.1053 1.61987 46.441 1.61987 45.7342C1.61987 45.0274 1.89503 44.3632 2.39481 43.8636L11.7574 34.501L15.499 38.2426L6.1367 47.6049ZM16.6387 37.0915L12.91 33.3628C13.4041 32.9377 14.0178 32.7228 14.6329 32.7228C15.3104 32.7228 15.9882 32.9808 16.504 33.4967C17.0036 33.9961 17.2788 34.6604 17.2788 35.3672C17.2788 36.0072 17.0524 36.6119 16.6387 37.0915ZM18.1134 32.9011C17.9753 32.7072 17.8211 32.5228 17.6494 32.3512C17.4775 32.1794 17.2929 32.0251 17.0989 31.887L20.1055 28.8804C20.4294 29.2323 20.7679 29.5708 21.1198 29.8948L18.1134 32.9011ZM32.7754 32.8293C24.1709 32.8293 17.1707 25.8291 17.1707 17.2246C17.1707 8.62007 24.1709 1.61987 32.7754 1.61987C41.3799 1.61987 48.3801 8.62007 48.3801 17.2246C48.3801 25.8291 41.3799 32.8293 32.7754 32.8293Z" fill="#008E00"/>
<path d="M32.7754 3.45569C25.1832 3.45569 19.0066 9.63235 19.0066 17.2246C19.0066 24.8168 25.1832 30.9934 32.7754 30.9934C40.3677 30.9934 46.5443 24.8168 46.5443 17.2246C46.5443 9.63235 40.3677 3.45569 32.7754 3.45569ZM32.7754 29.3736C26.0765 29.3736 20.6264 23.9236 20.6264 17.2246C20.6264 10.5255 26.0765 5.07556 32.7754 5.07556C39.4743 5.07556 44.9244 10.5255 44.9244 17.2246C44.9244 23.9236 39.4743 29.3736 32.7754 29.3736Z" fill="#008E00"/>
<path d="M38.3995 8.57867C38.0248 8.3344 37.5231 8.44012 37.2788 8.81496C37.0345 9.18969 37.1403 9.69152 37.5151 9.93569C39.9907 11.5491 41.4686 14.2739 41.4686 17.2247C41.4686 19.2405 40.763 21.2052 39.4817 22.7566C39.1968 23.1014 39.2455 23.612 39.5904 23.8969C39.7414 24.0216 39.9241 24.0823 40.1058 24.0823C40.339 24.0823 40.5706 23.982 40.7307 23.7881C42.2511 21.9472 43.0885 19.6162 43.0885 17.2248C43.0886 13.7243 41.3357 10.4923 38.3995 8.57867Z" fill="#008E00"/>
<path d="M34.6496 7.08152C34.0354 6.96867 33.4048 6.91144 32.7754 6.91144C32.328 6.91144 31.9655 7.27407 31.9655 7.72137C31.9655 8.16867 32.328 8.53131 32.7754 8.53131C33.307 8.53131 33.839 8.57958 34.357 8.67472C34.4065 8.68379 34.4557 8.68822 34.5043 8.68822C34.8875 8.68822 35.2281 8.41489 35.2999 8.0245C35.3807 7.58455 35.0896 7.16241 34.6496 7.08152Z" fill="#008E00"/>
</svg>
