<svg width="60" height="60" viewBox="0 0 60 60" fill="none" xmlns="http://www.w3.org/2000/svg">
<circle cx="30" cy="30" r="30" fill="#FFA626"/>
<g clip-path="url(#clip0)">
<path d="M36.4286 33.8571H35.0571L34.5429 33.3429C36.2572 31.4571 37.2858 28.8857 37.2858 26.1429C37.2857 19.9714 32.3143 15 26.1429 15C19.9714 15 15 19.9714 15 26.1429C15 32.3143 19.9714 37.2857 26.1429 37.2857C28.8857 37.2857 31.4571 36.2571 33.3429 34.5429L33.8571 35.0571V36.4285L42.4286 45L45 42.4286L36.4286 33.8571ZM26.1429 33.8571C21.8571 33.8571 18.4286 30.4286 18.4286 26.1429C18.4286 21.8571 21.8571 18.4286 26.1429 18.4286C30.4286 18.4286 33.8571 21.8571 33.8571 26.1429C33.8571 30.4286 30.4286 33.8571 26.1429 33.8571Z" fill="white"/>
</g>
<defs>
<clipPath id="clip0">
<rect width="30" height="30" fill="white" transform="translate(15 15)"/>
</clipPath>
</defs>
</svg>
