<svg width="35" height="35" viewBox="0 0 35 35" fill="none" xmlns="http://www.w3.org/2000/svg">
<path d="M7 15.1667C9.72222 20.6111 14.3889 25.0833 19.8333 28L24.1111 23.7222C24.6944 23.139 25.4722 22.9445 26.0556 23.3333C28.1944 24.1111 30.5277 24.5 33.0556 24.5C34.2222 24.5 35 25.2778 35 26.4444V33.0556C35 34.2222 34.2222 35 33.0556 35C14.7778 35 0 20.2222 0 1.94444C0 0.777778 0.777778 0 1.94444 0H8.75C9.91667 0 10.6944 0.777778 10.6944 1.94444C10.6944 4.27778 11.0833 6.61111 11.8611 8.94444C12.0556 9.52778 11.8611 10.3056 11.4722 10.8889L7 15.1667Z" fill="#008E00"/>
</svg>