<svg width="25" height="25" viewBox="0 0 25 25" fill="none" xmlns="http://www.w3.org/2000/svg">
<path d="M5 10.8333C6.94444 14.7222 10.2778 17.9167 14.1667 20L17.2222 16.9444C17.6388 16.5278 18.1944 16.3889 18.6111 16.6667C20.1389 17.2222 21.8055 17.5 23.6111 17.5C24.4444 17.5 25 18.0556 25 18.8889V23.6111C25 24.4444 24.4444 25 23.6111 25C10.5556 25 0 14.4444 0 1.38889C0 0.555556 0.555556 0 1.38889 0H6.25C7.08333 0 7.63889 0.555556 7.63889 1.38889C7.63889 3.05556 7.91667 4.72222 8.47222 6.38889C8.61111 6.80556 8.47222 7.36111 8.19444 7.77778L5 10.8333Z" fill="white"/>
</svg>
