<svg width="14" height="14" viewBox="0 0 14 14" fill="none" xmlns="http://www.w3.org/2000/svg">
<path d="M2.8 6.06667C3.88889 8.24444 5.75556 10.0333 7.93333 11.2L9.64445 9.48889C9.87775 9.25559 10.1889 9.17781 10.4222 9.33333C11.2778 9.64444 12.2111 9.8 13.2222 9.8C13.6889 9.8 14 10.1111 14 10.5778V13.2222C14 13.6889 13.6889 14 13.2222 14C5.91111 14 0 8.08889 0 0.777778C0 0.311111 0.311111 0 0.777778 0H3.5C3.96667 0 4.27778 0.311111 4.27778 0.777778C4.27778 1.71111 4.43333 2.64444 4.74444 3.57778C4.82222 3.81111 4.74444 4.12222 4.58889 4.35556L2.8 6.06667Z" fill="#FFA626"/>
</svg>
