<svg width="175" height="175" viewBox="0 0 175 175" fill="none" xmlns="http://www.w3.org/2000/svg">
<g clip-path="url(#clip0)">
<path d="M112.651 83.858C112.684 83.8494 112.717 83.8402 112.75 83.8313C112.716 83.8402 112.682 83.8474 112.649 83.8559L112.651 83.858Z" fill="#D3D3D3"/>
<path d="M155.305 55.8201C164.575 46.5492 167.648 32.5971 163.134 20.2757C162.615 18.8596 161.5 17.744 160.084 17.2252C147.763 12.7111 133.81 15.7848 124.54 25.0554C124.022 25.5732 123.527 26.1078 123.048 26.654V5.14061C123.048 2.30917 120.752 0.0136719 117.921 0.0136719C115.089 0.0136719 112.794 2.30917 112.794 5.14061V46.1223C112.248 45.4873 111.677 44.8693 111.079 44.2715C101.808 35.001 87.8567 31.9272 75.5352 36.4413C74.1192 36.9601 73.0036 38.0758 72.4851 39.4918C67.971 51.8136 71.0444 65.7654 80.3153 75.0362C88.7891 83.51 101.173 86.7988 112.649 83.8559L92.2939 63.5009C90.2916 61.4987 90.2916 58.2527 92.2939 56.2504C94.2961 54.2482 97.5421 54.2482 99.5444 56.2504L112.793 69.4995V83.8194C112.779 83.8231 112.764 83.8272 112.75 83.831C112.765 83.8272 112.779 83.8242 112.794 83.8204V91.4465C103.425 92.757 95.1988 97.6823 89.5762 104.765H121.31V104.765C126.522 104.765 131.394 106.815 135.03 110.538C138.659 114.253 140.589 119.161 140.466 124.36C140.346 129.444 138.233 134.186 134.517 137.711C131.075 140.976 126.62 142.847 121.899 143.026C123.624 143.183 125.36 143.262 127.104 143.262H137.866L152.543 128.565C152.961 128.148 153.395 127.755 153.843 127.382C153.844 127.298 153.846 127.215 153.846 127.131C153.846 109.04 140.444 94.0216 123.048 91.4773V64.6634C134.502 67.5717 146.85 64.2744 155.305 55.8201ZM123.047 64.5626V50.0615L136.074 37.0346C138.076 35.0324 141.322 35.0324 143.325 37.0346C145.327 39.0369 145.327 42.2829 143.325 44.2852L123.047 64.5626Z" fill="#D3D3D3"/>
<path d="M172.39 135.793C168.912 132.313 163.273 132.337 159.794 135.816L142.117 153.516H127.104C111.072 153.516 95.556 147.852 83.2947 137.524L77.6705 132.786H121.15C126.004 132.786 130.101 128.97 130.215 124.118C130.334 119.099 126.302 115.018 121.311 115.018H45.5085C38.3704 115.018 31.3243 116.63 24.8958 119.733L6.26786 128.724C1.00864 131.263 -1.37881 137.447 0.8104 142.861L8.54012 161.979C10.7611 167.473 16.9097 170.248 22.4984 168.279L45.4927 160.179L56.6257 165.052C71.5947 171.604 87.7579 174.986 104.098 174.986H144.497C146.27 174.986 147.964 174.256 149.181 172.967L172.391 148.389C175.87 144.911 175.87 139.271 172.39 135.793Z" fill="#D3D3D3"/>
</g>
<defs>
<clipPath id="clip0">
<rect width="175" height="175" fill="white"/>
</clipPath>
</defs>
</svg>
