<svg width="50" height="50" viewBox="0 0 50 50" fill="none" xmlns="http://www.w3.org/2000/svg">
<path d="M32.3405 13.102C30.3887 13.102 28.8008 11.5142 28.8008 9.56246C28.8008 7.61072 30.3886 6.02283 32.3405 6.02283C34.2923 6.02283 35.8801 7.6106 35.8801 9.56246C35.8801 11.5143 34.2922 13.102 32.3405 13.102ZM32.3405 7.20685C31.0416 7.20685 29.9849 8.26359 29.9849 9.56246C29.9849 10.8613 31.0416 11.9179 32.3405 11.9179C33.6393 11.9179 34.6961 10.8612 34.6961 9.56246C34.6961 8.26371 33.6392 7.20685 32.3405 7.20685Z" fill="#FFA626"/>
<path d="M32.3405 5.17523C32.0135 5.17523 31.7485 4.91025 31.7485 4.58322V0.59201C31.7485 0.264984 32.0135 0 32.3405 0C32.6675 0 32.9325 0.264984 32.9325 0.59201V4.58322C32.9325 4.91025 32.6674 5.17523 32.3405 5.17523Z" fill="#FFA626"/>
<path d="M32.3405 19.1247C32.0135 19.1247 31.7485 18.8597 31.7485 18.5327V14.5416C31.7485 14.2146 32.0135 13.9496 32.3405 13.9496C32.6675 13.9496 32.9325 14.2146 32.9325 14.5416V18.5327C32.9325 18.8597 32.6674 19.1247 32.3405 19.1247Z" fill="#FFA626"/>
<path d="M41.3108 10.1545H37.3197C36.9927 10.1545 36.7277 9.8895 36.7277 9.56247C36.7277 9.23544 36.9927 8.97046 37.3197 8.97046H41.3108C41.6379 8.97046 41.9028 9.23544 41.9028 9.56247C41.9028 9.88938 41.6379 10.1545 41.3108 10.1545Z" fill="#FFA626"/>
<path d="M27.3613 10.1545H23.37C23.0429 10.1545 22.778 9.8895 22.778 9.56247C22.778 9.23544 23.0429 8.97046 23.37 8.97046H27.3613C27.6883 8.97046 27.9533 9.23544 27.9533 9.56247C27.9533 9.88938 27.6883 10.1545 27.3613 10.1545Z" fill="#FFA626"/>
<path d="M35.8611 6.63358C35.7097 6.63358 35.558 6.5758 35.4426 6.46012C35.2114 6.229 35.2114 5.85414 35.4426 5.62302L36.9279 4.13766C37.1589 3.90642 37.534 3.90642 37.765 4.13766C37.9963 4.36878 37.9963 4.74364 37.765 4.97477L36.2797 6.46012C36.1641 6.5758 36.0126 6.63358 35.8611 6.63358Z" fill="#FFA626"/>
<path d="M28.8197 6.63356C28.6682 6.63356 28.5167 6.57578 28.4011 6.46022L26.9158 4.97522C26.6845 4.7441 26.6845 4.36924 26.9156 4.138C27.1469 3.90676 27.5216 3.90688 27.7529 4.13788L29.2382 5.62288C29.4694 5.854 29.4694 6.22886 29.2383 6.4601C29.1228 6.57578 28.9711 6.63356 28.8197 6.63356Z" fill="#FFA626"/>
<path d="M27.3343 15.1604C27.1829 15.1604 27.0312 15.1026 26.9157 14.987C26.6845 14.7558 26.6845 14.381 26.9157 14.1499L28.4011 12.6645C28.6321 12.4333 29.0072 12.4333 29.2382 12.6645C29.4694 12.8956 29.4694 13.2705 29.2382 13.5016L27.7528 14.987C27.6374 15.1026 27.4858 15.1604 27.3343 15.1604Z" fill="#FFA626"/>
<path d="M37.3465 15.1605C37.1951 15.1605 37.0435 15.1028 36.928 14.9872L35.4426 13.5021C35.2114 13.2708 35.2114 12.8961 35.4425 12.6649C35.6737 12.4336 36.0485 12.4337 36.2797 12.6647L37.7651 14.1499C37.9963 14.3811 37.9963 14.7558 37.7652 14.9871C37.6495 15.1028 37.498 15.1605 37.3465 15.1605Z" fill="#FFA626"/>
<path d="M39.173 49.1255C37.1039 45.3148 31.1593 42.7205 24.2671 42.5784C24.3056 41.9691 24.6851 38.648 28.3996 34.8821C29.1387 35.43 30.0368 35.7006 30.9675 35.7006C32.3066 35.7005 33.7123 35.1417 34.8049 34.049C37.1552 31.6988 39.0872 27.4557 38.1104 24.6985C38.0485 24.5237 37.9115 24.3985 37.7492 24.3409L37.7501 24.3384C34.993 23.3615 30.7498 25.2935 28.3997 27.6439C26.5495 29.4941 26.2315 32.2402 27.5634 34.0437C25.7548 35.8733 24.6757 37.6176 24.0317 39.0538C23.1529 33.0715 19.9923 29.0265 18.8921 27.7746C20.2415 25.9717 19.9285 23.2117 18.0711 21.354C15.7209 19.0041 11.4775 17.0724 8.7209 18.0486L8.72185 18.0511C8.5594 18.1086 8.42253 18.2337 8.36048 18.4088C7.38367 21.166 9.31563 25.4092 11.6659 27.7592C12.6295 28.7228 13.862 29.3313 15.1413 29.4009C16.2599 29.4617 17.3305 29.137 18.0467 28.6123C23.5201 35.6814 23.0839 42.5196 23.0813 42.5783C16.1864 42.7186 10.2385 45.3135 8.16879 49.1254C8.0691 49.3088 8.07348 49.5311 8.18028 49.7105C8.28696 49.8899 8.48031 49.9998 8.68905 49.9998H38.6525C38.8612 49.9998 39.0546 49.8898 39.1612 49.7105C39.268 49.5312 39.2724 49.3089 39.173 49.1255ZM29.2369 28.481C31.2147 26.5032 34.8291 24.8134 37.0762 25.3726C37.6353 27.6194 35.9456 31.2341 33.9678 33.2119C32.5865 34.5929 30.5939 34.9027 29.2528 34.0334L32.759 30.5272C32.9902 30.2961 32.9902 29.9213 32.759 29.6901C32.528 29.4589 32.1529 29.4589 31.9219 29.6901L28.4157 33.1964C27.546 31.8552 27.8557 29.8624 29.2369 28.481ZM18.0554 26.9065L14.5494 23.4004C14.3184 23.1691 13.9433 23.1691 13.7123 23.4004C13.481 23.6315 13.481 24.0064 13.7123 24.2375L17.2185 27.744C16.6585 28.1077 15.9715 28.2757 15.2292 28.2203C14.2344 28.1462 13.2662 27.6851 12.5031 26.9221C10.5253 24.9443 8.83575 21.3298 9.39485 19.0829C11.6415 18.5245 15.2561 20.2136 17.2339 22.1913C18.6152 23.5729 18.9248 25.5657 18.0554 26.9065ZM9.78451 48.816C12.131 45.7955 17.6206 43.7557 23.6708 43.7557C29.721 43.7557 35.2108 45.7957 37.5572 48.816H9.78451Z" fill="#FFA626"/>
<path d="M23.6703 45.8187C23.5153 45.8187 23.3624 45.7559 23.2524 45.6458C23.1422 45.5356 23.0782 45.3828 23.0782 45.2267C23.0782 45.0704 23.1422 44.9187 23.2524 44.8075C23.3625 44.6973 23.5153 44.6346 23.6703 44.6346C23.8265 44.6346 23.9793 44.6973 24.0894 44.8075C24.1996 44.9188 24.2623 45.0704 24.2623 45.2267C24.2623 45.3828 24.1996 45.5345 24.0894 45.6458C23.9793 45.7558 23.8265 45.8187 23.6703 45.8187Z" fill="#FFA626"/>
<path d="M23.6703 48.0742C23.5153 48.0742 23.3624 48.0114 23.2524 47.9013C23.1422 47.7912 23.0782 47.6384 23.0782 47.4821C23.0782 47.3259 23.1422 47.1743 23.2524 47.063C23.3625 46.9529 23.5153 46.8901 23.6703 46.8901C23.8265 46.8901 23.9793 46.9529 24.0894 47.063C24.1996 47.1744 24.2623 47.327 24.2623 47.4821C24.2623 47.6384 24.1996 47.7912 24.0894 47.9013C23.9793 48.0114 23.8265 48.0742 23.6703 48.0742Z" fill="#FFA626"/>
<path d="M19.1342 46.9456C18.978 46.9456 18.8252 46.8829 18.7151 46.7728C18.605 46.6626 18.5422 46.5099 18.5422 46.3536C18.5422 46.1985 18.605 46.0458 18.7151 45.9356C18.8252 45.8255 18.978 45.7616 19.1342 45.7616C19.2905 45.7616 19.4421 45.8255 19.5534 45.9356C19.6635 46.0459 19.7263 46.1986 19.7263 46.3536C19.7263 46.5099 19.6635 46.6626 19.5534 46.7728C19.4421 46.8829 19.2907 46.9456 19.1342 46.9456Z" fill="#FFA626"/>
<path d="M28.2074 46.9456C28.0511 46.9456 27.8983 46.8829 27.7882 46.7728C27.6781 46.6626 27.6154 46.5099 27.6154 46.3536C27.6154 46.1985 27.6781 46.0458 27.7882 45.9356C27.8983 45.8255 28.0511 45.7616 28.2074 45.7616C28.3637 45.7616 28.5164 45.8255 28.6253 45.9356C28.7365 46.0459 28.7994 46.1986 28.7994 46.3536C28.7994 46.5099 28.7366 46.6626 28.6253 46.7728C28.5165 46.8829 28.3638 46.9456 28.2074 46.9456Z" fill="#FFA626"/>
</svg>
