<svg width="50" height="50" viewBox="0 0 50 50" fill="none" xmlns="http://www.w3.org/2000/svg">
<g clip-path="url(#clip0)">
<path d="M25.027 4.08911C24.6216 4.08911 24.2931 4.41763 24.2931 4.823V4.93101C24.2931 5.33638 24.6217 5.66499 25.027 5.66499C25.4323 5.66499 25.7609 5.33647 25.7609 4.9311V4.823C25.7609 4.41763 25.4322 4.08911 25.027 4.08911Z" fill="#008E00"/>
<path d="M25.027 0.744873C24.6216 0.744873 24.2931 1.07339 24.2931 1.47876V1.58696C24.2931 1.99233 24.6217 2.32085 25.027 2.32085C25.4323 2.32085 25.7609 1.99233 25.7609 1.58696V1.47876C25.7609 1.07339 25.4322 0.744873 25.027 0.744873Z" fill="#008E00"/>
<path d="M39.3963 4.62403C39.0451 4.42159 38.5963 4.5419 38.394 4.89317L38.34 4.98682C38.1376 5.33799 38.258 5.78672 38.6092 5.98907C38.7247 6.05567 38.8507 6.08731 38.975 6.08731C39.2287 6.08731 39.4756 5.95548 39.6114 5.71993L39.6654 5.62628C39.868 5.2751 39.7474 4.82637 39.3963 4.62403Z" fill="#008E00"/>
<path d="M47.0054 16.8408C46.8027 16.4898 46.354 16.3696 46.0029 16.5721L45.9094 16.6261C45.5584 16.8286 45.4381 17.2774 45.6406 17.6285C45.7767 17.864 46.0232 17.9956 46.277 17.9956C46.4013 17.9956 46.5275 17.9639 46.6431 17.8973L46.7366 17.8432C47.0876 17.6407 47.2079 17.1919 47.0054 16.8408Z" fill="#008E00"/>
<path d="M49.9015 15.1685C49.6989 14.8176 49.2502 14.6975 48.899 14.9L48.8054 14.9542C48.4544 15.1569 48.3343 15.6057 48.537 15.9567C48.673 16.192 48.9195 16.3236 49.1732 16.3236C49.2978 16.3236 49.4239 16.2918 49.5395 16.2251L49.6331 16.1709C49.9841 15.9682 50.1042 15.5195 49.9015 15.1685Z" fill="#008E00"/>
<path d="M6.9869 18.2049L6.89325 18.1507C6.54237 17.9484 6.09344 18.0681 5.8908 18.4191C5.68807 18.7701 5.80819 19.2189 6.15916 19.4216L6.25282 19.4758C6.36844 19.5425 6.49461 19.5742 6.61913 19.5742C6.87264 19.5742 7.11932 19.4426 7.25526 19.2073C7.45819 18.8563 7.33788 18.4075 6.9869 18.2049Z" fill="#008E00"/>
<path d="M4.09101 16.5328L3.99745 16.4787C3.64657 16.276 3.19765 16.3958 2.99482 16.7467C2.79198 17.0976 2.91191 17.5465 3.26278 17.7493L3.35634 17.8034C3.47206 17.8703 3.59833 17.9021 3.72294 17.9021C3.97636 17.9021 4.22294 17.7705 4.35898 17.5355C4.56191 17.1846 4.44198 16.7357 4.09101 16.5328Z" fill="#008E00"/>
<path d="M1.19414 14.8603L1.10048 14.8063C0.749312 14.6038 0.300484 14.7242 0.0982381 15.0754C-0.104203 15.4266 0.0163045 15.8753 0.367379 16.0777L0.461031 16.1317C0.576558 16.1983 0.702535 16.2299 0.826851 16.2299C1.08056 16.2299 1.32744 16.0981 1.46328 15.8625C1.66572 15.5115 1.54521 15.0627 1.19414 14.8603Z" fill="#008E00"/>
<path d="M11.6993 4.93225L11.6451 4.8386C11.4425 4.48772 10.9937 4.36741 10.6427 4.57024C10.2917 4.77288 10.1716 5.2217 10.3742 5.57268L10.4284 5.66633C10.5643 5.90168 10.8109 6.03323 11.0645 6.03323C11.1889 6.03323 11.3153 6.00149 11.4308 5.93469C11.7818 5.73206 11.9019 5.28323 11.6993 4.93225Z" fill="#008E00"/>
<path d="M41.0795 47.7876H28.9023V43.661C28.9023 43.2556 28.5737 42.9271 28.1684 42.9271C27.763 42.9271 27.4345 43.2556 27.4345 43.661V47.7876H22.5114V41.4466H31.0997C31.505 41.4466 31.8336 41.1181 31.8336 40.7127V37.2289C31.8336 36.8236 31.505 36.495 31.0997 36.495H27.5088V33.5178H31.0997C31.505 33.5178 31.8336 33.1893 31.8336 32.7839V30.9349H37.4667C37.8721 30.9349 38.2006 30.6064 38.2006 30.201C38.2006 29.7956 37.8721 29.4671 37.4667 29.4671H31.823C31.6282 25.8572 28.6306 22.9801 24.973 22.9801C23.9192 22.9801 22.908 23.2129 21.9672 23.672C21.603 23.8498 21.4519 24.2892 21.6296 24.6534C21.8073 25.0175 22.2464 25.1688 22.6111 24.991C23.3495 24.6306 24.1442 24.4478 24.973 24.4478C27.9466 24.4478 30.3658 26.867 30.3658 29.8406V32.05H26.7749H23.171H19.5801V30.2047C19.5801 30.2034 19.5803 30.2022 19.5803 30.2009C19.5803 30.1996 19.5801 30.1984 19.5801 30.1971V29.8406C19.5801 28.6941 19.9349 27.5995 20.6063 26.6752C20.8446 26.3472 20.7716 25.8884 20.4438 25.6502C20.1157 25.4119 19.657 25.4848 19.4188 25.8127C18.6374 26.8884 18.1942 28.145 18.1236 29.467H12.4795C12.0742 29.467 11.7456 29.7955 11.7456 30.2009C11.7456 30.6063 12.0742 30.9348 12.4795 30.9348H18.1123V32.7838C18.1123 33.1892 18.4408 33.5177 18.8462 33.5177H22.4371V36.4949H18.8462C18.4408 36.4949 18.1123 36.8235 18.1123 37.2288V40.7126C18.1123 41.118 18.4408 41.4465 18.8462 41.4465H21.0437V47.7875H8.86642C8.46105 47.7875 8.13254 48.116 8.13254 48.5214C8.13254 48.9268 8.46105 49.2553 8.86642 49.2553H21.7776H28.1684H41.0795C41.4849 49.2553 41.8134 48.9268 41.8134 48.5214C41.8133 48.1161 41.4849 47.7876 41.0795 47.7876ZM23.9049 33.5179H26.0411V36.4951H23.9049V33.5179ZM19.5801 39.9789V37.9629H23.171H26.7749H30.3658V39.9789H19.5801Z" fill="#008E00"/>
<path d="M25.027 17.4661C24.6216 17.4661 24.2931 17.7947 24.2931 18.2V18.3081C24.2931 18.7133 24.6217 19.0419 25.027 19.0419C25.4323 19.0419 25.7609 18.7134 25.7609 18.3081V18.2C25.7609 17.7947 25.4322 17.4661 25.027 17.4661Z" fill="#008E00"/>
<path d="M25.027 14.1218C24.6216 14.1218 24.2931 14.4503 24.2931 14.8557V14.9638C24.2931 15.3691 24.6217 15.6977 25.027 15.6977C25.4323 15.6977 25.7609 15.3692 25.7609 14.9638V14.8557C25.7609 14.4503 25.4322 14.1218 25.027 14.1218Z" fill="#008E00"/>
<path d="M25.027 10.7777C24.6216 10.7777 24.2931 11.1062 24.2931 11.5116V11.6196C24.2931 12.025 24.6217 12.3535 25.027 12.3535C25.4323 12.3535 25.7609 12.025 25.7609 11.6196V11.5116C25.7609 11.1061 25.4322 10.7777 25.027 10.7777Z" fill="#008E00"/>
<path d="M25.027 7.43335C24.6216 7.43335 24.2931 7.76187 24.2931 8.16724V8.27534C24.2931 8.68071 24.6217 9.00923 25.027 9.00923C25.4323 9.00923 25.7609 8.68071 25.7609 8.27534V8.16724C25.7609 7.76177 25.4322 7.43335 25.027 7.43335Z" fill="#008E00"/>
<path d="M31.0362 19.1053C30.6855 18.9027 30.2364 19.0227 30.0338 19.3737L29.9796 19.4673C29.7769 19.8183 29.8971 20.2672 30.248 20.4698C30.3637 20.5366 30.4898 20.5683 30.6144 20.5683C30.8679 20.5683 31.1146 20.4367 31.2505 20.2014L31.3047 20.1078C31.5074 19.7568 31.3872 19.308 31.0362 19.1053Z" fill="#008E00"/>
<path d="M32.7079 16.2088C32.3566 16.0064 31.908 16.1268 31.7057 16.478L31.6517 16.5716C31.4491 16.9227 31.5697 17.3714 31.9208 17.5739C32.0363 17.6405 32.1623 17.6721 32.2866 17.6721C32.5403 17.6721 32.7872 17.5403 32.9231 17.3047L32.9771 17.2111C33.1795 16.8599 33.0591 16.4112 32.7079 16.2088Z" fill="#008E00"/>
<path d="M34.3805 13.3129C34.0297 13.1102 33.5807 13.2302 33.3781 13.5812L33.3239 13.6749C33.1212 14.0259 33.2414 14.4747 33.5924 14.6773C33.708 14.7441 33.8342 14.7759 33.9587 14.7759C34.2122 14.7759 34.4589 14.6442 34.5948 14.409L34.649 14.3153C34.8517 13.9643 34.7315 13.5155 34.3805 13.3129Z" fill="#008E00"/>
<path d="M36.0525 10.4167C35.7017 10.2139 35.2527 10.334 35.0501 10.685L34.9959 10.7787C34.7933 11.1297 34.9134 11.5785 35.2644 11.7811C35.38 11.8479 35.5062 11.8797 35.6307 11.8797C35.8842 11.8797 36.1309 11.748 36.2668 11.5128L36.321 11.4191C36.5237 11.0681 36.4035 10.6193 36.0525 10.4167Z" fill="#008E00"/>
<path d="M37.7247 7.52063C37.3739 7.318 36.9249 7.43792 36.7223 7.78899L36.6681 7.88265C36.4654 8.23362 36.5855 8.68245 36.9365 8.88509C37.0521 8.95189 37.1783 8.98362 37.3028 8.98362C37.5563 8.98362 37.803 8.85198 37.939 8.61673L37.9932 8.52308C38.1958 8.1721 38.0757 7.72327 37.7247 7.52063Z" fill="#008E00"/>
<path d="M35.4208 23.5297C35.2185 23.1785 34.7698 23.0582 34.4186 23.2606L34.3249 23.3146C33.9738 23.5169 33.8533 23.9656 34.0558 24.3168C34.1916 24.5525 34.4384 24.6842 34.6922 24.6842C34.8166 24.6842 34.9426 24.6525 35.058 24.5859L35.1517 24.5319C35.5027 24.3296 35.6232 23.8809 35.4208 23.5297Z" fill="#008E00"/>
<path d="M38.3168 21.8571C38.1142 21.5061 37.6655 21.3861 37.3144 21.5887L37.2207 21.6429C36.8698 21.8455 36.7496 22.2943 36.9524 22.6453C37.0883 22.8806 37.3349 23.0122 37.5885 23.0122C37.7129 23.0122 37.8393 22.9805 37.9548 22.9138L38.0485 22.8596C38.3993 22.6569 38.5196 22.2081 38.3168 21.8571Z" fill="#008E00"/>
<path d="M41.2128 20.185C41.0103 19.8341 40.5615 19.714 40.2104 19.9165L40.1167 19.9707C39.7657 20.1734 39.6456 20.6222 39.8483 20.9732C39.9843 21.2085 40.2309 21.3401 40.4845 21.3401C40.6089 21.3401 40.7353 21.3083 40.8508 21.2416L40.9444 21.1874C41.2954 20.9848 41.4155 20.536 41.2128 20.185Z" fill="#008E00"/>
<path d="M44.1091 18.5129C43.9065 18.162 43.4577 18.0419 43.1066 18.2444L43.013 18.2986C42.662 18.5012 42.5419 18.9501 42.7446 19.301C42.8806 19.5364 43.1271 19.6679 43.3808 19.6679C43.5052 19.6679 43.6315 19.6362 43.7471 19.5695L43.8407 19.5153C44.1917 19.3127 44.3118 18.8638 44.1091 18.5129Z" fill="#008E00"/>
<path d="M15.6751 23.2208L15.5814 23.1668C15.2302 22.9643 14.7814 23.0847 14.5792 23.4359C14.3767 23.7871 14.4972 24.2358 14.8483 24.4382L14.942 24.4922C15.0575 24.5588 15.1835 24.5904 15.3078 24.5904C15.5615 24.5904 15.8084 24.4586 15.9442 24.223C16.1467 23.8719 16.0261 23.4231 15.6751 23.2208Z" fill="#008E00"/>
<path d="M12.7794 21.549L12.6857 21.4948C12.3348 21.2925 11.8859 21.4123 11.6833 21.7633C11.4804 22.1143 11.6007 22.5631 11.9516 22.7657L12.0453 22.8199C12.1609 22.8866 12.2871 22.9184 12.4116 22.9184C12.6651 22.9184 12.9118 22.7867 13.0477 22.5515C13.2505 22.2005 13.1303 21.7517 12.7794 21.549Z" fill="#008E00"/>
<path d="M9.88321 19.8769L9.78956 19.8227C9.43868 19.6204 8.98976 19.7401 8.78712 20.0912C8.58429 20.4422 8.7045 20.891 9.05548 21.0936L9.14913 21.1478C9.26476 21.2145 9.39093 21.2463 9.51544 21.2463C9.76896 21.2463 10.0156 21.1146 10.1516 20.8794C10.3544 20.5284 10.2342 20.0796 9.88321 19.8769Z" fill="#008E00"/>
<path d="M20.0598 19.4133L20.0056 19.3197C19.8031 18.9688 19.3543 18.8485 19.0032 19.0513C18.6522 19.254 18.5321 19.7028 18.7347 20.0538L18.7889 20.1474C18.9249 20.3828 19.1715 20.5143 19.4251 20.5143C19.5497 20.5143 19.6759 20.4826 19.7914 20.4158C20.1424 20.2131 20.2625 19.7643 20.0598 19.4133Z" fill="#008E00"/>
<path d="M18.388 16.5176L18.334 16.424C18.1317 16.0728 17.683 15.9525 17.3317 16.1548C16.9806 16.3572 16.8602 16.8059 17.0626 17.1571L17.1166 17.2507C17.2524 17.4864 17.4992 17.6181 17.753 17.6181C17.8773 17.6181 18.0034 17.5865 18.1188 17.5199C18.4699 17.3175 18.5904 16.8688 18.388 16.5176Z" fill="#008E00"/>
<path d="M16.7156 13.6209L16.6614 13.5272C16.4589 13.1763 16.0101 13.056 15.659 13.2588C15.308 13.4615 15.1879 13.9103 15.3905 14.2613L15.4447 14.3549C15.5806 14.5903 15.8272 14.7218 16.0808 14.7218C16.2054 14.7218 16.3316 14.6901 16.4471 14.6233C16.7981 14.4207 16.9184 13.9718 16.7156 13.6209Z" fill="#008E00"/>
<path d="M15.0435 10.7248L14.9893 10.6312C14.7868 10.2803 14.338 10.1601 13.9869 10.3628C13.6359 10.5654 13.5158 11.0143 13.7184 11.3652L13.7726 11.4589C13.9086 11.6942 14.1552 11.8258 14.4088 11.8258C14.5332 11.8258 14.6596 11.7941 14.7751 11.7273C15.1261 11.5245 15.2462 11.0758 15.0435 10.7248Z" fill="#008E00"/>
<path d="M13.3715 7.82849L13.3173 7.73484C13.1147 7.38396 12.666 7.26365 12.3148 7.46648C11.9639 7.66912 11.8437 8.11795 12.0464 8.46892L12.1006 8.56258C12.2365 8.79793 12.4831 8.92947 12.7367 8.92947C12.8611 8.92947 12.9875 8.89773 13.103 8.83094C13.4539 8.6283 13.5741 8.17947 13.3715 7.82849Z" fill="#008E00"/>
</g>
<defs>
<clipPath id="clip0">
<rect width="50" height="50" fill="white"/>
</clipPath>
</defs>
</svg>
