<svg width="50" height="50" viewBox="0 0 50 50" fill="none" xmlns="http://www.w3.org/2000/svg">
<path d="M49.2727 3.10823L46.8984 0.733074C45.9287 -0.234152 44.3516 -0.234985 43.3819 0.733907L40.7776 3.33817H0V49.9916H46.6535V9.24483L46.9075 8.99073L49.2727 6.62557C50.2424 5.65585 50.2424 4.07796 49.2727 3.10823ZM16.7011 30.6238L19.3837 33.3063L15.6947 34.3127L16.7011 30.6238ZM43.3727 10.1687L39.8387 6.63474L41.0167 5.45674L44.5515 8.99073L43.3727 10.1687ZM42.1947 11.3467L20.9874 32.5541L17.4534 29.0201L38.6607 7.81274L42.1947 11.3467ZM44.9873 10.911V48.3254H1.66619V5.00436H39.1114L15.6864 28.4311L15.5298 28.5877L13.7628 35.0683L12.7414 36.0897C12.4156 36.4155 12.4156 36.942 12.7414 37.2677C12.9038 37.4302 13.1171 37.5118 13.3304 37.5118C13.5437 37.5118 13.7569 37.4302 13.9194 37.2677L14.9408 36.2463L21.4214 34.4777L43.3744 12.5256L43.7468 12.1532L44.9873 10.911ZM48.0947 5.44757L45.7295 7.81274L42.1947 4.2779L44.5599 1.91274C44.8798 1.59283 45.4005 1.59366 45.7204 1.91274L48.0947 4.28707C48.4146 4.60614 48.4146 5.12766 48.0947 5.44757Z" fill="#008E00"/>
</svg>
