<svg width="50" height="50" viewBox="0 0 50 50" fill="none" xmlns="http://www.w3.org/2000/svg">
<path d="M44.9683 9.87295L25.461 0.112012C25.3263 0.0410156 25.1729 0.000585938 25.0102 0C25.0097 9.76563e-05 25.0091 0 25.0085 0C25.0078 9.76563e-05 25.0071 0 25.0064 0H24.9936C24.9929 0 24.9922 9.76563e-05 24.9915 0C24.991 0 24.9906 0.000195313 24.9898 0C24.8271 0.000585938 24.6737 0.0410156 24.539 0.112012L5.03174 9.87295C4.70098 10.0384 4.49219 10.3765 4.49219 10.7463V29.3835C4.49219 32.9438 5.53682 35.9541 7.68584 38.5862C9.67803 41.0265 12.3639 42.8071 14.7284 44.2271C19.602 47.1537 24.4722 49.8511 24.5208 49.8779C24.6655 49.958 24.8282 50 24.9936 50H25.0064C25.1718 50 25.3345 49.958 25.4792 49.8779C25.5278 49.8511 30.398 47.1537 35.2716 44.2271C37.636 42.8071 40.3219 41.0266 42.3142 38.5862C44.4632 35.954 45.5078 32.9437 45.5078 29.3835V10.7463C45.5078 10.3765 45.2989 10.0384 44.9683 9.87295ZM43.5547 29.3835C43.5547 36.3881 38.7602 39.8539 34.2661 42.5527C30.2973 44.9361 26.3295 47.167 25 47.9095C23.6708 47.1673 19.7038 44.9368 15.7339 42.5527C11.2398 39.8539 6.44531 36.388 6.44531 29.3835V11.3496L25 2.06533L43.5547 11.3496V29.3835Z" fill="#FFA626"/>
<path d="M41.062 12.2863L25.437 4.46785C25.1611 4.32976 24.8361 4.33025 24.5606 4.46912L8.98438 12.3176C8.50274 12.5603 8.30899 13.1475 8.55176 13.6292C8.79434 14.1108 9.38155 14.3047 9.86329 14.0618L25.0016 6.43396L39.6485 13.763V25.4557C39.6485 25.9951 40.0857 26.4323 40.625 26.4323C41.1644 26.4323 41.6016 25.9951 41.6016 25.4557V13.1596C41.6016 12.7898 41.3927 12.4517 41.062 12.2863Z" fill="#FFA626"/>
<path d="M33.5698 39.4965C33.2921 39.034 32.6922 38.8843 32.2299 39.162C29.5441 40.7749 26.8575 42.3183 24.9505 43.3989C23.044 42.3182 20.3944 40.795 17.745 39.204C12.95 36.3243 10.3516 33.9064 10.3516 29.3835V25.7812C10.3516 25.2419 9.91436 24.8047 9.375 24.8047C8.83564 24.8047 8.39844 25.2419 8.39844 25.7812V29.3835C8.39844 34.7842 11.5899 37.7858 16.7396 40.8784C19.6627 42.6338 22.5839 44.3058 24.5197 45.3993C24.6716 45.4851 24.8364 45.5258 24.9991 45.5258C25.2703 45.5258 25.5353 45.4126 25.7227 45.2062C27.649 44.116 30.4417 42.5142 33.2354 40.8364C33.6978 40.5588 33.8476 39.9589 33.5698 39.4965Z" fill="#FFA626"/>
<path d="M9.375 21.1016C8.83564 21.1016 8.39844 21.5388 8.39844 22.0781V22.0956C8.39844 22.635 8.83564 23.0722 9.375 23.0722C9.91436 23.0722 10.3516 22.635 10.3516 22.0956V22.0781C10.3516 21.5388 9.91436 21.1016 9.375 21.1016Z" fill="#FFA626"/>
<path d="M40.625 28.3757C40.0856 28.3757 39.6484 28.8129 39.6484 29.3523V29.3833C39.6484 29.9227 40.0856 30.3599 40.625 30.3599C41.1644 30.3599 41.6016 29.9227 41.6016 29.3833V29.3523C41.6016 28.8129 41.1644 28.3757 40.625 28.3757Z" fill="#FFA626"/>
<path d="M25.4445 11.6766C25.187 11.5449 24.8812 11.5331 24.6109 11.6504C24.4344 11.7271 20.288 13.5834 20.288 18.3691C20.288 23.1548 24.4344 25.011 24.6109 25.0875C24.7351 25.1415 24.8676 25.1685 25 25.1685C25.1324 25.1685 25.2649 25.1415 25.3891 25.0876C25.5656 25.011 29.712 23.1549 29.712 18.3692C29.712 13.9676 26.1858 12.0344 25.4445 11.6766ZM25.9766 22.3635V18.369C25.9766 17.8296 25.5394 17.3924 25 17.3924C24.4607 17.3924 24.0234 17.8296 24.0234 18.369V22.3577C23.1734 21.5825 22.2411 20.2941 22.2411 18.3691C22.2411 15.6025 24.1479 14.1576 24.9953 13.6522C25.9028 14.1953 27.7589 15.6401 27.7589 18.3691C27.7589 20.3033 26.827 21.5907 25.9766 22.3635Z" fill="#FFA626"/>
<path d="M24.5085 26.5247C24.4778 26.2559 24.3369 26.0119 24.1194 25.8509C23.9647 25.7364 20.2841 23.0736 16.1395 25.4664C12.3273 27.6674 12.4165 31.6881 12.4774 32.5086C12.4922 32.7974 12.6348 33.0681 12.8716 33.2434C12.9786 33.3227 14.7741 34.6222 17.2436 34.6222C18.3426 34.6222 19.5751 34.3648 20.8516 33.6277C24.9962 31.2349 24.5304 26.7159 24.5085 26.5247ZM19.8749 31.9363C17.4788 33.3198 15.2741 32.3908 14.4128 31.9096C14.4294 30.8521 14.7525 28.5224 17.116 27.1578C18.7914 26.1906 20.3723 26.354 21.4666 26.7042L18.0078 28.7014C17.5407 28.9711 17.3808 29.5684 17.6504 30.0355C17.8314 30.3487 18.1596 30.5238 18.497 30.5238C18.6627 30.5238 18.8307 30.4817 18.9844 30.3929L22.4379 28.3986C22.1916 29.5223 21.5419 30.9739 19.8749 31.9363Z" fill="#FFA626"/>
<path d="M33.859 25.4649C29.7145 23.0721 26.0338 25.735 25.8791 25.8495C25.6616 26.0105 25.5208 26.2545 25.4901 26.5233C25.4682 26.7145 25.0024 31.2335 29.147 33.6263C30.4169 34.3595 31.645 34.6169 32.7437 34.6168C34.9429 34.6168 36.6228 33.5856 37.0766 33.2768C37.3193 33.1197 37.4826 32.8607 37.516 32.5679C37.5379 32.3768 38.0035 27.8578 33.859 25.4649ZM30.1235 31.9349C28.4486 30.9679 27.7996 29.5175 27.5555 28.3947L31.0146 30.3927C31.1685 30.4816 31.3363 30.5238 31.5022 30.5238C31.8396 30.5238 32.1678 30.3488 32.3486 30.0355C32.6184 29.5685 32.4585 28.9712 31.9915 28.7014L28.5365 26.7057C29.633 26.3572 31.2152 26.1938 32.8824 27.1563C35.2784 28.5397 35.5763 30.9134 35.5903 31.9C34.6661 32.4144 32.4869 33.2994 30.1235 31.9349Z" fill="#FFA626"/>
</svg>
