<svg width="50" height="50" viewBox="0 0 50 50" fill="none" xmlns="http://www.w3.org/2000/svg">
<path d="M22.6019 19.98C22.5338 19.98 22.4649 19.9767 22.3968 19.9704C21.8207 19.9162 21.3001 19.6407 20.9311 19.195C20.562 18.7493 20.3886 18.1864 20.443 17.6104C20.5483 16.491 21.4747 15.6467 22.598 15.6467C22.6661 15.6467 22.735 15.65 22.8029 15.6564C23.3791 15.7106 23.8997 15.9859 24.2688 16.4316C24.6379 16.8774 24.8114 17.4402 24.7572 18.0163C24.6516 19.1358 23.7251 19.98 22.6019 19.98ZM21.6134 17.7204C21.5831 17.9834 21.6678 18.2413 21.8367 18.4452C22.0055 18.6491 22.2435 18.7751 22.5071 18.7999C23.06 18.8526 23.5354 18.4496 23.5866 17.9062C23.6114 17.6427 23.5322 17.3853 23.3633 17.1814C23.1945 16.9775 22.9557 16.8577 22.6928 16.8267C22.4456 16.7977 21.7109 16.8744 21.6134 17.7204Z" fill="#FFA626"/>
<path d="M44.2969 46.3042C43.2791 35.9855 38.6844 28.2057 35.0091 23.4961C31.1336 18.5299 27.5317 15.905 27.1962 15.6656C26.8741 15.3969 26.5668 15.1587 26.2721 14.9444C26.1625 13.5515 25.7415 6.75991 27.3551 0.740087C27.413 0.523771 27.3431 0.293346 27.1746 0.145805C27.0063 -0.00173726 26.7687 -0.0407683 26.5618 0.0450529C26.4735 0.0817326 24.3746 0.969217 22.3488 3.17588C20.5955 5.08569 18.5946 8.36559 18.6514 13.336C18.2289 13.0705 17.8502 12.7248 17.5119 12.2947C14.8888 8.96011 15.8007 1.94605 15.8101 1.87563C15.8312 1.72033 15.7892 1.56291 15.6939 1.43865C15.2765 0.895506 14.8038 0.626991 14.294 0.639688C13.557 0.658498 13.123 1.09842 12.9864 1.4999C10.3143 9.35383 14.876 17.9536 14.9549 18.1223C13.7082 18.8026 13.3442 20.543 13.4262 21.5061C13.2248 25.517 11.8124 32.8968 6.24789 45.3263C6.12057 45.6109 4.80833 48.326 6.75976 49.5784C6.85569 49.64 6.96596 49.6663 7.07671 49.6663C7.18063 49.6663 7.28668 49.6405 7.38802 49.5888C8.21672 49.166 11.569 44.0927 14.0127 39.839C15.8924 36.567 18.0706 32.3935 19.2898 28.7535C19.4698 28.7991 19.686 28.8493 19.9352 28.8987L19.7378 29.6522C19.6555 29.9662 19.8435 30.2875 20.1575 30.3698C20.2075 30.3828 20.2575 30.3891 20.3068 30.3891C20.5676 30.3891 20.8059 30.2141 20.875 29.9501L21.1033 29.0782C21.4656 29.1181 21.8581 29.1464 22.272 29.1555L22.299 30.0887C22.3083 30.4074 22.5695 30.6595 22.8863 30.6595C22.892 30.6595 22.8979 30.6595 22.9037 30.6592C23.2281 30.6498 23.4836 30.3791 23.4742 30.0546L23.4472 29.1253C23.7902 29.0996 24.1417 29.0581 24.4983 28.9969L24.7147 29.9334C24.7775 30.2052 25.0194 30.3889 25.2869 30.3889C25.3308 30.3889 25.3753 30.384 25.4197 30.3738C25.7361 30.3007 25.9333 29.985 25.8601 29.6688L25.6437 28.732C26.0515 28.6117 26.4605 28.4613 26.8659 28.276L27.3501 29.078C27.4605 29.2609 27.6547 29.3622 27.8539 29.3622C27.9574 29.3622 28.0621 29.3348 28.1572 29.2774C28.4351 29.1096 28.5244 28.7482 28.3566 28.4703L27.9012 27.716C28.1803 27.5396 28.4548 27.3412 28.7237 27.1232C32.3107 30.9822 34.5866 34.9022 35.9385 37.7569C37.4292 40.9047 38.0901 43.3445 38.2907 44.1738C37.6983 44.8121 37.3643 45.6534 37.3643 46.5325C37.3643 48.4444 38.9197 49.9999 40.8316 49.9999C42.7435 49.9999 44.2989 48.4444 44.2989 46.5325C44.2995 46.5326 44.3048 46.3835 44.2969 46.3042ZM23.1801 4.00893C24.1571 2.93617 25.1652 2.19623 25.9022 1.73549C24.7895 6.75791 24.9085 11.8892 25.0377 14.1434C22.7372 13.1679 21.255 13.2606 20.314 13.9391C20.1504 13.9145 19.9923 13.8815 19.8381 13.8419C19.6727 9.93342 20.7959 6.62683 23.1801 4.00893ZM13.1166 39.0385C10.4715 43.668 7.89942 47.3733 7.04073 48.3423C6.47408 47.7577 7.19756 46.0827 7.32112 45.8067C12.9791 33.1683 14.4038 25.6248 14.6026 21.5223C14.6038 21.4979 14.547 19.728 15.468 19.1789C16.9775 22.1672 18.5257 24.2707 19.0134 24.9058C18.6622 27.9807 16.5772 32.982 13.1166 39.0385ZM15.7809 17.1027C14.0497 13.2351 12.3557 7.47952 14.073 1.96345C14.138 1.83942 14.2363 1.8172 14.3241 1.81497C14.3989 1.81015 14.5734 1.86952 14.6131 1.98438C14.4587 3.3728 13.9348 9.64609 16.5866 13.0199C17.2941 13.92 18.1695 14.5408 19.1975 14.8779C18.152 15.9376 18.1843 17.0499 18.1874 17.0816L18.5928 21.3132C18.6043 21.4325 18.6519 21.5454 18.7293 21.6368C19.648 22.7222 20.9018 23.376 22.1173 23.7699L19.8804 24.1021C19.2655 23.2868 17.3645 20.641 15.7809 17.1027ZM27.2923 26.7068L26.8709 26.009C26.7031 25.7311 26.3417 25.6419 26.0639 25.8096C25.786 25.9774 25.6967 26.3388 25.8645 26.6167L26.2489 27.2534C25.9596 27.3778 25.6678 27.4833 25.3758 27.571L25.2133 26.8676C25.1403 26.5513 24.8244 26.3537 24.5083 26.4272C24.1919 26.5003 23.9948 26.816 24.0679 27.1322L24.2298 27.8331C23.9537 27.878 23.6808 27.9099 23.4129 27.9313L23.3911 27.1808C23.3817 26.8562 23.1094 26.6008 22.7864 26.6102C22.462 26.6196 22.2065 26.8904 22.2159 27.2149L22.2377 27.9623C21.9482 27.9552 21.6707 27.9379 21.4087 27.9137L21.6038 27.169C21.6861 26.855 21.4981 26.5337 21.1841 26.4514C20.8698 26.3689 20.5486 26.557 20.4665 26.8711L20.236 27.7508C20.0067 27.7082 19.8077 27.6645 19.6408 27.6247C19.8799 26.7879 20.0582 25.9893 20.1562 25.2497L25.9335 24.3916C26.6294 25.0104 27.2859 25.6383 27.9076 26.27C27.7065 26.4284 27.5013 26.5751 27.2923 26.7068ZM40.8322 48.8244C39.5686 48.8244 38.5405 47.7963 38.5405 46.5326C38.5405 45.8717 38.8261 45.2427 39.3241 44.8071L39.323 44.806C39.476 44.6719 39.5567 44.4641 39.5142 44.2504C39.4905 44.1319 38.9135 41.3016 37.0196 37.2921C35.2761 33.6011 32.0369 28.1823 26.506 23.3281C26.3932 23.229 26.2477 23.177 26.0964 23.1824C26.0533 23.184 21.8535 23.312 19.745 21.0116L19.3636 17.0313C19.394 16.8264 19.5879 15.9191 20.6784 15.1141C22.6 13.7084 26.4855 16.6028 26.4986 16.6119C26.5353 16.6378 30.2052 19.2509 34.0824 24.2195C37.662 28.8064 42.1369 36.3815 43.127 46.4196C43.1308 46.4587 42.7266 48.8244 40.8322 48.8244Z" fill="#FFA626"/>
</svg>
