<svg width="50" height="50" viewBox="0 0 50 50" fill="none" xmlns="http://www.w3.org/2000/svg">
<g clip-path="url(#clip0)">
<path d="M49.9589 18.7645C49.821 18.3557 49.3779 18.1363 48.9688 18.2739L47.052 18.9202L43.2426 7.61355L49.4679 5.51609C49.8768 5.3784 50.0966 4.93514 49.9588 4.52635C49.821 4.11737 49.3776 3.89744 48.969 4.03543L42.7438 6.13279L42.0441 4.05604C41.9779 3.85965 41.8364 3.69764 41.6508 3.60565C41.4652 3.51366 41.2505 3.49901 41.0542 3.56512L34.6195 5.73358C34.2106 5.87137 33.9909 6.31443 34.1286 6.72332L35.3136 10.2408L32.0222 11.35L22.8936 9.84226C22.8042 9.82722 22.7127 9.8283 22.6235 9.8449L14.5045 11.3542C14.3779 11.3778 14.2591 11.4322 14.1587 11.5127L3.26357 20.2461C2.24091 21.0449 2.03115 22.4968 2.78642 23.5518C3.32958 24.3102 4.27206 24.6904 5.18876 24.52C5.46063 24.4688 5.71942 24.3728 5.958 24.2344L17.7317 17.7787L24.0996 20.287L21.1639 20.8323C20.3503 20.9837 19.6444 21.4429 19.1761 22.1252C18.7078 22.8075 18.5335 23.6314 18.6849 24.4446C18.9611 25.9337 20.2663 26.9774 21.7301 26.9774C21.917 26.9774 22.1065 26.9603 22.2965 26.9251L34.2629 24.7013C34.3013 24.6942 34.3389 24.6842 34.3757 24.6715L37.1554 23.7095C37.5632 23.5684 37.7793 23.1235 37.6382 22.7157C37.4971 22.3081 37.0522 22.0922 36.6445 22.2329L33.92 23.1757L22.0114 25.3887C21.1785 25.5422 20.3755 24.9915 20.221 24.1588C20.1459 23.7555 20.2323 23.3472 20.4644 23.009C20.6965 22.6709 21.0465 22.4432 21.4497 22.3682L27.0615 21.3256C27.404 21.262 27.663 20.9791 27.6964 20.6322C27.7297 20.2853 27.5293 19.9584 27.2051 19.8306L17.9635 16.1904C17.7476 16.1055 17.5051 16.1207 17.3015 16.2323L5.19774 22.8692C5.1912 22.8728 5.18466 22.8765 5.17802 22.8803C5.09208 22.9306 4.99853 22.9657 4.90146 22.9838C4.58007 23.0434 4.24823 22.9095 4.05673 22.642C3.79072 22.2706 3.86474 21.7589 4.233 21.4713L14.983 12.8544L22.7742 11.4061L31.9597 12.9231C32.086 12.9441 32.2154 12.9337 32.3365 12.8927L35.8123 11.7215L40.3341 25.1442C40.444 25.4704 40.7483 25.676 41.0744 25.676C41.1571 25.676 41.2412 25.6628 41.3239 25.6349L47.7597 23.4673C47.9561 23.4012 48.1181 23.2598 48.2102 23.0742C48.3023 22.8885 48.3168 22.6739 48.2507 22.4775L47.5509 20.4005L49.4681 19.7543C49.877 19.6166 50.0967 19.1733 49.9589 18.7645ZM41.5654 23.905L35.8587 6.96473L40.8127 5.29529L46.5204 22.2363L41.5654 23.905Z" fill="#FFA626"/>
<path d="M49.1091 38.2137H36.6549C36.4818 38.2137 36.3137 38.2713 36.1768 38.377L29.9328 43.2089C26.9961 45.4813 22.8943 45.4813 19.9575 43.2089L13.7134 38.377C13.5765 38.2711 13.4085 38.2137 13.2353 38.2137H0.781249C0.349804 38.2137 0 38.5635 0 38.995C0 39.4264 0.349804 39.7762 0.781249 39.7762H12.9684L19.0013 44.4447C20.7513 45.799 22.8479 46.4759 24.9452 46.4758C27.0419 46.4756 29.1394 45.7986 30.889 44.4447L36.9219 39.7762H49.1091C49.5405 39.7762 49.8903 39.4264 49.8903 38.995C49.8903 38.5635 49.5405 38.2137 49.1091 38.2137Z" fill="#FFA626"/>
<path d="M17.5704 27.4747C17.2995 27.2824 16.9366 27.2824 16.6657 27.4747C15.6219 28.2158 14.9989 29.421 14.9989 30.6986C14.9989 31.9762 15.622 33.1813 16.6657 33.9224C16.8013 34.0186 16.9596 34.0666 17.1181 34.0666C17.2765 34.0666 17.435 34.0185 17.5704 33.9224C18.6141 33.1813 19.2372 31.976 19.2372 30.6986C19.2372 29.4208 18.614 28.2158 17.5704 27.4747ZM17.1181 32.23C16.7631 31.8044 16.5615 31.263 16.5615 30.6986C16.5616 30.134 16.7631 29.5926 17.1181 29.167C17.4732 29.5926 17.6748 30.134 17.6748 30.6986C17.6748 31.263 17.4732 31.8044 17.1181 32.23Z" fill="#FFA626"/>
<path d="M26.1318 34.5035C25.8609 34.3112 25.498 34.3112 25.2271 34.5035C24.1833 35.2446 23.5603 36.4499 23.5603 37.7273C23.5603 39.0048 24.1834 40.21 25.2271 40.9512C25.3625 41.0473 25.5209 41.0955 25.6793 41.0955C25.8377 41.0955 25.9962 41.0473 26.1318 40.9512C27.1754 40.21 27.7986 39.0046 27.7986 37.7273C27.7986 36.4497 27.1754 35.2446 26.1318 34.5035ZM25.6794 39.2587C25.3244 38.8332 25.1228 38.2917 25.1228 37.7273C25.1229 37.1628 25.3244 36.6214 25.6794 36.1958C26.0345 36.6214 26.2361 37.1628 26.2361 37.7273C26.2361 38.2917 26.0345 38.8332 25.6794 39.2587Z" fill="#FFA626"/>
</g>
<defs>
<clipPath id="clip0">
<rect width="50" height="50" fill="white"/>
</clipPath>
</defs>
</svg>
