<svg width="175" height="175" viewBox="0 0 175 175" fill="none" xmlns="http://www.w3.org/2000/svg">
<path d="M163.5 24.4924C163.186 22.236 161.563 20.3801 159.368 19.77L89.0327 0.20968C88.03 -0.069405 86.9708 -0.069405 85.9673 0.20968L15.6318 19.77C13.4373 20.3801 11.8138 22.2353 11.4997 24.4924C11.0917 27.4258 1.78508 96.7365 25.656 131.216C49.4987 165.655 84.6718 174.481 86.1572 174.84C86.5987 174.947 87.0486 174.999 87.5 174.999C87.9514 174.999 88.4013 174.946 88.8428 174.84C90.329 174.481 125.502 165.655 149.344 131.216C173.215 96.7372 163.908 27.4266 163.5 24.4924ZM132.857 64.9566L84.8815 112.933C83.7652 114.049 82.3011 114.608 80.8378 114.608C79.3745 114.608 77.9105 114.05 76.7941 112.933L47.1311 83.2695C46.0582 82.1974 45.4558 80.7425 45.4558 79.2258C45.4558 77.7091 46.0589 76.2542 47.1311 75.1821L53.0208 69.2924C55.2543 67.0597 58.8755 67.0589 61.1082 69.2924L80.8378 89.022L118.88 50.9787C119.952 49.9059 121.407 49.3035 122.924 49.3035C124.441 49.3035 125.896 49.9059 126.968 50.9787L132.857 56.8685C135.091 59.1019 135.091 62.7232 132.857 64.9566Z" fill="#D3D3D3"/>
</svg>
