<svg width="50" height="50" viewBox="0 0 50 50" fill="none" xmlns="http://www.w3.org/2000/svg">
<path d="M36.7793 44.2284C36.7096 44.2284 36.6401 44.2299 36.5708 44.2326C35.0663 39.3139 30.5322 35.9318 25.3298 35.9318C25.1787 35.9318 25.0282 35.935 24.878 35.9407C24.828 35.9427 24.7785 35.9467 24.7286 35.9492C24.6287 35.9544 24.5288 35.9592 24.4295 35.9669C24.37 35.9715 24.3111 35.9782 24.2518 35.9837C24.1626 35.992 24.0733 35.9997 23.9845 36.01C23.9214 36.0173 23.8587 36.0267 23.7958 36.035C23.7115 36.0461 23.6273 36.0568 23.5435 36.0697C23.4785 36.0798 23.4142 36.0917 23.3495 36.1028C23.2685 36.1168 23.1873 36.1304 23.1068 36.146C23.041 36.1587 22.976 36.1732 22.9106 36.187C22.8318 36.2037 22.7529 36.2201 22.6747 36.2384C22.6088 36.2538 22.5435 36.2707 22.4779 36.2872C22.401 36.3065 22.324 36.3258 22.2477 36.3467C22.182 36.3646 22.117 36.384 22.0518 36.403C21.9764 36.4251 21.901 36.4471 21.8262 36.4706C21.7611 36.4911 21.6964 36.5128 21.6317 36.5344C21.5603 36.5582 21.4888 36.5819 21.418 36.6071C21.4356 36.5081 21.4536 36.4091 21.4747 36.3097L22.7807 30.168L25.4993 30.7458L25.4152 31.4094C25.1738 33.3128 26.455 35.1164 28.3317 35.5153C28.5862 35.5694 28.8414 35.5955 29.0937 35.5955C30.7002 35.5955 32.1876 34.5385 32.6661 32.9507L32.8591 32.3103L35.5777 32.8883L34.563 37.6617C34.4789 38.0573 34.7315 38.4464 35.1272 38.5306C35.1785 38.5415 35.2297 38.5467 35.2802 38.5467C35.6186 38.5467 35.9228 38.3107 35.996 37.9663L37.1631 32.4765C37.2035 32.2864 37.1668 32.0881 37.061 31.9251C36.9552 31.7622 36.789 31.648 36.5988 31.6076L33.2833 30.9029L33.4596 30.3182C33.5187 30.1221 33.493 29.9101 33.3886 29.7337C33.2843 29.5574 33.1109 29.4328 32.9105 29.3902L30.7234 28.9253L28.7773 28.5116L33.0222 8.54043C33.1764 8.59678 33.3331 8.64804 33.4923 8.69414C33.498 8.6958 33.5035 8.69765 33.5092 8.69931C33.578 8.71904 33.6475 8.7374 33.7172 8.75517C33.7304 8.75859 33.7436 8.7624 33.7568 8.76572C33.8308 8.78418 33.9054 8.80117 33.9804 8.81738C33.9886 8.81914 33.9968 8.82129 34.005 8.82304C34.1155 8.84658 34.2265 8.8664 34.3378 8.88466C34.3681 8.88964 34.3984 8.89443 34.4287 8.89902C34.5265 8.91377 34.6245 8.92695 34.7227 8.93769C34.7447 8.94013 34.7667 8.94258 34.7888 8.94482C34.8651 8.95244 34.9415 8.95927 35.018 8.96445L31.1986 26.9335C31.1146 27.3292 31.3671 27.7183 31.7628 27.8022C32.1589 27.8864 32.5475 27.6338 32.6317 27.2381L36.528 8.90693C38.2705 8.65752 39.8891 7.77304 41.0543 6.36377C41.056 6.36181 41.0576 6.36006 41.0593 6.3581C41.0605 6.35674 41.0616 6.35547 41.0627 6.3541C41.0655 6.35068 41.0676 6.34697 41.0703 6.34345C41.0848 6.32529 41.0984 6.30644 41.111 6.28691C41.116 6.2792 41.1208 6.27138 41.1255 6.26357C41.1361 6.2459 41.1458 6.22773 41.1548 6.20927C41.1584 6.20185 41.1623 6.19463 41.1656 6.18711C41.1771 6.16162 41.1873 6.13564 41.1957 6.10888C41.1969 6.10517 41.1976 6.10136 41.1987 6.09756C41.2043 6.07881 41.2098 6.05996 41.2138 6.04062L41.8024 3.27187C41.8864 2.87627 41.6339 2.4872 41.2382 2.40312L30.0084 0.016208C29.6126 -0.0680693 29.2237 0.184665 29.1396 0.580368L28.551 3.34902C28.5469 3.36845 28.5441 3.38789 28.5415 3.40742C28.541 3.41123 28.5402 3.41484 28.5398 3.41865C28.5365 3.44658 28.5354 3.47461 28.5355 3.50263C28.5355 3.51074 28.5361 3.51875 28.5363 3.52675C28.537 3.54756 28.5386 3.56836 28.5411 3.58896C28.5422 3.59785 28.5434 3.60674 28.5447 3.61562C28.5485 3.63906 28.5533 3.6623 28.5593 3.68525C28.5603 3.68906 28.5607 3.69306 28.5617 3.69687C28.5622 3.69873 28.5628 3.70049 28.5634 3.70234C28.5638 3.7039 28.5643 3.70537 28.5648 3.70693C29.056 5.46963 30.1743 6.93847 31.6657 7.87539L27.3442 28.2071L26.6398 28.0574C26.4395 28.0149 26.2304 28.0581 26.0633 28.1768C25.8963 28.2953 25.7866 28.4785 25.7609 28.6818L25.6841 29.2876L22.3687 28.5829C21.9732 28.4986 21.584 28.7514 21.4999 29.1471L20.0416 36.0058C19.9499 36.4385 19.8862 36.8705 19.8514 37.2949C19.8389 37.3015 19.8267 37.3085 19.8143 37.3151C19.7534 37.3476 19.6929 37.3805 19.6325 37.414C19.5658 37.4511 19.4995 37.4889 19.4335 37.5271C19.374 37.5617 19.3148 37.5966 19.2559 37.6322C19.1905 37.6717 19.1258 37.7121 19.0612 37.7528C19.003 37.7895 18.945 37.8265 18.8875 37.8642C18.8236 37.9061 18.7606 37.9488 18.6976 37.9919C18.6408 38.0307 18.5842 38.0695 18.5281 38.1093C18.4657 38.1535 18.4041 38.1988 18.3426 38.2443C18.2875 38.2851 18.2324 38.3257 18.178 38.3674C18.1171 38.4141 18.057 38.4619 17.997 38.5099C17.9436 38.5524 17.8902 38.5948 17.8375 38.6383C17.778 38.6874 17.7196 38.7378 17.6611 38.788C17.6096 38.8323 17.5577 38.8763 17.5069 38.9215C17.4489 38.9731 17.3921 39.0262 17.3351 39.0789C17.2856 39.1248 17.2357 39.1702 17.1869 39.2169C17.1302 39.2713 17.0748 39.327 17.0192 39.3825C16.9719 39.4297 16.924 39.4763 16.8776 39.5243C16.8219 39.5816 16.7678 39.6405 16.7134 39.6991C16.6688 39.7471 16.6235 39.7944 16.5795 39.8432C16.5244 39.9044 16.471 39.9672 16.4172 40.0296C16.3758 40.0776 16.3336 40.1248 16.2929 40.1735C16.2367 40.2408 16.1824 40.3099 16.1277 40.3784C16.0913 40.4239 16.054 40.4686 16.0184 40.5147C15.9531 40.5991 15.8901 40.6852 15.8271 40.7715C15.8037 40.8034 15.7793 40.8345 15.7563 40.8667C15.6713 40.9853 15.5886 41.1059 15.5079 41.228C15.4817 41.2679 15.4569 41.3088 15.4312 41.349C15.3775 41.4326 15.3235 41.516 15.2718 41.6012C15.241 41.6519 15.212 41.7038 15.182 41.755C15.1373 41.8312 15.0922 41.9069 15.0491 41.9843C15.0183 42.0397 14.9892 42.0965 14.9591 42.1525C14.9192 42.2271 14.8787 42.3015 14.8403 42.377C14.8106 42.4357 14.7825 42.4955 14.7537 42.5548C14.7174 42.6294 14.6808 42.7038 14.6459 42.7793C14.6178 42.8403 14.5914 42.9023 14.5643 42.9641C14.5378 43.0242 14.5102 43.0835 14.4847 43.1442C14.4253 43.1425 14.3657 43.1417 14.3062 43.1417C10.9292 43.1417 8.18185 45.8895 8.18185 49.2669C8.18185 49.6714 8.50978 49.9994 8.91437 49.9994H41.0868C41.4914 49.9994 41.8194 49.6715 41.8194 49.2669C41.8184 46.489 39.5578 44.2284 36.7793 44.2284ZM30.1363 2.93711L30.4202 1.60136L40.2169 3.68369L39.9331 5.01953L30.1363 2.93711ZM30.4533 4.50224L39.007 6.32041C38.1042 7.01914 37.0178 7.42949 35.8846 7.504C35.8813 7.5042 35.8779 7.50381 35.8745 7.5041C35.849 7.50576 35.8235 7.50644 35.7981 7.50771C35.7405 7.51064 35.6829 7.51289 35.6251 7.51406C35.5891 7.51484 35.553 7.51543 35.517 7.51543C35.4367 7.51552 35.3564 7.51445 35.2759 7.51113C35.2496 7.51006 35.2234 7.5082 35.1971 7.50674C35.1267 7.50293 35.0563 7.49785 34.9857 7.4914C34.9623 7.48925 34.939 7.4875 34.9156 7.48506C34.8278 7.47597 34.74 7.46465 34.6521 7.45136C34.6304 7.44814 34.6088 7.44453 34.5871 7.44101C34.4945 7.42597 34.4021 7.40957 34.3097 7.38994C34.2167 7.37021 34.1249 7.34746 34.0337 7.32334C34.0136 7.31806 33.9935 7.31279 33.9735 7.30732C33.8867 7.2834 33.8008 7.25761 33.7157 7.22988C33.6954 7.22324 33.6753 7.21601 33.6551 7.20918C33.5848 7.18535 33.5152 7.16015 33.4462 7.13369C33.4243 7.12529 33.4023 7.11738 33.3805 7.10869C33.3036 7.07822 33.2278 7.0457 33.1528 7.01211C33.1222 6.99843 33.0919 6.98427 33.0616 6.97011C33.0054 6.94375 32.9497 6.9164 32.8945 6.88828C32.8743 6.87802 32.8539 6.86826 32.8339 6.85771C32.8313 6.85634 32.8284 6.85537 32.8258 6.854C31.82 6.32509 30.994 5.5081 30.4533 4.50224ZM26.8682 31.5939L27.1139 29.6561L30.228 30.3181L31.1848 30.5214C31.1849 30.5214 31.1851 30.5214 31.1852 30.5215L31.8268 30.6578L31.2631 32.5281C30.9275 33.6416 29.7736 34.3241 28.636 34.0827C27.4984 33.8408 26.7219 32.7477 26.8682 31.5939ZM9.70334 48.535C10.0391 46.4172 11.8068 44.7707 13.9795 44.6197C13.764 45.4183 13.6319 46.2392 13.5887 47.0719C13.5678 47.4758 13.8782 47.8203 14.2823 47.8412C14.2952 47.8419 14.308 47.8422 14.3208 47.8422C14.7079 47.8422 15.0315 47.5387 15.0517 47.1476C15.1046 46.1246 15.3081 45.1217 15.6567 44.1664C17.1314 40.1174 21.0187 37.397 25.3298 37.397C30.0724 37.397 34.1802 40.6068 35.3196 45.2026C35.4125 45.5771 35.7798 45.8154 36.1602 45.7474C36.3594 45.7115 36.5677 45.6935 36.7794 45.6935C38.499 45.6935 39.9391 46.9144 40.2779 48.535H9.70334Z" fill="#008E00"/>
</svg>
