<svg width="50" height="50" viewBox="0 0 50 50" fill="none" xmlns="http://www.w3.org/2000/svg">
<g clip-path="url(#clip0)">
<path d="M29.3727 4.23105C27.8116 2.66982 25.5866 2.00605 23.4208 2.45439C23.1342 2.51366 22.9104 2.73769 22.8511 3.02411C22.4026 5.18974 23.0666 7.41485 24.6278 8.97598C25.8678 10.2159 27.5268 10.89 29.2423 10.89C29.6863 10.89 30.1342 10.8448 30.5796 10.7526C30.8662 10.6934 31.09 10.4693 31.1493 10.1829C31.5979 8.01709 30.9338 5.79209 29.3727 4.23105ZM29.7896 9.39288C28.2708 9.55655 26.7582 9.03057 25.6656 7.93819C24.5733 6.8458 24.0474 5.33359 24.2109 3.81416C25.7308 3.65048 27.2425 4.17646 28.335 5.26875C29.4273 6.36113 29.9532 7.87325 29.7896 9.39288Z" fill="#FFA626"/>
<path d="M49.7668 29.5532C49.3656 28.6939 48.4936 28.1386 47.5451 28.1386C47.2615 28.1386 46.9843 28.1867 46.7204 28.2815L33.2323 32.7184L26.8129 28.7042H30.2738C31.1209 28.7042 31.9182 28.3741 32.5195 27.7741C33.1194 27.1743 33.4498 26.3763 33.4498 25.5272C33.4498 23.7754 32.0251 22.3502 30.2738 22.3502H28.5704C29.5785 22.0787 30.6228 21.9343 31.6793 21.9276C32.1516 21.9248 32.6132 21.9477 33.059 21.9959C33.0594 21.996 33.0598 21.996 33.0603 21.9961C33.0605 21.9961 33.0607 21.9962 33.0609 21.9962C36.8021 22.3907 40.1032 24.4502 42.1182 27.6474C42.2577 27.8688 42.4959 27.9901 42.7396 27.9901C42.8734 27.9901 43.0087 27.9535 43.1303 27.877C43.4731 27.661 43.576 27.2078 43.3599 26.8649C41.2217 23.4722 37.7886 21.2244 33.8696 20.6226V17.1933H36.6109C42.7032 17.1933 47.6596 12.2368 47.6596 6.14464V3.74404C47.6596 3.33877 47.3312 3.01025 46.9258 3.01025H43.4509C37.3586 3.01025 32.4022 7.96671 32.4022 14.0589V16.4554C32.4022 16.4567 32.402 16.4579 32.402 16.4592V20.4753C32.1602 20.4643 31.9159 20.4588 31.6704 20.4601C29.2513 20.4756 26.8869 21.1297 24.8163 22.3504H17.4408C17.303 22.3504 17.168 22.3892 17.0512 22.4624L10.0377 26.8565L8.57766 24.3776C8.37219 24.0284 7.92229 23.9122 7.57287 24.1177L2.07657 27.3549C1.9089 27.4538 1.78731 27.6151 1.73858 27.8036C1.68985 27.992 1.71798 28.192 1.81681 28.3597L2.86163 30.1336L0.361529 31.606C0.0124075 31.8117 -0.103999 32.2616 0.101763 32.6108C0.238482 32.8431 0.483209 32.9723 0.734675 32.9723C0.861335 32.9723 0.98946 32.9395 1.10645 32.8707L3.60655 31.398L9.29426 41.0546L0.361529 46.3169C0.0123098 46.5225 -0.103999 46.9725 0.101763 47.3216C0.23858 47.5539 0.483307 47.683 0.734675 47.683C0.861335 47.683 0.98946 47.6502 1.10645 47.5813L10.0392 42.3191L11.0843 44.0935C11.221 44.3259 11.4658 44.4551 11.7172 44.4551C11.8439 44.4551 11.972 44.4222 12.089 44.3534L17.5852 41.1162C17.9343 40.9105 18.0507 40.4606 17.845 40.1115L16.4785 37.7916L19.7798 35.7708L26.2642 39.7058C26.379 39.7755 26.5106 39.8123 26.6449 39.8123H35.3509C35.4718 39.8123 35.5909 39.7823 35.6975 39.7252L48.6751 32.77C49.8469 32.1611 50.3263 30.7477 49.7668 29.5532ZM33.8699 14.0588C33.8698 8.77589 38.1679 4.47783 43.4509 4.47783H46.192V6.14464C46.192 11.4276 41.8939 15.7257 36.6109 15.7257H35.0144L41.8202 9.45011C42.1182 9.1754 42.1369 8.71114 41.8623 8.41319C41.5876 8.11524 41.1232 8.0964 40.8254 8.3711L33.87 14.7847V14.0588H33.8699ZM11.9764 42.7164L10.9331 40.9451C10.9324 40.944 10.9321 40.9428 10.9314 40.9418C10.9307 40.9407 10.9299 40.9397 10.9293 40.9387L4.50431 30.0304C4.50246 30.0271 4.50099 30.0238 4.49914 30.0205C4.49718 30.0171 4.49494 30.0143 4.49298 30.0111L3.45392 28.2468L7.68557 25.7543L14.8538 37.9246C14.8539 37.9249 14.854 37.9251 14.8542 37.9253C14.8543 37.9254 14.8544 37.9255 14.8544 37.9256L16.2081 40.2237L11.9764 42.7164ZM47.99 31.4722L35.1667 38.3447H26.8501L20.1587 34.284C19.924 34.1415 19.6292 34.1421 19.395 34.2855L15.7333 36.5268L10.7825 28.1213L17.6513 23.8179H30.2736C31.2156 23.8179 31.9819 24.5847 31.9819 25.5272C31.9819 25.9842 31.8043 26.4136 31.4821 26.7357C31.1585 27.0586 30.7293 27.2366 30.2735 27.2366H24.2551C23.9278 27.2366 23.6401 27.4534 23.5498 27.768C23.4594 28.0826 23.5885 28.4191 23.866 28.5925L32.7453 34.1452C32.9303 34.2608 33.1569 34.2881 33.3636 34.2201L47.189 29.6723C47.1965 29.6698 47.2041 29.6672 47.2116 29.6644C47.3172 29.6257 47.4292 29.6063 47.5447 29.6063C47.9254 29.6063 48.2755 29.8292 48.4368 30.1749C48.6622 30.6551 48.4694 31.223 47.99 31.4722Z" fill="#FFA626"/>
</g>
<defs>
<clipPath id="clip0">
<rect width="50" height="50" fill="white"/>
</clipPath>
</defs>
</svg>
