<svg width="20" height="91" viewBox="0 0 20 91" fill="none" xmlns="http://www.w3.org/2000/svg">
<path d="M13.704 51.9571C13.8747 51.7971 14.0613 51.7171 14.264 51.7171C14.456 51.7171 14.632 51.7971 14.792 51.9571C14.9413 52.1064 15.016 52.2984 15.016 52.5331C15.016 52.6611 14.9947 52.7837 14.952 52.9011C14.8987 53.0077 14.8293 53.0984 14.744 53.1731L9.4 57.7651V59.4771H14.168C14.4027 59.4771 14.6 59.5571 14.76 59.7171C14.92 59.8664 15 60.0637 15 60.3091C15 60.5437 14.92 60.7411 14.76 60.9011C14.6 61.0611 14.4027 61.1411 14.168 61.1411H3.336C3.09067 61.1411 2.89333 61.0611 2.744 60.9011C2.584 60.7411 2.504 60.5437 2.504 60.3091C2.504 60.0637 2.584 59.8664 2.744 59.7171C2.89333 59.5571 3.09067 59.4771 3.336 59.4771H7.928V57.8291L2.776 53.5251C2.584 53.3651 2.488 53.1677 2.488 52.9331C2.488 52.6984 2.57333 52.5064 2.744 52.3571C2.89333 52.2184 3.064 52.1491 3.256 52.1491C3.448 52.1491 3.63467 52.2237 3.816 52.3731L8.52 56.4211L13.704 51.9571ZM13.832 39.5225C13.9707 39.4692 14.088 39.4425 14.184 39.4425C14.408 39.4425 14.6 39.5225 14.76 39.6825C14.92 39.8425 15 40.0398 15 40.2745C15 40.4345 14.9573 40.5892 14.872 40.7385C14.776 40.8772 14.648 40.9785 14.488 41.0425L12.248 41.9385V47.6825L14.488 48.5945C14.648 48.6692 14.776 48.7758 14.872 48.9145C14.9573 49.0532 15 49.2025 15 49.3625C15 49.5972 14.92 49.7945 14.76 49.9545C14.5893 50.1038 14.392 50.1785 14.168 50.1785C14.0613 50.1785 13.9387 50.1518 13.8 50.0985L3.064 45.6025C2.69067 45.4425 2.504 45.1812 2.504 44.8185C2.504 44.4345 2.69067 44.1732 3.064 44.0345L13.832 39.5225ZM10.872 42.4985L5.176 44.7865L10.872 47.1225V42.4985ZM14.168 35.3811C14.4027 35.3811 14.6 35.4611 14.76 35.6211C14.92 35.7704 15 35.9678 15 36.2131C15 36.4478 14.92 36.6451 14.76 36.8051C14.6 36.9651 14.4027 37.0451 14.168 37.0451H3.336C3.09067 37.0451 2.89333 36.9651 2.744 36.8051C2.584 36.6451 2.504 36.4478 2.504 36.2131L2.504 33.0131C2.504 32.2238 2.68 31.5198 3.032 30.9011C3.384 30.2718 3.87467 29.7864 4.504 29.4451C5.13333 29.0931 5.848 28.9171 6.648 28.9171C7.42667 28.9171 8.12 29.0931 8.728 29.4451C9.336 29.7864 9.81067 30.2718 10.152 30.9011C10.4933 31.5198 10.664 32.2238 10.664 33.0131V35.3811H14.168ZM9.128 33.0131C9.128 32.2878 8.89867 31.6904 8.44 31.2211C7.97067 30.7518 7.37333 30.5171 6.648 30.5171C5.89067 30.5171 5.26667 30.7518 4.776 31.2211C4.28533 31.6904 4.04 32.2878 4.04 33.0131V35.3811H9.128V33.0131ZM2.504 18.3807C2.504 18.1567 2.57867 17.9753 2.728 17.8367C2.86667 17.6873 3.048 17.6127 3.272 17.6127C3.496 17.6127 3.68267 17.6873 3.832 17.8367C3.97067 17.9753 4.04 18.1567 4.04 18.3807V21.8207H14.168C14.4027 21.8207 14.6 21.9007 14.76 22.0607C14.92 22.2207 15 22.418 15 22.6527C15 22.8873 14.92 23.0847 14.76 23.2447C14.6 23.4047 14.4027 23.4847 14.168 23.4847H4.04V26.9407C4.04 27.1647 3.97067 27.3513 3.832 27.5007C3.68267 27.6393 3.496 27.7087 3.272 27.7087C3.048 27.7087 2.86667 27.6393 2.728 27.5007C2.57867 27.3513 2.504 27.1647 2.504 26.9407L2.504 18.3807ZM13.832 7.13636C13.9707 7.08302 14.088 7.05636 14.184 7.05636C14.408 7.05636 14.6 7.13636 14.76 7.29636C14.92 7.45636 15 7.65369 15 7.88836C15 8.04836 14.9573 8.20302 14.872 8.35236C14.776 8.49102 14.648 8.59236 14.488 8.65636L12.248 9.55236V15.2964L14.488 16.2084C14.648 16.283 14.776 16.3897 14.872 16.5284C14.9573 16.667 15 16.8164 15 16.9764C15 17.211 14.92 17.4084 14.76 17.5684C14.5893 17.7177 14.392 17.7924 14.168 17.7924C14.0613 17.7924 13.9387 17.7657 13.8 17.7124L3.064 13.2164C2.69067 13.0564 2.504 12.795 2.504 12.4324C2.504 12.0484 2.69067 11.787 3.064 11.6484L13.832 7.13636ZM10.872 10.1124L5.176 12.4004L10.872 14.7364V10.1124Z" fill="#008E00"/>
<path d="M11.25 91L11.25 75.75L18.25 82.75L20 81L10 71L-3.27826e-07 81L1.75 82.75L8.75 75.75L8.75 91H11.25Z" fill="#008E00"/>
</svg>
