<svg width="20" height="91" viewBox="0 0 20 91" fill="none" xmlns="http://www.w3.org/2000/svg">
<path d="M2.344 50.1608C2.344 48.9342 2.616 47.8408 3.16 46.8808C3.704 45.9102 4.46133 45.1582 5.432 44.6248C6.40267 44.0808 7.50667 43.8088 8.744 43.8088C9.98133 43.8088 11.0907 44.0808 12.072 44.6248C13.0427 45.1582 13.8 45.9048 14.344 46.8648C14.888 47.8248 15.16 48.9235 15.16 50.1608C15.16 51.3982 14.888 52.5022 14.344 53.4728C13.8 54.4328 13.0427 55.1795 12.072 55.7128C11.0907 56.2462 9.98133 56.5128 8.744 56.5128C7.50667 56.5128 6.40267 56.2462 5.432 55.7128C4.46133 55.1795 3.704 54.4328 3.16 53.4728C2.616 52.5022 2.344 51.3982 2.344 50.1608ZM3.848 50.1608C3.848 51.0782 4.06133 51.8995 4.488 52.6248C4.91467 53.3395 5.50133 53.8995 6.248 54.3048C6.99467 54.7102 7.82667 54.9128 8.744 54.9128C9.66133 54.9128 10.4933 54.7102 11.24 54.3048C11.9867 53.8995 12.5787 53.3342 13.016 52.6088C13.4427 51.8835 13.656 51.0675 13.656 50.1608C13.656 49.2542 13.4427 48.4382 13.016 47.7128C12.5787 46.9875 11.9867 46.4222 11.24 46.0168C10.4933 45.6115 9.66133 45.4088 8.744 45.4088C7.82667 45.4088 6.99467 45.6115 6.248 46.0168C5.50133 46.4222 4.91467 46.9875 4.488 47.7128C4.06133 48.4275 3.848 49.2435 3.848 50.1608ZM13.528 25.207C13.528 24.9617 13.608 24.7644 13.768 24.615C13.9173 24.455 14.1147 24.375 14.36 24.375H17.016C17.2613 24.375 17.4587 24.455 17.608 24.615C17.768 24.7644 17.848 24.9617 17.848 25.207C17.848 25.4417 17.768 25.639 17.608 25.799C17.4587 25.959 17.2613 26.039 17.016 26.039H15V39.799C15 40.0337 14.92 40.231 14.76 40.391C14.6 40.551 14.4027 40.631 14.168 40.631H3.336C3.09067 40.631 2.89333 40.551 2.744 40.391C2.584 40.231 2.504 40.0337 2.504 39.799C2.504 39.5537 2.584 39.3564 2.744 39.207C2.89333 39.047 3.09067 38.967 3.336 38.967H13.528V34.167H3.336C3.09067 34.167 2.89333 34.087 2.744 33.927C2.584 33.767 2.504 33.5697 2.504 33.335C2.504 33.0897 2.584 32.8924 2.744 32.743C2.89333 32.583 3.09067 32.503 3.336 32.503H13.528V27.703H3.336C3.09067 27.703 2.89333 27.623 2.744 27.463C2.584 27.303 2.504 27.1057 2.504 26.871C2.504 26.6364 2.584 26.4444 2.744 26.295C2.89333 26.135 3.09067 26.055 3.336 26.055H13.528L13.528 25.207ZM13.464 13.5737C13.464 13.3284 13.5333 13.1311 13.672 12.9817C13.8107 12.8324 13.992 12.7577 14.216 12.7577C14.4507 12.7577 14.6427 12.8324 14.792 12.9817C14.9307 13.1311 15 13.3284 15 13.5737V20.8057C15 21.0404 14.92 21.2377 14.76 21.3977C14.6 21.5577 14.4027 21.6377 14.168 21.6377H3.336C3.09067 21.6377 2.89333 21.5577 2.744 21.3977C2.584 21.2377 2.504 21.0404 2.504 20.8057L2.504 13.5737C2.504 13.3284 2.57867 13.1311 2.728 12.9817C2.86667 12.8324 3.05333 12.7577 3.288 12.7577C3.512 12.7577 3.69333 12.8324 3.832 12.9817C3.97067 13.1311 4.04 13.3284 4.04 13.5737V19.9737H7.928L7.928 15.3817C7.928 15.1471 8.00267 14.9551 8.152 14.8057C8.29067 14.6457 8.472 14.5657 8.696 14.5657C8.92 14.5657 9.10667 14.6457 9.256 14.8057C9.39467 14.9551 9.464 15.1471 9.464 15.3817V19.9737H13.464V13.5737Z" fill="#008E00"/>
<path d="M11.25 91L11.25 75.75L18.25 82.75L20 81L10 71L-3.27826e-07 81L1.75 82.75L8.75 75.75L8.75 91H11.25Z" fill="#008E00"/>
</svg>
