<svg width="20" height="145" viewBox="0 0 20 145" fill="none" xmlns="http://www.w3.org/2000/svg">
<path d="M2.504 112.565C2.504 111.851 2.648 111.216 2.936 110.661C3.21333 110.107 3.608 109.675 4.12 109.365C4.62133 109.045 5.192 108.885 5.832 108.885C6.35467 108.885 6.824 109.029 7.24 109.317C7.656 109.595 7.992 109.979 8.248 110.469C8.41867 109.744 8.76 109.173 9.272 108.757C9.784 108.341 10.4347 108.133 11.224 108.133C11.9493 108.133 12.6 108.309 13.176 108.661C13.752 109.003 14.2 109.488 14.52 110.117C14.84 110.736 15 111.44 15 112.229V116.389C15 116.624 14.92 116.821 14.76 116.981C14.6 117.141 14.4027 117.221 14.168 117.221H3.336C3.09067 117.221 2.89333 117.141 2.744 116.981C2.584 116.821 2.504 116.624 2.504 116.389L2.504 112.565ZM7.64 112.565C7.64 111.936 7.48533 111.435 7.176 111.061C6.86667 110.677 6.41867 110.485 5.832 110.485C5.24533 110.485 4.80267 110.677 4.504 111.061C4.19467 111.435 4.04 111.936 4.04 112.565V115.557H7.64V112.565ZM13.464 112.229C13.464 111.483 13.272 110.88 12.888 110.421C12.4933 109.963 11.9387 109.733 11.224 109.733C10.5627 109.733 10.056 109.963 9.704 110.421C9.352 110.869 9.176 111.472 9.176 112.229V115.557H13.464V112.229ZM2.808 95.7435C2.72267 95.6688 2.65333 95.5728 2.6 95.4555C2.536 95.3382 2.504 95.2208 2.504 95.1035C2.504 94.8582 2.584 94.6608 2.744 94.5115C2.89333 94.3515 3.09067 94.2715 3.336 94.2715H14.168C14.4027 94.2715 14.6 94.3515 14.76 94.5115C14.92 94.6608 15 94.8582 15 95.1035C15 95.3382 14.92 95.5355 14.76 95.6955C14.6 95.8555 14.4027 95.9355 14.168 95.9355H5.112L14.712 103.583C14.7973 103.658 14.8667 103.754 14.92 103.871C14.9733 103.989 15 104.106 15 104.223C15 104.469 14.92 104.677 14.76 104.847C14.6 105.007 14.4027 105.087 14.168 105.087H3.336C3.10133 105.087 2.904 105.007 2.744 104.847C2.584 104.677 2.504 104.469 2.504 104.223C2.504 103.989 2.584 103.797 2.744 103.647C2.89333 103.498 3.09067 103.423 3.336 103.423H12.408L2.808 95.7435ZM13.704 75.7644C13.9173 75.6044 14.1147 75.5244 14.296 75.5244C14.4667 75.5244 14.632 75.6044 14.792 75.7644C14.9413 75.9138 15.016 76.1164 15.016 76.3724C15.016 76.5004 14.9947 76.6178 14.952 76.7244C14.8987 76.8311 14.8293 76.9164 14.744 76.9804L9.4 81.0284V82.6604H14.168C14.4027 82.6604 14.6 82.7404 14.76 82.9004C14.92 83.0498 15 83.2471 15 83.4924C15 83.7271 14.92 83.9244 14.76 84.0844C14.6 84.2444 14.4027 84.3244 14.168 84.3244H9.4V85.9564L14.744 89.9724C14.9253 90.1218 15.016 90.3298 15.016 90.5964C15.016 90.8418 14.9413 91.0391 14.792 91.1884C14.632 91.3484 14.4613 91.4284 14.28 91.4284C14.1093 91.4284 13.9173 91.3484 13.704 91.1884L8.52 87.3004L3.816 90.7724C3.61333 90.9218 3.42133 90.9964 3.24 90.9964C3.05867 90.9964 2.89333 90.9271 2.744 90.7884C2.57333 90.6391 2.488 90.4471 2.488 90.2124C2.488 89.9671 2.584 89.7698 2.776 89.6204L7.928 85.8924V84.3244H3.336C3.09067 84.3244 2.89333 84.2444 2.744 84.0844C2.584 83.9244 2.504 83.7271 2.504 83.4924C2.504 83.2471 2.584 83.0498 2.744 82.9004C2.89333 82.7404 3.09067 82.6604 3.336 82.6604H7.928V81.0924L2.776 77.3324C2.584 77.1938 2.488 77.0018 2.488 76.7564C2.488 76.5111 2.57333 76.3138 2.744 76.1644C2.89333 76.0258 3.05867 75.9564 3.24 75.9564C3.42133 75.9564 3.61333 76.0311 3.816 76.1804L8.52 79.6684L13.704 75.7644ZM2.504 64.8673C2.504 64.6433 2.57867 64.4619 2.728 64.3233C2.86667 64.1739 3.048 64.0993 3.272 64.0993C3.496 64.0993 3.68267 64.1739 3.832 64.3233C3.97067 64.4619 4.04 64.6433 4.04 64.8673V68.3073H14.168C14.4027 68.3073 14.6 68.3873 14.76 68.5473C14.92 68.7073 15 68.9046 15 69.1393C15 69.3739 14.92 69.5713 14.76 69.7313C14.6 69.8913 14.4027 69.9713 14.168 69.9713H4.04L4.04 73.4273C4.04 73.6513 3.97067 73.8379 3.832 73.9873C3.68267 74.1259 3.496 74.1953 3.272 74.1953C3.048 74.1953 2.86667 74.1259 2.728 73.9873C2.57867 73.8379 2.504 73.6513 2.504 73.4273L2.504 64.8673ZM13.464 53.6217C13.464 53.3764 13.5333 53.179 13.672 53.0297C13.8107 52.8804 13.992 52.8057 14.216 52.8057C14.4507 52.8057 14.6427 52.8804 14.792 53.0297C14.9307 53.179 15 53.3764 15 53.6217V60.8537C15 61.0884 14.92 61.2857 14.76 61.4457C14.6 61.6057 14.4027 61.6857 14.168 61.6857H3.336C3.09067 61.6857 2.89333 61.6057 2.744 61.4457C2.584 61.2857 2.504 61.0884 2.504 60.8537L2.504 53.6217C2.504 53.3764 2.57867 53.179 2.728 53.0297C2.86667 52.8804 3.05333 52.8057 3.288 52.8057C3.512 52.8057 3.69333 52.8804 3.832 53.0297C3.97067 53.179 4.04 53.3764 4.04 53.6217V60.0217H7.928V55.4297C7.928 55.195 8.00267 55.003 8.152 54.8537C8.29067 54.6937 8.472 54.6137 8.696 54.6137C8.92 54.6137 9.10667 54.6937 9.256 54.8537C9.39467 55.003 9.464 55.195 9.464 55.4297V60.0217H13.464V53.6217ZM2.344 38.8762C2.344 37.6496 2.616 36.5562 3.16 35.5962C3.704 34.6256 4.46133 33.8736 5.432 33.3402C6.40267 32.7962 7.50667 32.5242 8.744 32.5242C9.98133 32.5242 11.0907 32.7962 12.072 33.3402C13.0427 33.8736 13.8 34.6202 14.344 35.5802C14.888 36.5402 15.16 37.6389 15.16 38.8762C15.16 40.1136 14.888 41.2176 14.344 42.1882C13.8 43.1482 13.0427 43.8949 12.072 44.4282C11.0907 44.9616 9.98133 45.2282 8.744 45.2282C7.50667 45.2282 6.40267 44.9616 5.432 44.4282C4.46133 43.8949 3.704 43.1482 3.16 42.1882C2.616 41.2176 2.344 40.1136 2.344 38.8762ZM3.848 38.8762C3.848 39.7936 4.06133 40.6149 4.488 41.3402C4.91467 42.0549 5.50133 42.6149 6.248 43.0202C6.99467 43.4256 7.82667 43.6282 8.744 43.6282C9.66133 43.6282 10.4933 43.4256 11.24 43.0202C11.9867 42.6149 12.5787 42.0496 13.016 41.3242C13.4427 40.5989 13.656 39.7829 13.656 38.8762C13.656 37.9696 13.4427 37.1536 13.016 36.4282C12.5787 35.7029 11.9867 35.1376 11.24 34.7322C10.4933 34.3269 9.66133 34.1242 8.744 34.1242C7.82667 34.1242 6.99467 34.3269 6.248 34.7322C5.50133 35.1376 4.91467 35.7029 4.488 36.4282C4.06133 37.1429 3.848 37.9589 3.848 38.8762ZM13.528 13.9224C13.528 13.6771 13.608 13.4798 13.768 13.3304C13.9173 13.1704 14.1147 13.0904 14.36 13.0904H17.016C17.2613 13.0904 17.4587 13.1704 17.608 13.3304C17.768 13.4798 17.848 13.6771 17.848 13.9224C17.848 14.1571 17.768 14.3544 17.608 14.5144C17.4587 14.6744 17.2613 14.7544 17.016 14.7544H15L15 28.5144C15 28.7491 14.92 28.9464 14.76 29.1064C14.6 29.2664 14.4027 29.3464 14.168 29.3464H3.336C3.09067 29.3464 2.89333 29.2664 2.744 29.1064C2.584 28.9464 2.504 28.7491 2.504 28.5144C2.504 28.2691 2.584 28.0718 2.744 27.9224C2.89333 27.7624 3.09067 27.6824 3.336 27.6824H13.528V22.8824H3.336C3.09067 22.8824 2.89333 22.8024 2.744 22.6424C2.584 22.4824 2.504 22.2851 2.504 22.0504C2.504 21.8051 2.584 21.6078 2.744 21.4584C2.89333 21.2984 3.09067 21.2184 3.336 21.2184H13.528L13.528 16.4184H3.336C3.09067 16.4184 2.89333 16.3384 2.744 16.1784C2.584 16.0184 2.504 15.8211 2.504 15.5864C2.504 15.3518 2.584 15.1598 2.744 15.0104C2.89333 14.8504 3.09067 14.7704 3.336 14.7704H13.528V13.9224ZM13.464 2.28912C13.464 2.04379 13.5333 1.84646 13.672 1.69712C13.8107 1.54779 13.992 1.47312 14.216 1.47312C14.4507 1.47312 14.6427 1.54779 14.792 1.69712C14.9307 1.84646 15 2.04379 15 2.28912V9.52112C15 9.75579 14.92 9.95312 14.76 10.1131C14.6 10.2731 14.4027 10.3531 14.168 10.3531H3.336C3.09067 10.3531 2.89333 10.2731 2.744 10.1131C2.584 9.95312 2.504 9.75579 2.504 9.52112L2.504 2.28912C2.504 2.04379 2.57867 1.84646 2.728 1.69712C2.86667 1.54779 3.05333 1.47312 3.288 1.47312C3.512 1.47312 3.69333 1.54779 3.832 1.69712C3.97067 1.84646 4.04 2.04379 4.04 2.28912V8.68912H7.928V4.09712C7.928 3.86246 8.00267 3.67046 8.152 3.52112C8.29067 3.36112 8.472 3.28112 8.696 3.28112C8.92 3.28112 9.10667 3.36112 9.256 3.52112C9.39467 3.67046 9.464 3.86246 9.464 4.09712V8.68912H13.464V2.28912Z" fill="#008E00"/>
<path d="M11.25 145L11.25 129.75L18.25 136.75L20 135L10 125L-3.27826e-07 135L1.75 136.75L8.75 129.75L8.75 145H11.25Z" fill="#008E00"/>
</svg>
