<svg width="175" height="175" viewBox="0 0 175 175" fill="none" xmlns="http://www.w3.org/2000/svg">
<path d="M41.3481 133.992C38.5193 133.992 36.2209 136.29 36.2209 139.119C36.2209 141.948 38.5193 144.246 41.3481 144.246C44.177 144.246 46.4754 141.948 46.4754 139.119C46.4754 136.29 44.177 133.992 41.3481 133.992Z" fill="#D3D3D3"/>
<path d="M66.984 113.483H56.7295C53.8955 113.483 51.6023 111.19 51.6023 108.356C51.6023 105.522 53.8955 103.228 56.7295 103.228H66.984V92.6322H56.7295C53.8955 92.6322 51.6023 90.3389 51.6023 87.505C51.6023 84.671 53.8955 82.3777 56.7295 82.3777H66.984V72.1232H56.7295C53.8955 72.1232 51.6023 69.83 51.6023 66.996C51.6023 64.162 53.8955 61.8687 56.7295 61.8687H66.984V51.6142H56.7295C53.8955 51.6142 51.6023 49.321 51.6023 46.487C51.6023 43.653 53.8955 41.3598 56.7295 41.3598H66.984V25.6362C66.984 11.5011 55.4829 0 41.3478 0C27.2127 0 15.7116 11.5011 15.7116 25.6362V114.159C7.62011 122.441 4.01019 133.977 6.01289 145.468C8.79835 161.422 23.0702 175 41.2726 175C61.3194 175 77.2385 158.827 77.2385 139.119C77.2385 129.841 73.5284 120.868 66.984 114.159V113.483ZM41.3478 154.501C32.866 154.501 25.9661 147.601 25.9661 139.119C25.9661 132.444 30.2654 126.806 36.2206 124.682V66.996C36.2206 64.162 38.5138 61.8687 41.3478 61.8687C44.1818 61.8687 46.4751 64.162 46.4751 66.996V124.682C52.4302 126.805 56.7295 132.444 56.7295 139.119C56.7295 147.601 49.83 154.501 41.3478 154.501Z" fill="#D3D3D3"/>
<path d="M149.02 66.996C149.02 65.2524 148.815 63.5091 148.508 61.8688C147.79 58.5873 146.559 55.511 144.713 52.8448C142.868 49.9732 140.406 47.5121 137.535 45.5638C134.869 43.8205 131.793 42.5903 128.511 41.8722C126.871 41.5642 125.127 41.3594 123.384 41.3594C121.641 41.3594 119.897 41.5642 118.257 41.8722C114.975 42.59 111.899 43.8205 109.233 45.5638C106.362 47.5121 103.9 49.9732 102.055 52.8448C100.209 55.511 98.9784 58.5873 98.2606 61.8688C97.9533 63.5091 97.7478 65.2524 97.7478 66.996C97.7478 68.7393 97.9533 70.4822 98.2606 72.1232C98.9784 75.4047 100.209 78.481 102.055 81.1472C103.901 84.0181 106.362 86.4792 109.233 88.4275C111.899 90.1712 114.975 91.4017 118.257 92.1198C119.897 92.4271 121.641 92.6326 123.384 92.6326C125.127 92.6326 126.871 92.4271 128.511 92.1198C131.793 91.402 134.869 90.1715 137.535 88.4275C140.406 86.4792 142.868 84.0181 144.713 81.1472C146.559 78.481 147.79 75.4047 148.508 72.1232C148.815 70.4822 149.02 68.7393 149.02 66.996Z" fill="#D3D3D3"/>
<path d="M128.511 31.5151V25.978C128.511 23.1064 126.256 20.8508 123.384 20.8508C120.512 20.8508 118.257 23.1064 118.257 25.978V31.5151C119.897 31.2078 121.641 31.1053 123.384 31.1053C125.127 31.1053 126.871 31.2078 128.511 31.5151Z" fill="#D3D3D3"/>
<path d="M118.257 102.476V108.014C118.257 110.885 120.512 113.141 123.384 113.141C126.256 113.141 128.511 110.885 128.511 108.014V102.476C126.871 102.784 125.127 102.887 123.384 102.887C121.641 102.887 119.897 102.784 118.257 102.476Z" fill="#D3D3D3"/>
<path d="M94.7744 45.5637C96.7227 42.7954 99.1838 40.3339 101.952 38.2834L98.0561 34.3867C96.0053 32.3358 92.7235 32.3358 90.7751 34.3867C88.7242 36.335 88.7242 39.6161 90.7751 41.5645L94.7744 45.5637Z" fill="#D3D3D3"/>
<path d="M151.994 88.4276C150.045 91.1966 147.584 93.6573 144.816 95.7086L148.712 99.6053C149.738 100.63 151.071 101.143 152.404 101.143C153.737 101.143 154.968 100.63 155.993 99.6053C158.044 97.6569 158.044 94.3755 155.993 92.4271L151.994 88.4276Z" fill="#D3D3D3"/>
<path d="M148.712 34.3867L144.816 38.2834C147.585 40.334 150.045 42.7954 151.994 45.5638L155.993 41.5642C158.044 39.6158 158.044 36.3351 155.993 34.3864C154.045 32.3358 150.763 32.3358 148.712 34.3867Z" fill="#D3D3D3"/>
<path d="M94.7744 88.4276L90.7751 92.4268C88.7242 94.3751 88.7242 97.6566 90.7751 99.6049C91.8002 100.63 93.0308 101.143 94.3638 101.143C95.6969 101.143 97.03 100.63 98.0558 99.6049L101.952 95.7082C99.1838 93.6573 96.7227 91.1966 94.7744 88.4276Z" fill="#D3D3D3"/>
<path d="M82.366 61.8687C79.4944 61.8687 77.2388 64.1244 77.2388 66.996C77.2388 69.8669 79.4944 72.1232 82.366 72.1232H87.9031C87.5958 70.4821 87.4933 68.7392 87.4933 66.996C87.4933 65.2524 87.5958 63.5091 87.9031 61.8687H82.366Z" fill="#D3D3D3"/>
<path d="M164.402 61.8687H158.865C159.172 63.5091 159.275 65.2524 159.275 66.996C159.275 68.7392 159.172 70.4821 158.865 72.1232H164.402C167.274 72.1232 169.529 69.8669 169.529 66.996C169.529 64.1244 167.274 61.8687 164.402 61.8687Z" fill="#D3D3D3"/>
</svg>
