<svg width="50" height="50" viewBox="0 0 50 50" fill="none" xmlns="http://www.w3.org/2000/svg">
<path d="M32.0931 48.8259H16.9052V42.0886C17.7311 42.4619 18.5346 42.6518 19.3031 42.6518C22.379 42.6518 23.7765 39.7293 23.8345 39.605C23.964 39.3274 23.8581 38.9968 23.5915 38.8461C22.5088 38.2335 21.4478 37.9229 20.4382 37.9229C18.8425 37.9229 17.6721 38.6758 16.9052 39.4181V29.9488C16.9052 29.6246 16.6424 29.3618 16.3182 29.3618C15.994 29.3618 15.7312 29.6246 15.7312 29.9488V32.9879C15.0353 32.1942 13.9778 31.5935 12.4215 31.5935C12.2233 31.5935 12.0169 31.6033 11.8082 31.6228C11.5333 31.6485 11.3134 31.8622 11.28 32.1362C11.2693 32.2242 11.031 34.3055 12.2162 35.6438C12.8464 36.3557 13.7365 36.7166 14.8617 36.7166H14.8618C15.1353 36.7166 15.4274 36.6909 15.7313 36.6465V48.8259H4.39672C4.07256 48.8259 3.80969 49.0887 3.80969 49.4129C3.80969 49.7372 4.07256 50 4.39672 50H32.0931C32.4172 50 32.6801 49.7372 32.6801 49.4129C32.6801 49.0887 32.4172 48.8259 32.0931 48.8259ZM20.4382 39.097C21.0848 39.097 21.7715 39.2645 22.4854 39.5958C22.0195 40.291 20.979 41.4777 19.3032 41.4777C18.6321 41.4777 17.9106 41.2861 17.152 40.9076C17.6512 40.2331 18.7438 39.097 20.4382 39.097ZM14.8616 35.5424C14.0783 35.5424 13.5015 35.3222 13.0982 34.8691C12.548 34.2506 12.4387 33.3286 12.4286 32.7675C14.7933 32.7713 15.4694 34.5737 15.6594 35.4741C15.3754 35.5195 15.1085 35.5424 14.8616 35.5424Z" fill="#FFA626"/>
<path d="M15.996 22.3364C15.6771 22.2745 15.3693 22.481 15.3067 22.7991C15.2021 23.3308 15.1168 23.8932 15.0528 24.4704C15.0171 24.7926 15.2494 25.0829 15.5716 25.1185C15.5935 25.1209 15.6154 25.1221 15.637 25.1221C15.9323 25.1221 16.1864 24.8998 16.2197 24.5997C16.28 24.0549 16.3604 23.5254 16.4587 23.0257C16.5213 22.7075 16.3142 22.399 15.996 22.3364Z" fill="#FFA626"/>
<path d="M15.5379 25.5855C15.2103 25.5704 14.9404 25.8237 14.9268 26.1475C14.9104 26.5392 14.9022 26.945 14.9022 27.3539C14.9022 27.6781 15.165 27.9409 15.4892 27.9409C15.8135 27.9409 16.0762 27.678 16.0761 27.3537C16.0761 26.9612 16.084 26.5719 16.0997 26.1964C16.1134 25.8726 15.8618 25.5991 15.5379 25.5855Z" fill="#FFA626"/>
<path d="M17.3947 20.0309C17.5299 19.7363 17.4008 19.3877 17.1061 19.2525C16.8114 19.1173 16.4629 19.2464 16.3277 19.5409C16.098 20.0411 15.8933 20.5815 15.7191 21.1474C15.6236 21.4572 15.7974 21.7859 16.1073 21.8812C16.1648 21.8989 16.2231 21.9074 16.2803 21.9074C16.5312 21.9074 16.7634 21.7452 16.8411 21.493C17.0002 20.9762 17.1865 20.4844 17.3947 20.0309Z" fill="#FFA626"/>
<path d="M17.3323 18.8408C17.4333 18.9094 17.548 18.9423 17.6615 18.9423C17.8495 18.9423 18.0342 18.8521 18.1477 18.6849C18.4423 18.2511 18.7697 17.8585 19.1209 17.5184C19.3537 17.2928 19.3597 16.9211 19.134 16.6883C18.9085 16.4557 18.5368 16.4496 18.304 16.6753C17.8954 17.0712 17.516 17.5254 17.1764 18.0256C16.9943 18.2935 17.0642 18.6587 17.3323 18.8408Z" fill="#FFA626"/>
<path d="M17.9784 21.7194C17.6637 21.6418 17.3455 21.8339 17.2678 22.1486C17.1386 22.6715 17.0306 23.2331 16.9469 23.8179C16.9009 24.1387 17.1237 24.4362 17.4447 24.4821C17.473 24.4863 17.5011 24.4882 17.5288 24.4882C17.8161 24.4882 18.0672 24.277 18.1091 23.9843C18.1874 23.4382 18.2878 22.9152 18.4075 22.43C18.4853 22.1152 18.2932 21.7971 17.9784 21.7194Z" fill="#FFA626"/>
<path d="M17.3987 24.9487C17.0746 24.9299 16.7956 25.1722 16.7742 25.4956C16.7387 26.0311 16.7191 26.5952 16.7158 27.1721C16.714 27.4962 16.9753 27.7606 17.2995 27.7624H17.3029C17.6255 27.7624 17.888 27.5018 17.8899 27.1787C17.8931 26.6253 17.9118 26.0851 17.9458 25.573C17.967 25.2497 17.7221 24.9701 17.3987 24.9487Z" fill="#FFA626"/>
<path d="M19.3882 18.7682C19.1151 18.5933 18.7522 18.673 18.5773 18.946C18.2803 19.4097 18.0142 19.9356 17.7867 20.5089C17.6672 20.8101 17.8144 21.1515 18.1158 21.2711C18.1868 21.2992 18.2601 21.3126 18.3322 21.3126C18.5657 21.3126 18.7865 21.1723 18.878 20.9421C19.0779 20.4385 19.3093 19.9801 19.566 19.5792C19.7408 19.3062 19.6612 18.9431 19.3882 18.7682Z" fill="#FFA626"/>
<path d="M46.0029 11.5005L42.5885 8.32699L42.414 2.9841C42.4116 2.18809 42.1005 1.4401 41.5373 0.877137C40.9716 0.311477 40.2196 0 39.4198 0C38.6201 0 37.8682 0.311477 37.3027 0.87702C36.7842 1.39537 36.4941 2.07021 36.4416 2.76432C36.2669 2.74177 36.0845 2.7959 35.9506 2.92962L33.1867 5.69359L29.1568 1.66376C29.0467 1.55351 28.8975 1.49176 28.7417 1.49176C28.5859 1.49176 28.4367 1.55363 28.3265 1.66376L27.2503 2.74013C27.021 2.96931 27.021 3.34101 27.2503 3.57019L31.2801 7.60014L28.5159 10.3643C28.2926 10.5876 28.286 10.9477 28.5011 11.179L29.804 12.5807L27.456 14.9286L23.6387 14.9946L21.931 13.5148C21.7557 13.3629 21.5074 13.3286 21.2972 13.4269C21.0872 13.5254 20.9549 13.7383 20.9596 13.9703L20.9813 15.0434C20.6687 15.1372 20.2299 15.3035 19.7235 15.5959C19.4428 15.7582 19.3467 16.1171 19.5088 16.3979C19.6175 16.5862 19.8148 16.6914 20.0178 16.6914C20.1173 16.6914 20.2183 16.666 20.3108 16.6127C20.5714 16.4621 20.807 16.3554 21.0063 16.2777L21.0161 16.7639C20.7005 16.8897 20.2425 17.1278 19.739 17.5703C19.4955 17.7844 19.4717 18.1553 19.6857 18.3989C19.8018 18.5308 19.964 18.5982 20.1268 18.5982C20.2644 18.5982 20.4027 18.5501 20.5141 18.4521C20.7056 18.2837 20.8842 18.1584 21.0422 18.0627L21.0597 18.9265C21.0644 19.159 21.2057 19.3665 21.4201 19.4562C21.4932 19.4869 21.5702 19.5018 21.6465 19.5018C21.7939 19.5018 21.9391 19.4462 22.0502 19.341L23.7562 17.7261L34.6506 17.7954L37.0868 20.4165C37.1952 20.5332 37.3466 20.6008 37.506 20.6037C37.5097 20.6039 37.5132 20.6039 37.5167 20.6039C37.6723 20.6039 37.8216 20.5421 37.9319 20.4319L46.0182 12.3456C46.1309 12.2328 46.1929 12.0792 46.1899 11.9197C46.1872 11.7603 46.1197 11.609 46.0029 11.5005ZM22.2069 17.5762L22.1602 15.267L22.854 15.8682L22.9206 16.9005L22.2069 17.5762ZM38.1328 1.7072C38.4766 1.36331 38.9337 1.17406 39.4198 1.17406C39.906 1.17406 40.3632 1.36343 40.707 1.70731C41.0507 2.05096 41.24 2.5079 41.2399 2.99408C41.2399 3.00054 41.24 3.00688 41.2402 3.01333L41.377 7.20084L37.8707 3.94189C37.4342 3.23077 37.5395 2.30056 38.1328 1.7072ZM28.7418 2.90896L33.1826 7.34983L32.9364 7.59591L28.4956 3.15516L28.7418 2.90896ZM29.7466 10.7943L32.1105 8.43031L32.5215 8.84111C32.6362 8.9557 32.7863 9.01311 32.9366 9.01311C33.0868 9.01311 33.237 8.95582 33.3516 8.84123L34.428 7.76497C34.5381 7.65485 34.6 7.50551 34.6 7.34983C34.6 7.19415 34.5381 7.04481 34.4281 6.9348L34.0171 6.52376L36.3809 4.15992L37.3367 5.04821L30.635 11.75L29.7466 10.7943ZM30.6039 13.4413L31.9149 14.8518L29.1457 14.8996L30.6039 13.4413ZM24.0749 16.554L24.0497 16.1618L32.9892 16.0074L33.5532 16.6143L24.0749 16.554ZM31.4347 12.6105L38.1971 5.84809L43.2785 10.5711L36.1579 17.692L31.4347 12.6105ZM37.5324 19.171L36.9575 18.5524L44.139 11.3709L44.7577 11.9458L37.5324 19.171Z" fill="#FFA626"/>
</svg>
